Mitr-ExtraLight.ufo
<glyph name="exclam" format="1">
  <advance width="186"/>
  <unicode hex="0021"/>
  <note>
	exclam
  </note>
  <outline>
    <contour>
      <point x="109" y="200"/>
      <point x="114" y="207"/>
      <point x="114" y="222" type="curve" smooth="yes"/>
      <point x="120" y="657" type="line" smooth="yes"/>
      <point x="120" y="672"/>
      <point x="113" y="680"/>
      <point x="97" y="680" type="curve" smooth="yes"/>
      <point x="89" y="680" type="line" smooth="yes"/>
      <point x="73" y="680"/>
      <point x="66" y="672"/>
      <point x="66" y="657" type="curve" smooth="yes"/>
      <point x="72" y="222" type="line" smooth="yes"/>
      <point x="72" y="207"/>
      <point x="77" y="200"/>
      <point x="93" y="200" type="curve" smooth="yes"/>
    </contour>
    <contour>
      <point x="100" y="0" type="line" smooth="yes"/>
      <point x="118" y="0"/>
      <point x="131" y="15"/>
      <point x="131" y="33" type="curve" smooth="yes"/>
      <point x="131" y="51" type="line" smooth="yes"/>
      <point x="131" y="69"/>
      <point x="119" y="84"/>
      <point x="100" y="84" type="curve" smooth="yes"/>
      <point x="86" y="84" type="line" smooth="yes"/>
      <point x="68" y="84"/>
      <point x="55" y="69"/>
      <point x="55" y="51" type="curve" smooth="yes"/>
      <point x="55" y="33" type="line" smooth="yes"/>
      <point x="55" y="15"/>
      <point x="68" y="0"/>
      <point x="86" y="0" type="curve" smooth="yes"/>
    </contour>
  </outline>
</glyph>
<glyph name="ampersand" format="1">
  <advance width="729"/>
  <unicode hex="0026"/>
  <note>
	ampersand
  </note>
  <outline>
    <contour>
      <point x="537" y="-15"/>
      <point x="604" y="119"/>
      <point x="604" y="279" type="curve" smooth="yes"/>
      <point x="604" y="339" type="line"/>
      <point x="661" y="339" type="line" smooth="yes"/>
      <point x="676" y="339"/>
      <point x="684" y="343"/>
      <point x="684" y="359" type="curve" smooth="yes"/>
      <point x="684" y="366" type="line" smooth="yes"/>
      <point x="684" y="382"/>
      <point x="676" y="388"/>
      <point x="661" y="388" type="curve" smooth="yes"/>
      <point x="267" y="388" type="line" smooth="yes"/>
      <point x="189" y="388"/>
      <point x="136" y="429"/>
      <point x="136" y="514" type="curve" smooth="yes"/>
      <point x="136" y="608"/>
      <point x="214" y="646"/>
      <point x="324" y="646" type="curve" smooth="yes"/>
      <point x="411" y="646"/>
      <point x="462" y="624"/>
      <point x="500" y="594" type="curve" smooth="yes"/>
      <point x="508" y="588"/>
      <point x="509" y="591"/>
      <point x="514" y="597" type="curve"/>
      <point x="531" y="619" type="line"/>
      <point x="537" y="626"/>
      <point x="533" y="630"/>
      <point x="526" y="635" type="curve"/>
      <point x="486" y="668"/>
      <point x="427" y="695"/>
      <point x="323" y="695" type="curve" smooth="yes"/>
      <point x="170" y="695"/>
      <point x="84" y="619"/>
      <point x="84" y="514" type="curve" smooth="yes"/>
      <point x="84" y="451"/>
      <point x="111" y="395"/>
      <point x="171" y="364" type="curve"/>
      <point x="97" y="344"/>
      <point x="55" y="268"/>
      <point x="55" y="188" type="curve" smooth="yes"/>
      <point x="55" y="73"/>
      <point x="130" y="-15"/>
      <point x="326" y="-15" type="curve" smooth="yes"/>
    </contour>
    <contour>
      <point x="183" y="31"/>
      <point x="107" y="80"/>
      <point x="107" y="188" type="curve" smooth="yes"/>
      <point x="107" y="291"/>
      <point x="167" y="339"/>
      <point x="271" y="339" type="curve" smooth="yes"/>
      <point x="552" y="339" type="line"/>
      <point x="552" y="274" type="line" smooth="yes"/>
      <point x="552" y="119"/>
      <point x="489" y="31"/>
      <point x="326" y="31" type="curve" smooth="yes"/>
    </contour>
  </outline>
</glyph>
<glyph name="parenleft" format="1">
  <advance width="332"/>
  <unicode hex="0028"/>
  <note>
	parenleft
  </note>
  <outline>
    <contour>
      <point x="284" y="-137"/>
      <point x="297" y="-131"/>
      <point x="297" y="-114" type="curve" smooth="yes"/>
      <point x="297" y="-95"/>
      <point x="289" y="-90"/>
      <point x="274" y="-81" type="curve" smooth="yes"/>
      <point x="163" y="-13"/>
      <point x="107" y="144"/>
      <point x="107" y="316" type="curve" smooth="yes"/>
      <point x="107" y="488"/>
      <point x="163" y="645"/>
      <point x="274" y="713" type="curve" smooth="yes"/>
      <point x="289" y="722"/>
      <point x="297" y="727"/>
      <point x="297" y="746" type="curve" smooth="yes"/>
      <point x="297" y="763"/>
      <point x="284" y="769"/>
      <point x="265" y="760" type="curve" smooth="yes"/>
      <point x="130" y="695"/>
      <point x="55" y="518"/>
      <point x="55" y="316" type="curve" smooth="yes"/>
      <point x="55" y="114"/>
      <point x="130" y="-63"/>
      <point x="265" y="-128" type="curve" smooth="yes"/>
    </contour>
  </outline>
</glyph>
<glyph name="plus" format="1">
  <advance width="474"/>
  <unicode hex="002B"/>
  <note>
	plus
  </note>
  <outline>
    <contour>
      <point x="241" y="127" type="line" smooth="yes"/>
      <point x="257" y="127"/>
      <point x="264" y="135"/>
      <point x="264" y="150" type="curve" smooth="yes"/>
      <point x="264" y="270" type="line"/>
      <point x="396" y="270" type="line" smooth="yes"/>
      <point x="411" y="270"/>
      <point x="419" y="274"/>
      <point x="419" y="290" type="curve" smooth="yes"/>
      <point x="419" y="297" type="line" smooth="yes"/>
      <point x="419" y="313"/>
      <point x="411" y="319"/>
      <point x="396" y="319" type="curve" smooth="yes"/>
      <point x="264" y="319" type="line"/>
      <point x="264" y="439" type="line" smooth="yes"/>
      <point x="264" y="454"/>
      <point x="257" y="462"/>
      <point x="241" y="462" type="curve" smooth="yes"/>
      <point x="233" y="462" type="line" smooth="yes"/>
      <point x="217" y="462"/>
      <point x="210" y="454"/>
      <point x="210" y="439" type="curve" smooth="yes"/>
      <point x="210" y="319" type="line"/>
      <point x="78" y="319" type="line" smooth="yes"/>
      <point x="63" y="319"/>
      <point x="55" y="313"/>
      <point x="55" y="297" type="curve" smooth="yes"/>
      <point x="55" y="290" type="line" smooth="yes"/>
      <point x="55" y="274"/>
      <point x="63" y="270"/>
      <point x="78" y="270" type="curve" smooth="yes"/>
      <point x="210" y="270" type="line"/>
      <point x="210" y="150" type="line" smooth="yes"/>
      <point x="210" y="135"/>
      <point x="217" y="127"/>
      <point x="233" y="127" type="curve" smooth="yes"/>
    </contour>
  </outline>
</glyph>
<glyph name="comma" format="1">
  <advance width="226"/>
  <unicode hex="002C"/>
  <note>
	comma
  </note>
  <outline>
    <contour>
      <point x="77" y="-119" type="line" smooth="yes"/>
      <point x="88" y="-119"/>
      <point x="93" y="-116"/>
      <point x="97" y="-108" type="curve"/>
      <point x="169" y="61" type="line" smooth="yes"/>
      <point x="173" y="71"/>
      <point x="171" y="77"/>
      <point x="159" y="77" type="curve" smooth="yes"/>
      <point x="135" y="77" type="line" smooth="yes"/>
      <point x="121" y="77"/>
      <point x="117" y="74"/>
      <point x="113" y="63" type="curve" smooth="yes"/>
      <point x="57" y="-103" type="line" smooth="yes"/>
      <point x="54" y="-113"/>
      <point x="55" y="-119"/>
      <point x="65" y="-119" type="curve" smooth="yes"/>
    </contour>
  </outline>
</glyph>
<glyph name="slash" format="1">
  <advance width="439"/>
  <unicode hex="002F"/>
  <note>
	slash
  </note>
  <outline>
    <contour>
      <point x="97" y="0" type="line" smooth="yes"/>
      <point x="105" y="0"/>
      <point x="109" y="3"/>
      <point x="112" y="10" type="curve" smooth="yes"/>
      <point x="382" y="667" type="line" smooth="yes"/>
      <point x="385" y="674"/>
      <point x="385" y="680"/>
      <point x="375" y="680" type="curve" smooth="yes"/>
      <point x="342" y="680" type="line" smooth="yes"/>
      <point x="334" y="680"/>
      <point x="330" y="677"/>
      <point x="327" y="670" type="curve" smooth="yes"/>
      <point x="57" y="13" type="line" smooth="yes"/>
      <point x="54" y="6"/>
      <point x="54" y="0"/>
      <point x="64" y="0" type="curve" smooth="yes"/>
    </contour>
  </outline>
</glyph>
<glyph name="three" format="1">
  <advance width="585"/>
  <unicode hex="0033"/>
  <note>
	three
  </note>
  <outline>
    <contour>
      <point x="445" y="-15"/>
      <point x="530" y="72"/>
      <point x="530" y="188" type="curve" smooth="yes"/>
      <point x="530" y="270"/>
      <point x="495" y="327"/>
      <point x="405" y="354" type="curve"/>
      <point x="472" y="382"/>
      <point x="508" y="448"/>
      <point x="508" y="513" type="curve" smooth="yes"/>
      <point x="508" y="622"/>
      <point x="421" y="695"/>
      <point x="279" y="695" type="curve" smooth="yes"/>
      <point x="195" y="695"/>
      <point x="119" y="676"/>
      <point x="79" y="648" type="curve" smooth="yes"/>
      <point x="72" y="643"/>
      <point x="69" y="640"/>
      <point x="74" y="632" type="curve" smooth="yes"/>
      <point x="87" y="610" type="line" smooth="yes"/>
      <point x="91" y="603"/>
      <point x="93" y="602"/>
      <point x="101" y="607" type="curve" smooth="yes"/>
      <point x="139" y="631"/>
      <point x="200" y="649"/>
      <point x="275" y="649" type="curve" smooth="yes"/>
      <point x="388" y="649"/>
      <point x="456" y="606"/>
      <point x="456" y="513" type="curve" smooth="yes"/>
      <point x="456" y="445"/>
      <point x="414" y="378"/>
      <point x="317" y="378" type="curve" smooth="yes"/>
      <point x="223" y="378" type="line" smooth="yes"/>
      <point x="208" y="378"/>
      <point x="200" y="374"/>
      <point x="200" y="358" type="curve" smooth="yes"/>
      <point x="200" y="351" type="line" smooth="yes"/>
      <point x="200" y="335"/>
      <point x="208" y="329"/>
      <point x="223" y="329" type="curve" smooth="yes"/>
      <point x="310" y="329" type="line" smooth="yes"/>
      <point x="420" y="329"/>
      <point x="478" y="285"/>
      <point x="478" y="188" type="curve" smooth="yes"/>
      <point x="478" y="98"/>
      <point x="417" y="31"/>
      <point x="280" y="31" type="curve" smooth="yes"/>
      <point x="197" y="31"/>
      <point x="131" y="46"/>
      <point x="85" y="73" type="curve" smooth="yes"/>
      <point x="77" y="78"/>
      <point x="75" y="77"/>
      <point x="71" y="70" type="curve" smooth="yes"/>
      <point x="58" y="48" type="line" smooth="yes"/>
      <point x="53" y="40"/>
      <point x="56" y="37"/>
      <point x="63" y="32" type="curve"/>
      <point x="110" y="2"/>
      <point x="186" y="-15"/>
      <point x="283" y="-15" type="curve" smooth="yes"/>
    </contour>
  </outline>
</glyph>
<glyph name="six" format="1">
  <advance width="637"/>
  <unicode hex="0036"/>
  <note>
	six
  </note>
  <outline>
    <contour>
      <point x="479" y="-15"/>
      <point x="582" y="70"/>
      <point x="582" y="243" type="curve" smooth="yes"/>
      <point x="582" y="392"/>
      <point x="475" y="475"/>
      <point x="330" y="475" type="curve" smooth="yes"/>
      <point x="230" y="475"/>
      <point x="158" y="446"/>
      <point x="112" y="381" type="curve"/>
      <point x="130" y="553"/>
      <point x="209" y="649"/>
      <point x="335" y="649" type="curve" smooth="yes"/>
      <point x="402" y="649"/>
      <point x="454" y="633"/>
      <point x="492" y="609" type="curve" smooth="yes"/>
      <point x="500" y="604"/>
      <point x="502" y="605"/>
      <point x="506" y="612" type="curve" smooth="yes"/>
      <point x="519" y="634" type="line" smooth="yes"/>
      <point x="524" y="642"/>
      <point x="521" y="645"/>
      <point x="514" y="650" type="curve" smooth="yes"/>
      <point x="474" y="678"/>
      <point x="412" y="695"/>
      <point x="336" y="695" type="curve" smooth="yes"/>
      <point x="207" y="695"/>
      <point x="55" y="615"/>
      <point x="55" y="290" type="curve" smooth="yes"/>
      <point x="55" y="60"/>
      <point x="174" y="-15"/>
      <point x="315" y="-15" type="curve" smooth="yes"/>
    </contour>
    <contour>
      <point x="204" y="31"/>
      <point x="109" y="96"/>
      <point x="109" y="252" type="curve" smooth="yes"/>
      <point x="109" y="370"/>
      <point x="232" y="428"/>
      <point x="321" y="428" type="curve" smooth="yes"/>
      <point x="451" y="428"/>
      <point x="530" y="369"/>
      <point x="530" y="243" type="curve" smooth="yes"/>
      <point x="530" y="95"/>
      <point x="450" y="31"/>
      <point x="315" y="31" type="curve" smooth="yes"/>
    </contour>
  </outline>
</glyph>
<glyph name="seven" format="1">
  <advance width="587"/>
  <unicode hex="0037"/>
  <note>
	seven
  </note>
  <outline>
    <contour>
      <point x="185" y="0" type="line" smooth="yes"/>
      <point x="192" y="0"/>
      <point x="194" y="1"/>
      <point x="197" y="6" type="curve"/>
      <point x="527" y="623" type="line" smooth="yes"/>
      <point x="536" y="639"/>
      <point x="542" y="649"/>
      <point x="542" y="660" type="curve" smooth="yes"/>
      <point x="542" y="673"/>
      <point x="535" y="680"/>
      <point x="520" y="680" type="curve" smooth="yes"/>
      <point x="68" y="680" type="line" smooth="yes"/>
      <point x="53" y="680"/>
      <point x="45" y="676"/>
      <point x="45" y="660" type="curve" smooth="yes"/>
      <point x="45" y="653" type="line" smooth="yes"/>
      <point x="45" y="637"/>
      <point x="53" y="631"/>
      <point x="68" y="631" type="curve" smooth="yes"/>
      <point x="471" y="631" type="line"/>
      <point x="142" y="18" type="line"/>
      <point x="139" y="13"/>
      <point x="138" y="10"/>
      <point x="138" y="6" type="curve" smooth="yes"/>
      <point x="138" y="2"/>
      <point x="140" y="0"/>
      <point x="145" y="0" type="curve" smooth="yes"/>
    </contour>
  </outline>
</glyph>
<glyph name="nine" format="1">
  <advance width="629"/>
  <unicode hex="0039"/>
  <note>
	nine
  </note>
  <outline>
    <contour>
      <point x="422" y="-15"/>
      <point x="574" y="63"/>
      <point x="574" y="390" type="curve" smooth="yes"/>
      <point x="574" y="612"/>
      <point x="469" y="695"/>
      <point x="327" y="695" type="curve" smooth="yes"/>
      <point x="164" y="695"/>
      <point x="55" y="611"/>
      <point x="55" y="435" type="curve" smooth="yes"/>
      <point x="55" y="289"/>
      <point x="161" y="205"/>
      <point x="309" y="205" type="curve" smooth="yes"/>
      <point x="398" y="205"/>
      <point x="468" y="239"/>
      <point x="518" y="300" type="curve"/>
      <point x="507" y="128"/>
      <point x="422" y="31"/>
      <point x="294" y="31" type="curve" smooth="yes"/>
      <point x="227" y="31"/>
      <point x="175" y="47"/>
      <point x="137" y="71" type="curve" smooth="yes"/>
      <point x="129" y="76"/>
      <point x="127" y="75"/>
      <point x="123" y="68" type="curve" smooth="yes"/>
      <point x="110" y="46" type="line" smooth="yes"/>
      <point x="105" y="38"/>
      <point x="108" y="35"/>
      <point x="115" y="30" type="curve" smooth="yes"/>
      <point x="155" y="2"/>
      <point x="217" y="-15"/>
      <point x="293" y="-15" type="curve" smooth="yes"/>
    </contour>
    <contour>
      <point x="185" y="252"/>
      <point x="107" y="313"/>
      <point x="107" y="435" type="curve" smooth="yes"/>
      <point x="107" y="587"/>
      <point x="191" y="649"/>
      <point x="327" y="649" type="curve" smooth="yes"/>
      <point x="445" y="649"/>
      <point x="520" y="578"/>
      <point x="520" y="428" type="curve" smooth="yes"/>
      <point x="520" y="310"/>
      <point x="407" y="252"/>
      <point x="318" y="252" type="curve" smooth="yes"/>
    </contour>
  </outline>
</glyph>
<glyph name="colon" format="1">
  <advance width="186"/>
  <unicode hex="003A"/>
  <note>
	colon
  </note>
  <outline>
    <contour>
      <point x="100" y="409" type="line" smooth="yes"/>
      <point x="118" y="409"/>
      <point x="131" y="424"/>
      <point x="131" y="442" type="curve" smooth="yes"/>
      <point x="131" y="460" type="line" smooth="yes"/>
      <point x="131" y="478"/>
      <point x="119" y="493"/>
      <point x="100" y="493" type="curve" smooth="yes"/>
      <point x="86" y="493" type="line" smooth="yes"/>
      <point x="68" y="493"/>
      <point x="55" y="478"/>
      <point x="55" y="460" type="curve" smooth="yes"/>
      <point x="55" y="442" type="line" smooth="yes"/>
      <point x="55" y="424"/>
      <point x="68" y="409"/>
      <point x="86" y="409" type="curve" smooth="yes"/>
    </contour>
    <contour>
      <point x="100" y="0" type="line" smooth="yes"/>
      <point x="118" y="0"/>
      <point x="131" y="15"/>
      <point x="131" y="33" type="curve" smooth="yes"/>
      <point x="131" y="51" type="line" smooth="yes"/>
      <point x="131" y="69"/>
      <point x="119" y="84"/>
      <point x="100" y="84" type="curve" smooth="yes"/>
      <point x="86" y="84" type="line" smooth="yes"/>
      <point x="68" y="84"/>
      <point x="55" y="69"/>
      <point x="55" y="51" type="curve" smooth="yes"/>
      <point x="55" y="33" type="line" smooth="yes"/>
      <point x="55" y="15"/>
      <point x="68" y="0"/>
      <point x="86" y="0" type="curve" smooth="yes"/>
    </contour>
  </outline>
</glyph>
<glyph name="semicolon" format="1">
  <advance width="231"/>
  <unicode hex="003B"/>
  <note>
	semicolon
  </note>
  <outline>
    <contour>
      <point x="77" y="-119" type="line" smooth="yes"/>
      <point x="88" y="-119"/>
      <point x="93" y="-116"/>
      <point x="97" y="-108" type="curve"/>
      <point x="169" y="61" type="line" smooth="yes"/>
      <point x="173" y="71"/>
      <point x="171" y="77"/>
      <point x="159" y="77" type="curve" smooth="yes"/>
      <point x="135" y="77" type="line" smooth="yes"/>
      <point x="121" y="77"/>
      <point x="117" y="74"/>
      <point x="113" y="63" type="curve" smooth="yes"/>
      <point x="57" y="-103" type="line" smooth="yes"/>
      <point x="54" y="-113"/>
      <point x="55" y="-119"/>
      <point x="65" y="-119" type="curve" smooth="yes"/>
    </contour>
    <contour>
      <point x="145" y="409" type="line" smooth="yes"/>
      <point x="163" y="409"/>
      <point x="176" y="424"/>
      <point x="176" y="442" type="curve" smooth="yes"/>
      <point x="176" y="460" type="line" smooth="yes"/>
      <point x="176" y="478"/>
      <point x="164" y="493"/>
      <point x="145" y="493" type="curve" smooth="yes"/>
      <point x="131" y="493" type="line" smooth="yes"/>
      <point x="113" y="493"/>
      <point x="100" y="478"/>
      <point x="100" y="460" type="curve" smooth="yes"/>
      <point x="100" y="442" type="line" smooth="yes"/>
      <point x="100" y="424"/>
      <point x="113" y="409"/>
      <point x="131" y="409" type="curve" smooth="yes"/>
    </contour>
  </outline>
</glyph>
<glyph name="equal" format="1">
  <advance width="458"/>
  <unicode hex="003D"/>
  <note>
	equal
  </note>
  <outline>
    <contour>
      <point x="380" y="342" type="line" smooth="yes"/>
      <point x="395" y="342"/>
      <point x="403" y="346"/>
      <point x="403" y="362" type="curve" smooth="yes"/>
      <point x="403" y="369" type="line" smooth="yes"/>
      <point x="403" y="385"/>
      <point x="395" y="391"/>
      <point x="380" y="391" type="curve" smooth="yes"/>
      <point x="78" y="391" type="line" smooth="yes"/>
      <point x="63" y="391"/>
      <point x="55" y="385"/>
      <point x="55" y="369" type="curve" smooth="yes"/>
      <point x="55" y="362" type="line" smooth="yes"/>
      <point x="55" y="346"/>
      <point x="63" y="342"/>
      <point x="78" y="342" type="curve" smooth="yes"/>
    </contour>
    <contour>
      <point x="380" y="192" type="line" smooth="yes"/>
      <point x="395" y="192"/>
      <point x="403" y="196"/>
      <point x="403" y="212" type="curve" smooth="yes"/>
      <point x="403" y="219" type="line" smooth="yes"/>
      <point x="403" y="235"/>
      <point x="395" y="241"/>
      <point x="380" y="241" type="curve" smooth="yes"/>
      <point x="78" y="241" type="line" smooth="yes"/>
      <point x="63" y="241"/>
      <point x="55" y="235"/>
      <point x="55" y="219" type="curve" smooth="yes"/>
      <point x="55" y="212" type="line" smooth="yes"/>
      <point x="55" y="196"/>
      <point x="63" y="192"/>
      <point x="78" y="192" type="curve" smooth="yes"/>
    </contour>
  </outline>
</glyph>
<glyph name="greater" format="1">
  <advance width="590"/>
  <unicode hex="003E"/>
  <note>
	greater
  </note>
  <outline>
    <contour>
      <point x="518" y="245" type="line" smooth="yes"/>
      <point x="530" y="251"/>
      <point x="535" y="256"/>
      <point x="535" y="268" type="curve" smooth="yes"/>
      <point x="535" y="280" type="line" smooth="yes"/>
      <point x="535" y="292"/>
      <point x="530" y="297"/>
      <point x="518" y="303" type="curve" smooth="yes"/>
      <point x="73" y="512" type="line" smooth="yes"/>
      <point x="63" y="517"/>
      <point x="55" y="510"/>
      <point x="55" y="500" type="curve" smooth="yes"/>
      <point x="55" y="481" type="line" smooth="yes"/>
      <point x="55" y="465"/>
      <point x="61" y="461"/>
      <point x="72" y="456" type="curve" smooth="yes"/>
      <point x="467" y="274" type="line"/>
      <point x="72" y="92" type="line" smooth="yes"/>
      <point x="61" y="87"/>
      <point x="55" y="83"/>
      <point x="55" y="67" type="curve" smooth="yes"/>
      <point x="55" y="48" type="line" smooth="yes"/>
      <point x="55" y="38"/>
      <point x="63" y="31"/>
      <point x="73" y="36" type="curve" smooth="yes"/>
    </contour>
  </outline>
</glyph>
<glyph name="at" format="1">
  <advance width="914"/>
  <unicode hex="0040"/>
  <note>
	at
  </note>
  <outline>
    <contour>
      <point x="527" y="-89"/>
      <point x="603" y="-72"/>
      <point x="652" y="-40" type="curve" smooth="yes"/>
      <point x="660" y="-35"/>
      <point x="661" y="-31"/>
      <point x="657" y="-24" type="curve" smooth="yes"/>
      <point x="644" y="-2" type="line" smooth="yes"/>
      <point x="640" y="5"/>
      <point x="637" y="6"/>
      <point x="630" y="1" type="curve" smooth="yes"/>
      <point x="592" y="-26"/>
      <point x="522" y="-43"/>
      <point x="453" y="-43" type="curve" smooth="yes"/>
      <point x="265" y="-43"/>
      <point x="107" y="66"/>
      <point x="107" y="302" type="curve" smooth="yes"/>
      <point x="107" y="562"/>
      <point x="258" y="668"/>
      <point x="478" y="668" type="curve" smooth="yes"/>
      <point x="700" y="668"/>
      <point x="807" y="550"/>
      <point x="807" y="350" type="curve" smooth="yes"/>
      <point x="807" y="228"/>
      <point x="764" y="155"/>
      <point x="692" y="155" type="curve" smooth="yes"/>
      <point x="652" y="155"/>
      <point x="636" y="178"/>
      <point x="636" y="226" type="curve" smooth="yes"/>
      <point x="636" y="487" type="line"/>
      <point x="600" y="511"/>
      <point x="538" y="533"/>
      <point x="474" y="533" type="curve" smooth="yes"/>
      <point x="323" y="533"/>
      <point x="237" y="437"/>
      <point x="237" y="295" type="curve" smooth="yes"/>
      <point x="237" y="175"/>
      <point x="313" y="110"/>
      <point x="421" y="110" type="curve" smooth="yes"/>
      <point x="494" y="110"/>
      <point x="554" y="136"/>
      <point x="594" y="186" type="curve"/>
      <point x="605" y="139"/>
      <point x="637" y="109"/>
      <point x="691" y="109" type="curve" smooth="yes"/>
      <point x="790" y="109"/>
      <point x="859" y="197"/>
      <point x="859" y="349" type="curve" smooth="yes"/>
      <point x="859" y="572"/>
      <point x="734" y="714"/>
      <point x="478" y="714" type="curve" smooth="yes"/>
      <point x="220" y="714"/>
      <point x="55" y="581"/>
      <point x="55" y="302" type="curve" smooth="yes"/>
      <point x="55" y="52"/>
      <point x="222" y="-89"/>
      <point x="453" y="-89" type="curve" smooth="yes"/>
    </contour>
    <contour>
      <point x="334" y="158"/>
      <point x="289" y="203"/>
      <point x="289" y="301" type="curve" smooth="yes"/>
      <point x="289" y="417"/>
      <point x="359" y="485"/>
      <point x="472" y="485" type="curve" smooth="yes"/>
      <point x="518" y="485"/>
      <point x="557" y="474"/>
      <point x="583" y="459" type="curve"/>
      <point x="583" y="278" type="line" smooth="yes"/>
      <point x="583" y="203"/>
      <point x="508" y="158"/>
      <point x="438" y="158" type="curve" smooth="yes"/>
    </contour>
  </outline>
</glyph>
<glyph name="H" format="1">
  <advance width="686"/>
  <unicode hex="0048"/>
  <note>
	H
  </note>
  <outline>
    <contour>
      <point x="106" y="0" type="line" smooth="yes"/>
      <point x="122" y="0"/>
      <point x="129" y="8"/>
      <point x="129" y="23" type="curve" smooth="yes"/>
      <point x="129" y="320" type="line"/>
      <point x="557" y="320" type="line"/>
      <point x="557" y="23" type="line" smooth="yes"/>
      <point x="557" y="8"/>
      <point x="564" y="0"/>
      <point x="580" y="0" type="curve" smooth="yes"/>
      <point x="588" y="0" type="line" smooth="yes"/>
      <point x="604" y="0"/>
      <point x="611" y="8"/>
      <point x="611" y="23" type="curve" smooth="yes"/>
      <point x="611" y="657" type="line" smooth="yes"/>
      <point x="611" y="672"/>
      <point x="604" y="680"/>
      <point x="588" y="680" type="curve" smooth="yes"/>
      <point x="580" y="680" type="line" smooth="yes"/>
      <point x="564" y="680"/>
      <point x="557" y="672"/>
      <point x="557" y="657" type="curve" smooth="yes"/>
      <point x="557" y="369" type="line"/>
      <point x="129" y="369" type="line"/>
      <point x="129" y="657" type="line" smooth="yes"/>
      <point x="129" y="672"/>
      <point x="122" y="680"/>
      <point x="106" y="680" type="curve" smooth="yes"/>
      <point x="98" y="680" type="line" smooth="yes"/>
      <point x="82" y="680"/>
      <point x="75" y="672"/>
      <point x="75" y="657" type="curve" smooth="yes"/>
      <point x="75" y="23" type="line" smooth="yes"/>
      <point x="75" y="8"/>
      <point x="82" y="0"/>
      <point x="98" y="0" type="curve" smooth="yes"/>
    </contour>
  </outline>
</glyph>
<glyph name="I" format="1">
  <advance width="204"/>
  <unicode hex="0049"/>
  <note>
	I
  </note>
  <outline>
    <contour>
      <point x="106" y="0" type="line" smooth="yes"/>
      <point x="122" y="0"/>
      <point x="129" y="8"/>
      <point x="129" y="23" type="curve" smooth="yes"/>
      <point x="129" y="657" type="line" smooth="yes"/>
      <point x="129" y="672"/>
      <point x="122" y="680"/>
      <point x="106" y="680" type="curve" smooth="yes"/>
      <point x="98" y="680" type="line" smooth="yes"/>
      <point x="82" y="680"/>
      <point x="75" y="672"/>
      <point x="75" y="657" type="curve" smooth="yes"/>
      <point x="75" y="23" type="line" smooth="yes"/>
      <point x="75" y="8"/>
      <point x="82" y="0"/>
      <point x="98" y="0" type="curve" smooth="yes"/>
    </contour>
  </outline>
</glyph>
<glyph name="K" format="1">
  <advance width="609"/>
  <unicode hex="004B"/>
  <note>
	K
  </note>
  <outline>
    <contour>
      <point x="544" y="0" type="line" smooth="yes"/>
      <point x="550" y="0"/>
      <point x="554" y="2"/>
      <point x="554" y="7" type="curve" smooth="yes"/>
      <point x="554" y="11"/>
      <point x="552" y="13"/>
      <point x="547" y="18" type="curve" smooth="yes"/>
      <point x="238" y="340" type="line"/>
      <point x="542" y="662" type="line" smooth="yes"/>
      <point x="547" y="667"/>
      <point x="549" y="669"/>
      <point x="549" y="673" type="curve" smooth="yes"/>
      <point x="549" y="678"/>
      <point x="545" y="680"/>
      <point x="539" y="680" type="curve" smooth="yes"/>
      <point x="501" y="680" type="line" smooth="yes"/>
      <point x="492" y="680"/>
      <point x="490" y="679"/>
      <point x="485" y="674" type="curve" smooth="yes"/>
      <point x="197" y="369" type="line" smooth="yes"/>
      <point x="188" y="359"/>
      <point x="181" y="354"/>
      <point x="181" y="340" type="curve" smooth="yes"/>
      <point x="181" y="326"/>
      <point x="188" y="321"/>
      <point x="197" y="311" type="curve" smooth="yes"/>
      <point x="490" y="6" type="line" smooth="yes"/>
      <point x="495" y="1"/>
      <point x="497" y="0"/>
      <point x="506" y="0" type="curve" smooth="yes"/>
    </contour>
    <contour>
      <point x="106" y="0" type="line" smooth="yes"/>
      <point x="122" y="0"/>
      <point x="129" y="8"/>
      <point x="129" y="23" type="curve" smooth="yes"/>
      <point x="129" y="657" type="line" smooth="yes"/>
      <point x="129" y="672"/>
      <point x="122" y="680"/>
      <point x="106" y="680" type="curve" smooth="yes"/>
      <point x="98" y="680" type="line" smooth="yes"/>
      <point x="82" y="680"/>
      <point x="75" y="672"/>
      <point x="75" y="657" type="curve" smooth="yes"/>
      <point x="75" y="23" type="line" smooth="yes"/>
      <point x="75" y="8"/>
      <point x="82" y="0"/>
      <point x="98" y="0" type="curve" smooth="yes"/>
    </contour>
  </outline>
</glyph>
<glyph name="Q" format="1">
  <advance width="768"/>
  <unicode hex="0051"/>
  <note>
	Q
  </note>
  <outline>
    <contour>
      <point x="588" y="-181"/>
      <point x="630" y="-170"/>
      <point x="676" y="-144" type="curve"/>
      <point x="682" y="-141"/>
      <point x="686" y="-136"/>
      <point x="681" y="-128" type="curve" smooth="yes"/>
      <point x="667" y="-106" type="line"/>
      <point x="663" y="-99"/>
      <point x="661" y="-98"/>
      <point x="653" y="-103" type="curve" smooth="yes"/>
      <point x="623" y="-123"/>
      <point x="584" y="-135"/>
      <point x="540" y="-135" type="curve" smooth="yes"/>
      <point x="461" y="-135"/>
      <point x="402" y="-99"/>
      <point x="402" y="-15" type="curve"/>
      <point x="598" y="-7"/>
      <point x="713" y="122"/>
      <point x="713" y="340" type="curve" smooth="yes"/>
      <point x="713" y="564"/>
      <point x="591" y="695"/>
      <point x="384" y="695" type="curve" smooth="yes"/>
      <point x="177" y="695"/>
      <point x="55" y="564"/>
      <point x="55" y="340" type="curve" smooth="yes"/>
      <point x="55" y="129"/>
      <point x="163" y="1"/>
      <point x="348" y="-13" type="curve"/>
      <point x="348" y="-113"/>
      <point x="418" y="-181"/>
      <point x="532" y="-181" type="curve" smooth="yes"/>
    </contour>
    <contour>
      <point x="212" y="31"/>
      <point x="107" y="137"/>
      <point x="107" y="340" type="curve" smooth="yes"/>
      <point x="107" y="543"/>
      <point x="212" y="649"/>
      <point x="384" y="649" type="curve" smooth="yes"/>
      <point x="556" y="649"/>
      <point x="661" y="543"/>
      <point x="661" y="340" type="curve" smooth="yes"/>
      <point x="661" y="137"/>
      <point x="556" y="31"/>
      <point x="384" y="31" type="curve" smooth="yes"/>
    </contour>
  </outline>
</glyph>
<glyph name="U" format="1">
  <advance width="716"/>
  <unicode hex="0055"/>
  <note>
	U
  </note>
  <outline>
    <contour>
      <point x="527" y="-15"/>
      <point x="646" y="81"/>
      <point x="646" y="235" type="curve" smooth="yes"/>
      <point x="646" y="657" type="line" smooth="yes"/>
      <point x="646" y="672"/>
      <point x="639" y="680"/>
      <point x="623" y="680" type="curve" smooth="yes"/>
      <point x="615" y="680" type="line" smooth="yes"/>
      <point x="599" y="680"/>
      <point x="592" y="672"/>
      <point x="592" y="657" type="curve" smooth="yes"/>
      <point x="592" y="231" type="line" smooth="yes"/>
      <point x="592" y="98"/>
      <point x="490" y="31"/>
      <point x="358" y="31" type="curve" smooth="yes"/>
      <point x="226" y="31"/>
      <point x="124" y="98"/>
      <point x="124" y="231" type="curve" smooth="yes"/>
      <point x="124" y="657" type="line" smooth="yes"/>
      <point x="124" y="672"/>
      <point x="117" y="680"/>
      <point x="101" y="680" type="curve" smooth="yes"/>
      <point x="93" y="680" type="line" smooth="yes"/>
      <point x="77" y="680"/>
      <point x="70" y="672"/>
      <point x="70" y="657" type="curve" smooth="yes"/>
      <point x="70" y="235" type="line" smooth="yes"/>
      <point x="70" y="81"/>
      <point x="189" y="-15"/>
      <point x="358" y="-15" type="curve" smooth="yes"/>
    </contour>
  </outline>
</glyph>
<glyph name="W" format="1">
  <advance width="886"/>
  <unicode hex="0057"/>
  <note>
	W
  </note>
  <outline>
    <contour>
      <point x="259" y="0" type="line" smooth="yes"/>
      <point x="271" y="0"/>
      <point x="274" y="4"/>
      <point x="279" y="17" type="curve"/>
      <point x="443" y="555" type="line"/>
      <point x="607" y="17" type="line" smooth="yes"/>
      <point x="611" y="4"/>
      <point x="615" y="0"/>
      <point x="627" y="0" type="curve" smooth="yes"/>
      <point x="645" y="0" type="line" smooth="yes"/>
      <point x="657" y="0"/>
      <point x="661" y="4"/>
      <point x="665" y="17" type="curve"/>
      <point x="829" y="662" type="line"/>
      <point x="832" y="672"/>
      <point x="829" y="680"/>
      <point x="817" y="680" type="curve" smooth="yes"/>
      <point x="795" y="680" type="line" smooth="yes"/>
      <point x="779" y="680"/>
      <point x="776" y="675"/>
      <point x="773" y="663" type="curve" smooth="yes"/>
      <point x="633" y="89" type="line"/>
      <point x="474" y="611" type="line" smooth="yes"/>
      <point x="471" y="620"/>
      <point x="469" y="628"/>
      <point x="456" y="628" type="curve" smooth="yes"/>
      <point x="431" y="628" type="line" smooth="yes"/>
      <point x="417" y="628"/>
      <point x="415" y="620"/>
      <point x="412" y="611" type="curve" smooth="yes"/>
      <point x="253" y="89" type="line"/>
      <point x="113" y="663" type="line" smooth="yes"/>
      <point x="110" y="675"/>
      <point x="107" y="680"/>
      <point x="91" y="680" type="curve" smooth="yes"/>
      <point x="69" y="680" type="line" smooth="yes"/>
      <point x="57" y="680"/>
      <point x="54" y="672"/>
      <point x="57" y="662" type="curve"/>
      <point x="221" y="17" type="line"/>
      <point x="225" y="4"/>
      <point x="229" y="0"/>
      <point x="241" y="0" type="curve" smooth="yes"/>
    </contour>
  </outline>
</glyph>
<glyph name="Y" format="1">
  <advance width="680"/>
  <unicode hex="0059"/>
  <note>
	Y
  </note>
  <outline>
    <contour>
      <point x="344" y="0" type="line" smooth="yes"/>
      <point x="360" y="0"/>
      <point x="367" y="8"/>
      <point x="367" y="23" type="curve" smooth="yes"/>
      <point x="367" y="222" type="line"/>
      <point x="623" y="662" type="line" smooth="yes"/>
      <point x="628" y="671"/>
      <point x="621" y="680"/>
      <point x="611" y="680" type="curve" smooth="yes"/>
      <point x="592" y="680" type="line" smooth="yes"/>
      <point x="576" y="680"/>
      <point x="573" y="674"/>
      <point x="567" y="663" type="curve" smooth="yes"/>
      <point x="340" y="273" type="line"/>
      <point x="113" y="663" type="line" smooth="yes"/>
      <point x="107" y="674"/>
      <point x="104" y="680"/>
      <point x="88" y="680" type="curve" smooth="yes"/>
      <point x="69" y="680" type="line" smooth="yes"/>
      <point x="59" y="680"/>
      <point x="52" y="671"/>
      <point x="57" y="662" type="curve" smooth="yes"/>
      <point x="313" y="223" type="line"/>
      <point x="313" y="23" type="line" smooth="yes"/>
      <point x="313" y="8"/>
      <point x="320" y="0"/>
      <point x="336" y="0" type="curve" smooth="yes"/>
    </contour>
  </outline>
</glyph>
<glyph name="bracketleft" format="1">
  <advance width="262"/>
  <unicode hex="005B"/>
  <note>
	bracketleft
  </note>
  <outline>
    <contour>
      <point x="194" y="-70" type="line" smooth="yes"/>
      <point x="209" y="-70"/>
      <point x="217" y="-66"/>
      <point x="217" y="-50" type="curve" smooth="yes"/>
      <point x="217" y="-43" type="line" smooth="yes"/>
      <point x="217" y="-27"/>
      <point x="209" y="-21"/>
      <point x="194" y="-21" type="curve" smooth="yes"/>
      <point x="109" y="-21" type="line"/>
      <point x="109" y="701" type="line"/>
      <point x="194" y="701" type="line" smooth="yes"/>
      <point x="209" y="701"/>
      <point x="217" y="707"/>
      <point x="217" y="723" type="curve" smooth="yes"/>
      <point x="217" y="730" type="line" smooth="yes"/>
      <point x="217" y="746"/>
      <point x="209" y="750"/>
      <point x="194" y="750" type="curve" smooth="yes"/>
      <point x="78" y="750" type="line" smooth="yes"/>
      <point x="62" y="750"/>
      <point x="55" y="742"/>
      <point x="55" y="727" type="curve" smooth="yes"/>
      <point x="55" y="-47" type="line" smooth="yes"/>
      <point x="55" y="-62"/>
      <point x="62" y="-70"/>
      <point x="78" y="-70" type="curve" smooth="yes"/>
    </contour>
  </outline>
</glyph>
<glyph name="backslash" format="1">
  <advance width="445"/>
  <unicode hex="005C"/>
  <note>
	backslash
  </note>
  <outline>
    <contour>
      <point x="381" y="0" type="line" smooth="yes"/>
      <point x="391" y="0"/>
      <point x="391" y="6"/>
      <point x="388" y="13" type="curve" smooth="yes"/>
      <point x="112" y="685" type="line" smooth="yes"/>
      <point x="109" y="692"/>
      <point x="105" y="695"/>
      <point x="97" y="695" type="curve" smooth="yes"/>
      <point x="64" y="695" type="line" smooth="yes"/>
      <point x="54" y="695"/>
      <point x="54" y="689"/>
      <point x="57" y="682" type="curve" smooth="yes"/>
      <point x="333" y="10" type="line" smooth="yes"/>
      <point x="336" y="3"/>
      <point x="340" y="0"/>
      <point x="348" y="0" type="curve" smooth="yes"/>
    </contour>
  </outline>
</glyph>
<glyph name="underscore" format="1">
  <advance width="562"/>
  <unicode hex="005F"/>
  <note>
	underscore
  </note>
  <outline>
    <contour>
      <point x="484" y="-64" type="line" smooth="yes"/>
      <point x="499" y="-64"/>
      <point x="507" y="-60"/>
      <point x="507" y="-44" type="curve" smooth="yes"/>
      <point x="507" y="-37" type="line" smooth="yes"/>
      <point x="507" y="-21"/>
      <point x="499" y="-15"/>
      <point x="484" y="-15" type="curve" smooth="yes"/>
      <point x="78" y="-15" type="line" smooth="yes"/>
      <point x="63" y="-15"/>
      <point x="55" y="-21"/>
      <point x="55" y="-37" type="curve" smooth="yes"/>
      <point x="55" y="-44" type="line" smooth="yes"/>
      <point x="55" y="-60"/>
      <point x="63" y="-64"/>
      <point x="78" y="-64" type="curve" smooth="yes"/>
    </contour>
  </outline>
</glyph>
<glyph name="h" format="1">
  <advance width="588"/>
  <unicode hex="0068"/>
  <note>
	h
  </note>
  <outline>
    <contour>
      <point x="106" y="0" type="line" smooth="yes"/>
      <point x="122" y="0"/>
      <point x="129" y="8"/>
      <point x="129" y="23" type="curve" smooth="yes"/>
      <point x="129" y="304" type="line" smooth="yes"/>
      <point x="129" y="391"/>
      <point x="237" y="449"/>
      <point x="326" y="449" type="curve" smooth="yes"/>
      <point x="413" y="449"/>
      <point x="464" y="418"/>
      <point x="464" y="324" type="curve" smooth="yes"/>
      <point x="464" y="23" type="line" smooth="yes"/>
      <point x="464" y="8"/>
      <point x="471" y="0"/>
      <point x="487" y="0" type="curve" smooth="yes"/>
      <point x="495" y="0" type="line" smooth="yes"/>
      <point x="511" y="0"/>
      <point x="518" y="8"/>
      <point x="518" y="23" type="curve" smooth="yes"/>
      <point x="518" y="327" type="line" smooth="yes"/>
      <point x="518" y="445"/>
      <point x="442" y="495"/>
      <point x="339" y="495" type="curve" smooth="yes"/>
      <point x="245" y="495"/>
      <point x="177" y="461"/>
      <point x="129" y="409" type="curve"/>
      <point x="129" y="657" type="line" smooth="yes"/>
      <point x="129" y="672"/>
      <point x="126" y="680"/>
      <point x="110" y="680" type="curve" smooth="yes"/>
      <point x="94" y="680" type="line" smooth="yes"/>
      <point x="78" y="680"/>
      <point x="75" y="672"/>
      <point x="75" y="657" type="curve" smooth="yes"/>
      <point x="75" y="23" type="line" smooth="yes"/>
      <point x="75" y="8"/>
      <point x="82" y="0"/>
      <point x="98" y="0" type="curve" smooth="yes"/>
    </contour>
  </outline>
</glyph>
<glyph name="i" format="1">
  <advance width="226"/>
  <unicode hex="0069"/>
  <note>
	i
  </note>
  <outline>
    <contour>
      <point x="117" y="0" type="line" smooth="yes"/>
      <point x="133" y="0"/>
      <point x="140" y="8"/>
      <point x="140" y="23" type="curve" smooth="yes"/>
      <point x="140" y="457" type="line" smooth="yes"/>
      <point x="140" y="472"/>
      <point x="133" y="480"/>
      <point x="117" y="480" type="curve" smooth="yes"/>
      <point x="109" y="480" type="line" smooth="yes"/>
      <point x="93" y="480"/>
      <point x="86" y="472"/>
      <point x="86" y="457" type="curve" smooth="yes"/>
      <point x="86" y="23" type="line" smooth="yes"/>
      <point x="86" y="8"/>
      <point x="93" y="0"/>
      <point x="109" y="0" type="curve" smooth="yes"/>
    </contour>
    <contour>
      <point x="120" y="596" type="line" smooth="yes"/>
      <point x="139" y="596"/>
      <point x="151" y="611"/>
      <point x="151" y="629" type="curve" smooth="yes"/>
      <point x="151" y="647" type="line" smooth="yes"/>
      <point x="151" y="665"/>
      <point x="138" y="680"/>
      <point x="120" y="680" type="curve" smooth="yes"/>
      <point x="106" y="680" type="line" smooth="yes"/>
      <point x="88" y="680"/>
      <point x="75" y="665"/>
      <point x="75" y="647" type="curve" smooth="yes"/>
      <point x="75" y="629" type="line" smooth="yes"/>
      <point x="75" y="611"/>
      <point x="88" y="596"/>
      <point x="106" y="596" type="curve" smooth="yes"/>
    </contour>
  </outline>
</glyph>
<glyph name="m" format="1">
  <advance width="801"/>
  <unicode hex="006D"/>
  <note>
	m
  </note>
  <outline>
    <contour>
      <point x="106" y="0" type="line" smooth="yes"/>
      <point x="122" y="0"/>
      <point x="129" y="8"/>
      <point x="129" y="23" type="curve" smooth="yes"/>
      <point x="129" y="302" type="line" smooth="yes"/>
      <point x="129" y="389"/>
      <point x="196" y="449"/>
      <point x="277" y="449" type="curve" smooth="yes"/>
      <point x="342" y="449"/>
      <point x="376" y="416"/>
      <point x="376" y="339" type="curve" smooth="yes"/>
      <point x="376" y="23" type="line" smooth="yes"/>
      <point x="376" y="8"/>
      <point x="383" y="0"/>
      <point x="399" y="0" type="curve" smooth="yes"/>
      <point x="407" y="0" type="line" smooth="yes"/>
      <point x="423" y="0"/>
      <point x="430" y="8"/>
      <point x="430" y="23" type="curve" smooth="yes"/>
      <point x="430" y="308" type="line" smooth="yes"/>
      <point x="430" y="392"/>
      <point x="493" y="449"/>
      <point x="572" y="449" type="curve" smooth="yes"/>
      <point x="638" y="449"/>
      <point x="677" y="420"/>
      <point x="677" y="331" type="curve" smooth="yes"/>
      <point x="677" y="23" type="line" smooth="yes"/>
      <point x="677" y="8"/>
      <point x="684" y="0"/>
      <point x="700" y="0" type="curve" smooth="yes"/>
      <point x="708" y="0" type="line" smooth="yes"/>
      <point x="724" y="0"/>
      <point x="731" y="8"/>
      <point x="731" y="23" type="curve" smooth="yes"/>
      <point x="731" y="333" type="line" smooth="yes"/>
      <point x="731" y="446"/>
      <point x="669" y="495"/>
      <point x="585" y="495" type="curve" smooth="yes"/>
      <point x="508" y="495"/>
      <point x="449" y="460"/>
      <point x="415" y="402" type="curve"/>
      <point x="401" y="464"/>
      <point x="348" y="495"/>
      <point x="290" y="495" type="curve" smooth="yes"/>
      <point x="209" y="495"/>
      <point x="159" y="458"/>
      <point x="123" y="404" type="curve"/>
      <point x="123" y="457" type="line" smooth="yes"/>
      <point x="123" y="472"/>
      <point x="120" y="480"/>
      <point x="104" y="480" type="curve" smooth="yes"/>
      <point x="94" y="480" type="line" smooth="yes"/>
      <point x="78" y="480"/>
      <point x="75" y="472"/>
      <point x="75" y="457" type="curve" smooth="yes"/>
      <point x="75" y="23" type="line" smooth="yes"/>
      <point x="75" y="8"/>
      <point x="82" y="0"/>
      <point x="98" y="0" type="curve" smooth="yes"/>
    </contour>
  </outline>
</glyph>
<glyph name="x" format="1">
  <advance width="577"/>
  <unicode hex="0078"/>
  <note>
	x
  </note>
  <outline>
    <contour>
      <point x="93" y="0" type="line" smooth="yes"/>
      <point x="107" y="0"/>
      <point x="109" y="3"/>
      <point x="115" y="10" type="curve" smooth="yes"/>
      <point x="288" y="209" type="line"/>
      <point x="462" y="10" type="line" smooth="yes"/>
      <point x="468" y="3"/>
      <point x="470" y="0"/>
      <point x="484" y="0" type="curve" smooth="yes"/>
      <point x="513" y="0" type="line" smooth="yes"/>
      <point x="518" y="0"/>
      <point x="522" y="3"/>
      <point x="522" y="8" type="curve" smooth="yes"/>
      <point x="522" y="12"/>
      <point x="521" y="14"/>
      <point x="518" y="18" type="curve"/>
      <point x="320" y="245" type="line"/>
      <point x="509" y="462" type="line"/>
      <point x="512" y="466"/>
      <point x="513" y="468"/>
      <point x="513" y="472" type="curve" smooth="yes"/>
      <point x="513" y="477"/>
      <point x="509" y="480"/>
      <point x="504" y="480" type="curve" smooth="yes"/>
      <point x="475" y="480" type="line" smooth="yes"/>
      <point x="461" y="480"/>
      <point x="459" y="477"/>
      <point x="453" y="470" type="curve" smooth="yes"/>
      <point x="288" y="281" type="line"/>
      <point x="124" y="470" type="line" smooth="yes"/>
      <point x="118" y="477"/>
      <point x="116" y="480"/>
      <point x="102" y="480" type="curve" smooth="yes"/>
      <point x="73" y="480" type="line" smooth="yes"/>
      <point x="68" y="480"/>
      <point x="64" y="477"/>
      <point x="64" y="472" type="curve" smooth="yes"/>
      <point x="64" y="468"/>
      <point x="65" y="466"/>
      <point x="68" y="462" type="curve"/>
      <point x="257" y="245" type="line"/>
      <point x="59" y="18" type="line"/>
      <point x="56" y="14"/>
      <point x="55" y="12"/>
      <point x="55" y="8" type="curve" smooth="yes"/>
      <point x="55" y="3"/>
      <point x="59" y="0"/>
      <point x="64" y="0" type="curve" smooth="yes"/>
    </contour>
  </outline>
</glyph>
<glyph name="z" format="1">
  <advance width="559"/>
  <unicode hex="007A"/>
  <note>
	z
  </note>
  <outline>
    <contour>
      <point x="481" y="0" type="line" smooth="yes"/>
      <point x="496" y="0"/>
      <point x="504" y="4"/>
      <point x="504" y="20" type="curve" smooth="yes"/>
      <point x="504" y="27" type="line" smooth="yes"/>
      <point x="504" y="43"/>
      <point x="496" y="49"/>
      <point x="481" y="49" type="curve" smooth="yes"/>
      <point x="134" y="49" type="line"/>
      <point x="483" y="423" type="line" smooth="yes"/>
      <point x="496" y="437"/>
      <point x="500" y="446"/>
      <point x="500" y="457" type="curve" smooth="yes"/>
      <point x="500" y="470"/>
      <point x="493" y="480"/>
      <point x="478" y="480" type="curve" smooth="yes"/>
      <point x="96" y="480" type="line" smooth="yes"/>
      <point x="81" y="480"/>
      <point x="73" y="476"/>
      <point x="73" y="460" type="curve" smooth="yes"/>
      <point x="73" y="453" type="line" smooth="yes"/>
      <point x="73" y="437"/>
      <point x="81" y="431"/>
      <point x="96" y="431" type="curve" smooth="yes"/>
      <point x="422" y="431" type="line"/>
      <point x="72" y="57" type="line" smooth="yes"/>
      <point x="59" y="43"/>
      <point x="55" y="34"/>
      <point x="55" y="23" type="curve" smooth="yes"/>
      <point x="55" y="10"/>
      <point x="62" y="0"/>
      <point x="77" y="0" type="curve" smooth="yes"/>
    </contour>
  </outline>
</glyph>
<glyph name="braceleft" format="1">
  <advance width="360"/>
  <unicode hex="007B"/>
  <note>
	braceleft
  </note>
  <outline>
    <contour>
      <point x="292" y="-70" type="line" smooth="yes"/>
      <point x="307" y="-70"/>
      <point x="315" y="-66"/>
      <point x="315" y="-50" type="curve" smooth="yes"/>
      <point x="315" y="-43" type="line" smooth="yes"/>
      <point x="315" y="-27"/>
      <point x="307" y="-21"/>
      <point x="292" y="-21" type="curve" smooth="yes"/>
      <point x="207" y="-21" type="line"/>
      <point x="207" y="701" type="line"/>
      <point x="292" y="701" type="line" smooth="yes"/>
      <point x="307" y="701"/>
      <point x="315" y="707"/>
      <point x="315" y="723" type="curve" smooth="yes"/>
      <point x="315" y="730" type="line" smooth="yes"/>
      <point x="315" y="746"/>
      <point x="307" y="750"/>
      <point x="292" y="750" type="curve" smooth="yes"/>
      <point x="176" y="750" type="line" smooth="yes"/>
      <point x="160" y="750"/>
      <point x="153" y="742"/>
      <point x="153" y="727" type="curve" smooth="yes"/>
      <point x="153" y="365" type="line"/>
      <point x="58" y="365" type="line" smooth="yes"/>
      <point x="43" y="365"/>
      <point x="35" y="359"/>
      <point x="35" y="343" type="curve" smooth="yes"/>
      <point x="35" y="336" type="line" smooth="yes"/>
      <point x="35" y="320"/>
      <point x="43" y="316"/>
      <point x="58" y="316" type="curve" smooth="yes"/>
      <point x="153" y="316" type="line"/>
      <point x="153" y="-47" type="line" smooth="yes"/>
      <point x="153" y="-62"/>
      <point x="160" y="-70"/>
      <point x="176" y="-70" type="curve" smooth="yes"/>
    </contour>
  </outline>
</glyph>
<glyph name="bar" format="1">
  <advance width="164"/>
  <unicode hex="007C"/>
  <note>
	bar
  </note>
  <outline>
    <contour>
      <point x="86" y="-90" type="line" smooth="yes"/>
      <point x="102" y="-90"/>
      <point x="109" y="-82"/>
      <point x="109" y="-67" type="curve" smooth="yes"/>
      <point x="109" y="747" type="line" smooth="yes"/>
      <point x="109" y="762"/>
      <point x="102" y="770"/>
      <point x="86" y="770" type="curve" smooth="yes"/>
      <point x="78" y="770" type="line" smooth="yes"/>
      <point x="62" y="770"/>
      <point x="55" y="762"/>
      <point x="55" y="747" type="curve" smooth="yes"/>
      <point x="55" y="-67" type="line" smooth="yes"/>
      <point x="55" y="-82"/>
      <point x="62" y="-90"/>
      <point x="78" y="-90" type="curve" smooth="yes"/>
    </contour>
  </outline>
</glyph>
<glyph name="asciitilde" format="1">
  <advance width="569"/>
  <unicode hex="007E"/>
  <note>
	asciitilde
  </note>
  <outline>
    <contour>
      <point x="443" y="245"/>
      <point x="475" y="269"/>
      <point x="502" y="303" type="curve" smooth="yes"/>
      <point x="516" y="320"/>
      <point x="516" y="329"/>
      <point x="507" y="337" type="curve" smooth="yes"/>
      <point x="491" y="352"/>
      <point x="476" y="346"/>
      <point x="459" y="327" type="curve" smooth="yes"/>
      <point x="441" y="307"/>
      <point x="422" y="291"/>
      <point x="388" y="291" type="curve" smooth="yes"/>
      <point x="322" y="291"/>
      <point x="265" y="370"/>
      <point x="179" y="370" type="curve" smooth="yes"/>
      <point x="126" y="370"/>
      <point x="94" y="346"/>
      <point x="67" y="312" type="curve" smooth="yes"/>
      <point x="53" y="295"/>
      <point x="53" y="286"/>
      <point x="62" y="278" type="curve" smooth="yes"/>
      <point x="78" y="263"/>
      <point x="93" y="269"/>
      <point x="110" y="288" type="curve" smooth="yes"/>
      <point x="128" y="308"/>
      <point x="147" y="324"/>
      <point x="181" y="324" type="curve" smooth="yes"/>
      <point x="247" y="324"/>
      <point x="306" y="245"/>
      <point x="390" y="245" type="curve" smooth="yes"/>
    </contour>
  </outline>
</glyph>
<glyph name="exclamdown" format="1">
  <advance width="186"/>
  <unicode hex="00A1"/>
  <note>
	exclamdown
  </note>
  <outline>
    <contour>
      <point x="97" y="0" type="line" smooth="yes"/>
      <point x="113" y="0"/>
      <point x="120" y="8"/>
      <point x="120" y="23" type="curve"/>
      <point x="114" y="458" type="line"/>
      <point x="114" y="473"/>
      <point x="109" y="480"/>
      <point x="93" y="480" type="curve" smooth="yes"/>
      <point x="77" y="480"/>
      <point x="72" y="473"/>
      <point x="72" y="458" type="curve" smooth="yes"/>
      <point x="66" y="23" type="line" smooth="yes"/>
      <point x="66" y="8"/>
      <point x="73" y="0"/>
      <point x="89" y="0" type="curve" smooth="yes"/>
    </contour>
    <contour>
      <point x="100" y="596" type="line" smooth="yes"/>
      <point x="119" y="596"/>
      <point x="131" y="611"/>
      <point x="131" y="629" type="curve" smooth="yes"/>
      <point x="131" y="647" type="line" smooth="yes"/>
      <point x="131" y="665"/>
      <point x="118" y="680"/>
      <point x="100" y="680" type="curve" smooth="yes"/>
      <point x="86" y="680" type="line" smooth="yes"/>
      <point x="68" y="680"/>
      <point x="55" y="665"/>
      <point x="55" y="647" type="curve" smooth="yes"/>
      <point x="55" y="629" type="line" smooth="yes"/>
      <point x="55" y="611"/>
      <point x="68" y="596"/>
      <point x="86" y="596" type="curve" smooth="yes"/>
    </contour>
  </outline>
</glyph>
<glyph name="cent" format="1">
  <advance width="569"/>
  <unicode hex="00A2"/>
  <note>
	cent
  </note>
  <outline>
    <contour>
      <point x="331" y="-103" type="line" smooth="yes"/>
      <point x="347" y="-103"/>
      <point x="354" y="-95"/>
      <point x="354" y="-80" type="curve" smooth="yes"/>
      <point x="354" y="-14" type="line"/>
      <point x="414" y="-10"/>
      <point x="463" y="6"/>
      <point x="506" y="34" type="curve" smooth="yes"/>
      <point x="514" y="39"/>
      <point x="515" y="43"/>
      <point x="511" y="50" type="curve" smooth="yes"/>
      <point x="498" y="72" type="line" smooth="yes"/>
      <point x="494" y="79"/>
      <point x="491" y="80"/>
      <point x="484" y="75" type="curve" smooth="yes"/>
      <point x="446" y="48"/>
      <point x="397" y="31"/>
      <point x="328" y="31" type="curve" smooth="yes"/>
      <point x="190" y="31"/>
      <point x="107" y="96"/>
      <point x="107" y="237" type="curve" smooth="yes"/>
      <point x="107" y="367"/>
      <point x="187" y="449"/>
      <point x="317" y="449" type="curve" smooth="yes"/>
      <point x="393" y="449"/>
      <point x="439" y="433"/>
      <point x="477" y="406" type="curve"/>
      <point x="485" y="401"/>
      <point x="487" y="402"/>
      <point x="491" y="409" type="curve" smooth="yes"/>
      <point x="504" y="431" type="line" smooth="yes"/>
      <point x="509" y="439"/>
      <point x="506" y="442"/>
      <point x="499" y="447" type="curve" smooth="yes"/>
      <point x="457" y="476"/>
      <point x="411" y="490"/>
      <point x="354" y="494" type="curve"/>
      <point x="354" y="560" type="line" smooth="yes"/>
      <point x="354" y="575"/>
      <point x="347" y="583"/>
      <point x="331" y="583" type="curve" smooth="yes"/>
      <point x="323" y="583" type="line" smooth="yes"/>
      <point x="307" y="583"/>
      <point x="300" y="575"/>
      <point x="300" y="560" type="curve" smooth="yes"/>
      <point x="300" y="495" type="line"/>
      <point x="153" y="489"/>
      <point x="55" y="384"/>
      <point x="55" y="237" type="curve" smooth="yes"/>
      <point x="55" y="81"/>
      <point x="148" y="-6"/>
      <point x="300" y="-14" type="curve"/>
      <point x="300" y="-80" type="line" smooth="yes"/>
      <point x="300" y="-95"/>
      <point x="307" y="-103"/>
      <point x="323" y="-103" type="curve" smooth="yes"/>
    </contour>
  </outline>
</glyph>
<glyph name="sterling" format="1">
  <advance width="571"/>
  <unicode hex="00A3"/>
  <note>
	sterling
  </note>
  <outline>
    <contour>
      <point x="493" y="0" type="line" smooth="yes"/>
      <point x="508" y="0"/>
      <point x="516" y="6"/>
      <point x="516" y="22" type="curve" smooth="yes"/>
      <point x="516" y="29" type="line" smooth="yes"/>
      <point x="516" y="45"/>
      <point x="508" y="49"/>
      <point x="493" y="49" type="curve" smooth="yes"/>
      <point x="162" y="49" type="line"/>
      <point x="193" y="79"/>
      <point x="201" y="116"/>
      <point x="201" y="172" type="curve" smooth="yes"/>
      <point x="201" y="351" type="line"/>
      <point x="393" y="351" type="line" smooth="yes"/>
      <point x="408" y="351"/>
      <point x="416" y="357"/>
      <point x="416" y="373" type="curve" smooth="yes"/>
      <point x="416" y="380" type="line" smooth="yes"/>
      <point x="416" y="396"/>
      <point x="408" y="400"/>
      <point x="393" y="400" type="curve" smooth="yes"/>
      <point x="201" y="400" type="line"/>
      <point x="201" y="522" type="line" smooth="yes"/>
      <point x="201" y="601"/>
      <point x="260" y="649"/>
      <point x="334" y="649" type="curve" smooth="yes"/>
      <point x="374" y="649"/>
      <point x="419" y="639"/>
      <point x="448" y="620" type="curve" smooth="yes"/>
      <point x="456" y="615"/>
      <point x="458" y="616"/>
      <point x="462" y="623" type="curve"/>
      <point x="476" y="645" type="line" smooth="yes"/>
      <point x="481" y="653"/>
      <point x="476" y="657"/>
      <point x="471" y="661" type="curve"/>
      <point x="437" y="684"/>
      <point x="375" y="695"/>
      <point x="332" y="695" type="curve" smooth="yes"/>
      <point x="228" y="695"/>
      <point x="147" y="621"/>
      <point x="147" y="525" type="curve" smooth="yes"/>
      <point x="147" y="400" type="line"/>
      <point x="88" y="400" type="line" smooth="yes"/>
      <point x="73" y="400"/>
      <point x="65" y="396"/>
      <point x="65" y="380" type="curve" smooth="yes"/>
      <point x="65" y="373" type="line" smooth="yes"/>
      <point x="65" y="357"/>
      <point x="73" y="351"/>
      <point x="88" y="351" type="curve" smooth="yes"/>
      <point x="147" y="351" type="line"/>
      <point x="147" y="162" type="line" smooth="yes"/>
      <point x="147" y="93"/>
      <point x="117" y="49"/>
      <point x="78" y="49" type="curve" smooth="yes"/>
      <point x="63" y="49"/>
      <point x="55" y="45"/>
      <point x="55" y="29" type="curve" smooth="yes"/>
      <point x="55" y="22" type="line" smooth="yes"/>
      <point x="55" y="6"/>
      <point x="63" y="0"/>
      <point x="78" y="0" type="curve" smooth="yes"/>
    </contour>
  </outline>
</glyph>
<glyph name="currency" format="1">
  <advance width="516"/>
  <unicode hex="00A4"/>
  <note>
	currency
  </note>
  <outline>
    <contour>
      <point x="79" y="100"/>
      <point x="88" y="102"/>
      <point x="99" y="112" type="curve"/>
      <point x="143" y="155" type="line"/>
      <point x="175" y="130"/>
      <point x="215" y="115"/>
      <point x="259" y="115" type="curve" smooth="yes"/>
      <point x="302" y="115"/>
      <point x="342" y="129"/>
      <point x="374" y="154" type="curve"/>
      <point x="417" y="112" type="line"/>
      <point x="428" y="102"/>
      <point x="437" y="100"/>
      <point x="449" y="111" type="curve"/>
      <point x="454" y="116" type="line" smooth="yes"/>
      <point x="465" y="127"/>
      <point x="462" y="136"/>
      <point x="451" y="147" type="curve" smooth="yes"/>
      <point x="409" y="188" type="line"/>
      <point x="434" y="220"/>
      <point x="450" y="261"/>
      <point x="450" y="306" type="curve" smooth="yes"/>
      <point x="450" y="350"/>
      <point x="435" y="391"/>
      <point x="409" y="423" type="curve"/>
      <point x="451" y="464" type="line" smooth="yes"/>
      <point x="462" y="475"/>
      <point x="465" y="484"/>
      <point x="454" y="495" type="curve" smooth="yes"/>
      <point x="449" y="500" type="line"/>
      <point x="437" y="511"/>
      <point x="427" y="510"/>
      <point x="417" y="499" type="curve"/>
      <point x="374" y="457" type="line"/>
      <point x="342" y="482"/>
      <point x="302" y="497"/>
      <point x="259" y="497" type="curve" smooth="yes"/>
      <point x="215" y="497"/>
      <point x="175" y="482"/>
      <point x="143" y="457" type="curve"/>
      <point x="99" y="500" type="line"/>
      <point x="88" y="510"/>
      <point x="79" y="512"/>
      <point x="67" y="501" type="curve"/>
      <point x="62" y="496" type="line" smooth="yes"/>
      <point x="51" y="485"/>
      <point x="54" y="476"/>
      <point x="65" y="465" type="curve" smooth="yes"/>
      <point x="108" y="423" type="line"/>
      <point x="83" y="390"/>
      <point x="68" y="350"/>
      <point x="68" y="306" type="curve" smooth="yes"/>
      <point x="68" y="262"/>
      <point x="83" y="221"/>
      <point x="108" y="189" type="curve"/>
      <point x="65" y="147" type="line" smooth="yes"/>
      <point x="54" y="136"/>
      <point x="51" y="127"/>
      <point x="62" y="116" type="curve" smooth="yes"/>
      <point x="67" y="111" type="line"/>
    </contour>
    <contour>
      <point x="179" y="161"/>
      <point x="114" y="226"/>
      <point x="114" y="306" type="curve" smooth="yes"/>
      <point x="114" y="386"/>
      <point x="179" y="451"/>
      <point x="259" y="451" type="curve" smooth="yes"/>
      <point x="339" y="451"/>
      <point x="404" y="386"/>
      <point x="404" y="306" type="curve" smooth="yes"/>
      <point x="404" y="226"/>
      <point x="339" y="161"/>
      <point x="259" y="161" type="curve" smooth="yes"/>
    </contour>
  </outline>
</glyph>
<glyph name="brokenbar" format="1">
  <advance width="164"/>
  <unicode hex="00A6"/>
  <note>
	brokenbar
  </note>
  <outline>
    <contour>
      <point x="86" y="350" type="line" smooth="yes"/>
      <point x="102" y="350"/>
      <point x="109" y="358"/>
      <point x="109" y="373" type="curve" smooth="yes"/>
      <point x="109" y="707" type="line" smooth="yes"/>
      <point x="109" y="722"/>
      <point x="102" y="730"/>
      <point x="86" y="730" type="curve" smooth="yes"/>
      <point x="78" y="730" type="line" smooth="yes"/>
      <point x="62" y="730"/>
      <point x="55" y="722"/>
      <point x="55" y="707" type="curve" smooth="yes"/>
      <point x="55" y="373" type="line" smooth="yes"/>
      <point x="55" y="358"/>
      <point x="62" y="350"/>
      <point x="78" y="350" type="curve" smooth="yes"/>
    </contour>
    <contour>
      <point x="86" y="-219" type="line" smooth="yes"/>
      <point x="102" y="-219"/>
      <point x="109" y="-211"/>
      <point x="109" y="-196" type="curve" smooth="yes"/>
      <point x="109" y="138" type="line" smooth="yes"/>
      <point x="109" y="153"/>
      <point x="102" y="161"/>
      <point x="86" y="161" type="curve" smooth="yes"/>
      <point x="78" y="161" type="line" smooth="yes"/>
      <point x="62" y="161"/>
      <point x="55" y="153"/>
      <point x="55" y="138" type="curve" smooth="yes"/>
      <point x="55" y="-196" type="line" smooth="yes"/>
      <point x="55" y="-211"/>
      <point x="62" y="-219"/>
      <point x="78" y="-219" type="curve" smooth="yes"/>
    </contour>
  </outline>
</glyph>
<glyph name="section" format="1">
  <advance width="572"/>
  <unicode hex="00A7"/>
  <note>
	section
  </note>
  <outline>
    <contour>
      <point x="437" y="-156"/>
      <point x="517" y="-92"/>
      <point x="517" y="19" type="curve" smooth="yes"/>
      <point x="517" y="50"/>
      <point x="512" y="75"/>
      <point x="503" y="96" type="curve"/>
      <point x="511" y="115"/>
      <point x="517" y="137"/>
      <point x="517" y="160" type="curve" smooth="yes"/>
      <point x="517" y="284"/>
      <point x="440" y="318"/>
      <point x="321" y="358" type="curve" smooth="yes"/>
      <point x="189" y="403"/>
      <point x="125" y="420"/>
      <point x="125" y="518" type="curve" smooth="yes"/>
      <point x="125" y="615"/>
      <point x="193" y="649"/>
      <point x="288" y="649" type="curve" smooth="yes"/>
      <point x="379" y="649"/>
      <point x="431" y="631"/>
      <point x="469" y="607" type="curve" smooth="yes"/>
      <point x="477" y="602"/>
      <point x="479" y="603"/>
      <point x="483" y="610" type="curve" smooth="yes"/>
      <point x="496" y="632" type="line" smooth="yes"/>
      <point x="501" y="640"/>
      <point x="498" y="643"/>
      <point x="491" y="648" type="curve" smooth="yes"/>
      <point x="451" y="676"/>
      <point x="374" y="695"/>
      <point x="288" y="695" type="curve" smooth="yes"/>
      <point x="164" y="695"/>
      <point x="73" y="639"/>
      <point x="73" y="518" type="curve" smooth="yes"/>
      <point x="73" y="489"/>
      <point x="81" y="460"/>
      <point x="92" y="440" type="curve"/>
      <point x="80" y="422"/>
      <point x="73" y="392"/>
      <point x="73" y="370" type="curve" smooth="yes"/>
      <point x="73" y="256"/>
      <point x="162" y="219"/>
      <point x="274" y="183" type="curve" smooth="yes"/>
      <point x="404" y="141"/>
      <point x="465" y="116"/>
      <point x="465" y="20" type="curve" smooth="yes"/>
      <point x="465" y="-75"/>
      <point x="397" y="-110"/>
      <point x="283" y="-110" type="curve" smooth="yes"/>
      <point x="211" y="-110"/>
      <point x="128" y="-93"/>
      <point x="85" y="-67" type="curve" smooth="yes"/>
      <point x="77" y="-62"/>
      <point x="75" y="-63"/>
      <point x="71" y="-70" type="curve" smooth="yes"/>
      <point x="58" y="-92" type="line" smooth="yes"/>
      <point x="53" y="-100"/>
      <point x="56" y="-103"/>
      <point x="63" y="-108" type="curve"/>
      <point x="116" y="-142"/>
      <point x="219" y="-156"/>
      <point x="283" y="-156" type="curve" smooth="yes"/>
    </contour>
    <contour>
      <point x="429" y="177"/>
      <point x="380" y="197"/>
      <point x="321" y="217" type="curve" smooth="yes"/>
      <point x="188" y="263"/>
      <point x="123" y="278"/>
      <point x="123" y="371" type="curve" smooth="yes"/>
      <point x="123" y="376"/>
      <point x="124" y="388"/>
      <point x="126" y="394" type="curve"/>
      <point x="165" y="360"/>
      <point x="221" y="341"/>
      <point x="274" y="324" type="curve" smooth="yes"/>
      <point x="408" y="282"/>
      <point x="467" y="261"/>
      <point x="467" y="166" type="curve" smooth="yes"/>
      <point x="467" y="159"/>
      <point x="466" y="152"/>
      <point x="464" y="148" type="curve"/>
    </contour>
  </outline>
</glyph>
<glyph name="dieresis" format="1">
  <advance width="380"/>
  <unicode hex="00A8"/>
  <note>
	dieresis
  </note>
  <outline>
    <contour>
      <point x="292" y="572" type="line" smooth="yes"/>
      <point x="312" y="572"/>
      <point x="325" y="588"/>
      <point x="325" y="607" type="curve" smooth="yes"/>
      <point x="325" y="620" type="line" smooth="yes"/>
      <point x="325" y="639"/>
      <point x="311" y="655"/>
      <point x="292" y="655" type="curve" smooth="yes"/>
      <point x="278" y="655" type="line" smooth="yes"/>
      <point x="259" y="655"/>
      <point x="245" y="639"/>
      <point x="245" y="620" type="curve" smooth="yes"/>
      <point x="245" y="607" type="line" smooth="yes"/>
      <point x="245" y="588"/>
      <point x="259" y="572"/>
      <point x="278" y="572" type="curve" smooth="yes"/>
    </contour>
    <contour>
      <point x="102" y="572" type="line" smooth="yes"/>
      <point x="122" y="572"/>
      <point x="135" y="588"/>
      <point x="135" y="607" type="curve" smooth="yes"/>
      <point x="135" y="620" type="line" smooth="yes"/>
      <point x="135" y="639"/>
      <point x="121" y="655"/>
      <point x="102" y="655" type="curve" smooth="yes"/>
      <point x="88" y="655" type="line" smooth="yes"/>
      <point x="69" y="655"/>
      <point x="55" y="639"/>
      <point x="55" y="620" type="curve" smooth="yes"/>
      <point x="55" y="607" type="line" smooth="yes"/>
      <point x="55" y="588"/>
      <point x="69" y="572"/>
      <point x="88" y="572" type="curve" smooth="yes"/>
    </contour>
  </outline>
</glyph>
<glyph name="softhyphen" format="1">
  <advance width="474"/>
  <unicode hex="00AD"/>
  <note>
	softhyphen
  </note>
  <outline>
    <contour>
      <point x="396" y="270" type="line" smooth="yes"/>
      <point x="411" y="270"/>
      <point x="419" y="274"/>
      <point x="419" y="290" type="curve" smooth="yes"/>
      <point x="419" y="297" type="line" smooth="yes"/>
      <point x="419" y="313"/>
      <point x="411" y="319"/>
      <point x="396" y="319" type="curve" smooth="yes"/>
      <point x="78" y="319" type="line" smooth="yes"/>
      <point x="63" y="319"/>
      <point x="55" y="313"/>
      <point x="55" y="297" type="curve" smooth="yes"/>
      <point x="55" y="290" type="line" smooth="yes"/>
      <point x="55" y="274"/>
      <point x="63" y="270"/>
      <point x="78" y="270" type="curve" smooth="yes"/>
    </contour>
  </outline>
</glyph>
<glyph name="twosuperior" format="1">
  <advance width="392"/>
  <unicode hex="00B2"/>
  <note>
	twosuperior
  </note>
  <outline>
    <contour>
      <point x="324" y="286" type="line" smooth="yes"/>
      <point x="332" y="286"/>
      <point x="337" y="288"/>
      <point x="337" y="298" type="curve" smooth="yes"/>
      <point x="337" y="321" type="line" smooth="yes"/>
      <point x="337" y="332"/>
      <point x="332" y="335"/>
      <point x="324" y="335" type="curve" smooth="yes"/>
      <point x="107" y="335" type="line"/>
      <point x="107" y="373"/>
      <point x="146" y="396"/>
      <point x="217" y="436" type="curve" smooth="yes"/>
      <point x="300" y="483"/>
      <point x="334" y="517"/>
      <point x="334" y="582" type="curve" smooth="yes"/>
      <point x="334" y="646"/>
      <point x="282" y="695"/>
      <point x="192" y="695" type="curve" smooth="yes"/>
      <point x="150" y="695"/>
      <point x="96" y="680"/>
      <point x="72" y="663" type="curve" smooth="yes"/>
      <point x="68" y="660"/>
      <point x="67" y="659"/>
      <point x="69" y="654" type="curve"/>
      <point x="83" y="624" type="line"/>
      <point x="84" y="621"/>
      <point x="87" y="621"/>
      <point x="91" y="623" type="curve"/>
      <point x="121" y="640"/>
      <point x="155" y="649"/>
      <point x="192" y="649" type="curve" smooth="yes"/>
      <point x="250" y="649"/>
      <point x="282" y="621"/>
      <point x="282" y="582" type="curve" smooth="yes"/>
      <point x="282" y="537"/>
      <point x="272" y="513"/>
      <point x="184" y="468" type="curve" smooth="yes"/>
      <point x="107" y="428"/>
      <point x="55" y="388"/>
      <point x="55" y="335" type="curve" smooth="yes"/>
      <point x="55" y="299" type="line" smooth="yes"/>
      <point x="55" y="290"/>
      <point x="59" y="286"/>
      <point x="68" y="286" type="curve" smooth="yes"/>
    </contour>
  </outline>
</glyph>
<glyph name="acute" format="1">
  <advance width="225"/>
  <unicode hex="00B4"/>
  <note>
	acute
  </note>
  <outline>
    <contour>
      <point x="80" y="575" type="line" smooth="yes"/>
      <point x="91" y="575"/>
      <point x="96" y="578"/>
      <point x="100" y="586" type="curve" smooth="yes"/>
      <point x="167" y="730" type="line" smooth="yes"/>
      <point x="172" y="740"/>
      <point x="169" y="746"/>
      <point x="157" y="746" type="curve" smooth="yes"/>
      <point x="130" y="746" type="line" smooth="yes"/>
      <point x="116" y="746"/>
      <point x="112" y="743"/>
      <point x="108" y="732" type="curve" smooth="yes"/>
      <point x="57" y="591" type="line" smooth="yes"/>
      <point x="53" y="581"/>
      <point x="55" y="575"/>
      <point x="65" y="575" type="curve" smooth="yes"/>
    </contour>
  </outline>
</glyph>
<glyph name="ordmasculine" format="1">
  <advance width="413"/>
  <unicode hex="00BA"/>
  <note>
	ordmasculine
  </note>
  <outline>
    <contour>
      <point x="302" y="368"/>
      <point x="358" y="428"/>
      <point x="358" y="531" type="curve" smooth="yes"/>
      <point x="358" y="635"/>
      <point x="302" y="695"/>
      <point x="207" y="695" type="curve" smooth="yes"/>
      <point x="111" y="695"/>
      <point x="55" y="635"/>
      <point x="55" y="531" type="curve" smooth="yes"/>
      <point x="55" y="428"/>
      <point x="111" y="368"/>
      <point x="207" y="368" type="curve" smooth="yes"/>
    </contour>
    <contour>
      <point x="135" y="403"/>
      <point x="95" y="448"/>
      <point x="95" y="531" type="curve" smooth="yes"/>
      <point x="95" y="615"/>
      <point x="135" y="659"/>
      <point x="207" y="659" type="curve" smooth="yes"/>
      <point x="277" y="659"/>
      <point x="318" y="615"/>
      <point x="318" y="531" type="curve" smooth="yes"/>
      <point x="318" y="448"/>
      <point x="277" y="403"/>
      <point x="207" y="403" type="curve" smooth="yes"/>
    </contour>
  </outline>
</glyph>
<glyph name="guillemetright" format="1">
  <advance width="583"/>
  <unicode hex="00BB"/>
  <note>
	guillemotright
  </note>
  <outline>
    <contour>
      <point x="311" y="37"/>
      <point x="319" y="38"/>
      <point x="329" y="48" type="curve" smooth="yes"/>
      <point x="513" y="245" type="line" smooth="yes"/>
      <point x="522" y="255"/>
      <point x="528" y="260"/>
      <point x="528" y="270" type="curve" smooth="yes"/>
      <point x="528" y="278" type="line" smooth="yes"/>
      <point x="528" y="288"/>
      <point x="522" y="293"/>
      <point x="513" y="303" type="curve" smooth="yes"/>
      <point x="329" y="500" type="line" smooth="yes"/>
      <point x="319" y="510"/>
      <point x="311" y="511"/>
      <point x="302" y="502" type="curve"/>
      <point x="290" y="491" type="line" smooth="yes"/>
      <point x="280" y="482"/>
      <point x="282" y="474"/>
      <point x="291" y="464" type="curve" smooth="yes"/>
      <point x="469" y="274" type="line"/>
      <point x="291" y="84" type="line" smooth="yes"/>
      <point x="282" y="74"/>
      <point x="280" y="66"/>
      <point x="290" y="57" type="curve" smooth="yes"/>
      <point x="302" y="46" type="line"/>
    </contour>
    <contour>
      <point x="83" y="37"/>
      <point x="91" y="38"/>
      <point x="101" y="48" type="curve" smooth="yes"/>
      <point x="285" y="245" type="line" smooth="yes"/>
      <point x="294" y="255"/>
      <point x="300" y="260"/>
      <point x="300" y="270" type="curve" smooth="yes"/>
      <point x="300" y="278" type="line" smooth="yes"/>
      <point x="300" y="288"/>
      <point x="294" y="293"/>
      <point x="285" y="303" type="curve" smooth="yes"/>
      <point x="101" y="500" type="line" smooth="yes"/>
      <point x="91" y="510"/>
      <point x="83" y="511"/>
      <point x="74" y="502" type="curve"/>
      <point x="62" y="491" type="line" smooth="yes"/>
      <point x="52" y="482"/>
      <point x="54" y="474"/>
      <point x="63" y="464" type="curve" smooth="yes"/>
      <point x="241" y="274" type="line"/>
      <point x="63" y="84" type="line" smooth="yes"/>
      <point x="54" y="74"/>
      <point x="52" y="66"/>
      <point x="62" y="57" type="curve" smooth="yes"/>
      <point x="74" y="46" type="line"/>
    </contour>
  </outline>
</glyph>
<glyph name="questiondown" format="1">
  <advance width="536"/>
  <unicode hex="00BF"/>
  <note>
	questiondown
  </note>
  <outline>
    <contour>
      <point x="356" y="-15"/>
      <point x="433" y="4"/>
      <point x="473" y="32" type="curve" smooth="yes"/>
      <point x="480" y="37"/>
      <point x="483" y="40"/>
      <point x="478" y="48" type="curve" smooth="yes"/>
      <point x="465" y="70" type="line" smooth="yes"/>
      <point x="461" y="77"/>
      <point x="459" y="78"/>
      <point x="451" y="73" type="curve" smooth="yes"/>
      <point x="413" y="49"/>
      <point x="361" y="31"/>
      <point x="270" y="31" type="curve" smooth="yes"/>
      <point x="181" y="31"/>
      <point x="107" y="75"/>
      <point x="107" y="162" type="curve" smooth="yes"/>
      <point x="107" y="231"/>
      <point x="129" y="255"/>
      <point x="228" y="306" type="curve" smooth="yes"/>
      <point x="308" y="347"/>
      <point x="343" y="403"/>
      <point x="343" y="494" type="curve" smooth="yes"/>
      <point x="343" y="517" type="line" smooth="yes"/>
      <point x="343" y="532"/>
      <point x="336" y="540"/>
      <point x="320" y="540" type="curve" smooth="yes"/>
      <point x="312" y="540" type="line" smooth="yes"/>
      <point x="296" y="540"/>
      <point x="289" y="532"/>
      <point x="289" y="517" type="curve" smooth="yes"/>
      <point x="289" y="497" type="line" smooth="yes"/>
      <point x="289" y="415"/>
      <point x="269" y="384"/>
      <point x="182" y="338" type="curve" smooth="yes"/>
      <point x="93" y="291"/>
      <point x="55" y="248"/>
      <point x="55" y="162" type="curve" smooth="yes"/>
      <point x="55" y="49"/>
      <point x="144" y="-15"/>
      <point x="270" y="-15" type="curve" smooth="yes"/>
    </contour>
    <contour>
      <point x="323" y="598" type="line" smooth="yes"/>
      <point x="341" y="598"/>
      <point x="354" y="613"/>
      <point x="354" y="631" type="curve" smooth="yes"/>
      <point x="354" y="647" type="line" smooth="yes"/>
      <point x="354" y="665"/>
      <point x="341" y="680"/>
      <point x="323" y="680" type="curve" smooth="yes"/>
      <point x="309" y="680" type="line" smooth="yes"/>
      <point x="291" y="680"/>
      <point x="278" y="665"/>
      <point x="278" y="647" type="curve" smooth="yes"/>
      <point x="278" y="631" type="line" smooth="yes"/>
      <point x="278" y="613"/>
      <point x="290" y="598"/>
      <point x="309" y="598" type="curve" smooth="yes"/>
    </contour>
  </outline>
</glyph>
<glyph name="Aacute" format="1">
  <advance width="720"/>
  <unicode hex="00C1"/>
  <note>
	Aacute
  </note>
  <outline>
    <contour>
      <point x="88" y="0" type="line" smooth="yes"/>
      <point x="104" y="0"/>
      <point x="108" y="6"/>
      <point x="113" y="17" type="curve" smooth="yes"/>
      <point x="189" y="197" type="line"/>
      <point x="531" y="197" type="line"/>
      <point x="607" y="17" type="line" smooth="yes"/>
      <point x="612" y="6"/>
      <point x="616" y="0"/>
      <point x="632" y="0" type="curve" smooth="yes"/>
      <point x="651" y="0" type="line" smooth="yes"/>
      <point x="661" y="0"/>
      <point x="667" y="8"/>
      <point x="663" y="18" type="curve" smooth="yes"/>
      <point x="389" y="663" type="line" smooth="yes"/>
      <point x="384" y="676"/>
      <point x="381" y="680"/>
      <point x="369" y="680" type="curve" smooth="yes"/>
      <point x="351" y="680" type="line" smooth="yes"/>
      <point x="339" y="680"/>
      <point x="336" y="676"/>
      <point x="331" y="663" type="curve" smooth="yes"/>
      <point x="57" y="18" type="line" smooth="yes"/>
      <point x="53" y="8"/>
      <point x="59" y="0"/>
      <point x="69" y="0" type="curve" smooth="yes"/>
    </contour>
    <contour>
      <point x="360" y="601" type="line"/>
      <point x="510" y="246" type="line"/>
      <point x="209" y="246" type="line"/>
    </contour>
    <contour>
      <point x="374" y="741" type="line" smooth="yes"/>
      <point x="385" y="741"/>
      <point x="390" y="744"/>
      <point x="394" y="752" type="curve" smooth="yes"/>
      <point x="461" y="896" type="line" smooth="yes"/>
      <point x="466" y="906"/>
      <point x="463" y="912"/>
      <point x="451" y="912" type="curve" smooth="yes"/>
      <point x="424" y="912" type="line" smooth="yes"/>
      <point x="410" y="912"/>
      <point x="406" y="909"/>
      <point x="402" y="898" type="curve" smooth="yes"/>
      <point x="351" y="757" type="line" smooth="yes"/>
      <point x="347" y="747"/>
      <point x="349" y="741"/>
      <point x="359" y="741" type="curve" smooth="yes"/>
    </contour>
  </outline>
</glyph>
<glyph name="Acircumflex" format="1">
  <advance width="720"/>
  <unicode hex="00C2"/>
  <note>
	Acircumflex
  </note>
  <outline>
    <contour>
      <point x="88" y="0" type="line" smooth="yes"/>
      <point x="104" y="0"/>
      <point x="108" y="6"/>
      <point x="113" y="17" type="curve" smooth="yes"/>
      <point x="189" y="197" type="line"/>
      <point x="531" y="197" type="line"/>
      <point x="607" y="17" type="line" smooth="yes"/>
      <point x="612" y="6"/>
      <point x="616" y="0"/>
      <point x="632" y="0" type="curve" smooth="yes"/>
      <point x="651" y="0" type="line" smooth="yes"/>
      <point x="661" y="0"/>
      <point x="667" y="8"/>
      <point x="663" y="18" type="curve" smooth="yes"/>
      <point x="389" y="663" type="line" smooth="yes"/>
      <point x="384" y="676"/>
      <point x="381" y="680"/>
      <point x="369" y="680" type="curve" smooth="yes"/>
      <point x="351" y="680" type="line" smooth="yes"/>
      <point x="339" y="680"/>
      <point x="336" y="676"/>
      <point x="331" y="663" type="curve" smooth="yes"/>
      <point x="57" y="18" type="line" smooth="yes"/>
      <point x="53" y="8"/>
      <point x="59" y="0"/>
      <point x="69" y="0" type="curve" smooth="yes"/>
    </contour>
    <contour>
      <point x="360" y="601" type="line"/>
      <point x="510" y="246" type="line"/>
      <point x="209" y="246" type="line"/>
    </contour>
    <contour>
      <point x="250" y="734" type="line" smooth="yes"/>
      <point x="266" y="734"/>
      <point x="269" y="741"/>
      <point x="276" y="751" type="curve" smooth="yes"/>
      <point x="360" y="873" type="line"/>
      <point x="444" y="751" type="line" smooth="yes"/>
      <point x="451" y="741"/>
      <point x="454" y="734"/>
      <point x="470" y="734" type="curve" smooth="yes"/>
      <point x="489" y="734" type="line" smooth="yes"/>
      <point x="499" y="734"/>
      <point x="508" y="743"/>
      <point x="501" y="752" type="curve"/>
      <point x="389" y="908" type="line" smooth="yes"/>
      <point x="381" y="919"/>
      <point x="378" y="925"/>
      <point x="366" y="925" type="curve" smooth="yes"/>
      <point x="354" y="925" type="line" smooth="yes"/>
      <point x="342" y="925"/>
      <point x="339" y="919"/>
      <point x="331" y="908" type="curve" smooth="yes"/>
      <point x="219" y="752" type="line"/>
      <point x="212" y="743"/>
      <point x="221" y="734"/>
      <point x="231" y="734" type="curve" smooth="yes"/>
    </contour>
  </outline>
</glyph>
<glyph name="AE" format="1">
  <advance width="907"/>
  <unicode hex="00C6"/>
  <note>
	AE
  </note>
  <outline>
    <contour>
      <point x="88" y="0" type="line" smooth="yes"/>
      <point x="104" y="0"/>
      <point x="108" y="6"/>
      <point x="113" y="17" type="curve" smooth="yes"/>
      <point x="189" y="197" type="line"/>
      <point x="435" y="197" type="line"/>
      <point x="435" y="23" type="line" smooth="yes"/>
      <point x="435" y="8"/>
      <point x="442" y="0"/>
      <point x="458" y="0" type="curve" smooth="yes"/>
      <point x="829" y="0" type="line" smooth="yes"/>
      <point x="844" y="0"/>
      <point x="852" y="4"/>
      <point x="852" y="20" type="curve" smooth="yes"/>
      <point x="852" y="27" type="line" smooth="yes"/>
      <point x="852" y="43"/>
      <point x="844" y="49"/>
      <point x="829" y="49" type="curve" smooth="yes"/>
      <point x="489" y="49" type="line"/>
      <point x="489" y="316" type="line"/>
      <point x="742" y="316" type="line" smooth="yes"/>
      <point x="757" y="316"/>
      <point x="765" y="322"/>
      <point x="765" y="338" type="curve" smooth="yes"/>
      <point x="765" y="345" type="line" smooth="yes"/>
      <point x="765" y="361"/>
      <point x="757" y="365"/>
      <point x="742" y="365" type="curve" smooth="yes"/>
      <point x="489" y="365" type="line"/>
      <point x="489" y="631" type="line"/>
      <point x="829" y="631" type="line" smooth="yes"/>
      <point x="844" y="631"/>
      <point x="852" y="637"/>
      <point x="852" y="653" type="curve" smooth="yes"/>
      <point x="852" y="660" type="line" smooth="yes"/>
      <point x="852" y="676"/>
      <point x="844" y="680"/>
      <point x="829" y="680" type="curve" smooth="yes"/>
      <point x="351" y="680" type="line" smooth="yes"/>
      <point x="339" y="680"/>
      <point x="336" y="676"/>
      <point x="331" y="663" type="curve" smooth="yes"/>
      <point x="57" y="18" type="line" smooth="yes"/>
      <point x="53" y="8"/>
      <point x="59" y="0"/>
      <point x="69" y="0" type="curve" smooth="yes"/>
    </contour>
    <contour>
      <point x="369" y="631" type="line"/>
      <point x="435" y="631" type="line"/>
      <point x="435" y="246" type="line"/>
      <point x="209" y="246" type="line"/>
    </contour>
  </outline>
</glyph>
<glyph name="Ccedilla" format="1">
  <advance width="675"/>
  <unicode hex="00C7"/>
  <note>
	Ccedilla
  </note>
  <outline>
    <contour>
      <point x="487" y="-15"/>
      <point x="557" y="0"/>
      <point x="612" y="35" type="curve" smooth="yes"/>
      <point x="620" y="40"/>
      <point x="621" y="44"/>
      <point x="617" y="51" type="curve" smooth="yes"/>
      <point x="604" y="73" type="line" smooth="yes"/>
      <point x="600" y="80"/>
      <point x="597" y="81"/>
      <point x="590" y="76" type="curve"/>
      <point x="541" y="45"/>
      <point x="480" y="31"/>
      <point x="394" y="31" type="curve" smooth="yes"/>
      <point x="230" y="31"/>
      <point x="107" y="122"/>
      <point x="107" y="340" type="curve" smooth="yes"/>
      <point x="107" y="558"/>
      <point x="225" y="649"/>
      <point x="394" y="649" type="curve" smooth="yes"/>
      <point x="474" y="649"/>
      <point x="538" y="631"/>
      <point x="576" y="606" type="curve" smooth="yes"/>
      <point x="584" y="601"/>
      <point x="586" y="602"/>
      <point x="590" y="609" type="curve" smooth="yes"/>
      <point x="603" y="631" type="line" smooth="yes"/>
      <point x="608" y="639"/>
      <point x="605" y="642"/>
      <point x="598" y="647" type="curve"/>
      <point x="547" y="680"/>
      <point x="470" y="695"/>
      <point x="393" y="695" type="curve" smooth="yes"/>
      <point x="176" y="695"/>
      <point x="55" y="562"/>
      <point x="55" y="340" type="curve" smooth="yes"/>
      <point x="55" y="118"/>
      <point x="176" y="-15"/>
      <point x="393" y="-15" type="curve" smooth="yes"/>
    </contour>
    <contour>
      <point x="435" y="-223"/>
      <point x="472" y="-196"/>
      <point x="472" y="-145" type="curve" smooth="yes"/>
      <point x="472" y="-95"/>
      <point x="440" y="-71"/>
      <point x="394" y="-71" type="curve"/>
      <point x="417" y="-21" type="line" smooth="yes"/>
      <point x="422" y="-11"/>
      <point x="419" y="-5"/>
      <point x="407" y="-5" type="curve" smooth="yes"/>
      <point x="381" y="-5" type="line" smooth="yes"/>
      <point x="367" y="-5"/>
      <point x="363" y="-8"/>
      <point x="359" y="-19" type="curve" smooth="yes"/>
      <point x="332" y="-87" type="line" smooth="yes"/>
      <point x="328" y="-97"/>
      <point x="332" y="-103"/>
      <point x="342" y="-103" type="curve" smooth="yes"/>
      <point x="355" y="-103" type="line" smooth="yes"/>
      <point x="400" y="-103"/>
      <point x="424" y="-108"/>
      <point x="424" y="-143" type="curve" smooth="yes"/>
      <point x="424" y="-170"/>
      <point x="412" y="-180"/>
      <point x="379" y="-180" type="curve" smooth="yes"/>
      <point x="363" y="-180"/>
      <point x="343" y="-176"/>
      <point x="330" y="-168" type="curve"/>
      <point x="321" y="-162"/>
      <point x="316" y="-163"/>
      <point x="312" y="-172" type="curve" smooth="yes"/>
      <point x="304" y="-189" type="line"/>
      <point x="300" y="-199"/>
      <point x="303" y="-200"/>
      <point x="314" y="-207" type="curve" smooth="yes"/>
      <point x="330" y="-217"/>
      <point x="355" y="-223"/>
      <point x="379" y="-223" type="curve" smooth="yes"/>
    </contour>
  </outline>
</glyph>
<glyph name="Eacute" format="1">
  <advance width="582"/>
  <unicode hex="00C9"/>
  <note>
	Eacute
  </note>
  <outline>
    <contour>
      <point x="514" y="0" type="line" smooth="yes"/>
      <point x="529" y="0"/>
      <point x="537" y="4"/>
      <point x="537" y="20" type="curve" smooth="yes"/>
      <point x="537" y="27" type="line" smooth="yes"/>
      <point x="537" y="43"/>
      <point x="529" y="49"/>
      <point x="514" y="49" type="curve" smooth="yes"/>
      <point x="129" y="49" type="line"/>
      <point x="129" y="316" type="line"/>
      <point x="427" y="316" type="line" smooth="yes"/>
      <point x="442" y="316"/>
      <point x="450" y="322"/>
      <point x="450" y="338" type="curve" smooth="yes"/>
      <point x="450" y="345" type="line" smooth="yes"/>
      <point x="450" y="361"/>
      <point x="442" y="365"/>
      <point x="427" y="365" type="curve" smooth="yes"/>
      <point x="129" y="365" type="line"/>
      <point x="129" y="631" type="line"/>
      <point x="514" y="631" type="line" smooth="yes"/>
      <point x="529" y="631"/>
      <point x="537" y="637"/>
      <point x="537" y="653" type="curve" smooth="yes"/>
      <point x="537" y="660" type="line" smooth="yes"/>
      <point x="537" y="676"/>
      <point x="529" y="680"/>
      <point x="514" y="680" type="curve" smooth="yes"/>
      <point x="98" y="680" type="line" smooth="yes"/>
      <point x="82" y="680"/>
      <point x="75" y="672"/>
      <point x="75" y="657" type="curve" smooth="yes"/>
      <point x="75" y="23" type="line" smooth="yes"/>
      <point x="75" y="8"/>
      <point x="82" y="0"/>
      <point x="98" y="0" type="curve" smooth="yes"/>
    </contour>
    <contour>
      <point x="301" y="765" type="line" smooth="yes"/>
      <point x="312" y="765"/>
      <point x="317" y="768"/>
      <point x="321" y="776" type="curve" smooth="yes"/>
      <point x="388" y="920" type="line" smooth="yes"/>
      <point x="393" y="930"/>
      <point x="390" y="936"/>
      <point x="378" y="936" type="curve" smooth="yes"/>
      <point x="351" y="936" type="line" smooth="yes"/>
      <point x="337" y="936"/>
      <point x="333" y="933"/>
      <point x="329" y="922" type="curve" smooth="yes"/>
      <point x="278" y="781" type="line" smooth="yes"/>
      <point x="274" y="771"/>
      <point x="276" y="765"/>
      <point x="286" y="765" type="curve" smooth="yes"/>
    </contour>
  </outline>
</glyph>
<glyph name="Icircumflex" format="1">
  <advance width="204"/>
  <unicode hex="00CE"/>
  <note>
	Icircumflex
  </note>
  <outline>
    <contour>
      <point x="-8" y="765" type="line" smooth="yes"/>
      <point x="8" y="765"/>
      <point x="11" y="772"/>
      <point x="18" y="782" type="curve" smooth="yes"/>
      <point x="102" y="904" type="line"/>
      <point x="186" y="782" type="line" smooth="yes"/>
      <point x="193" y="772"/>
      <point x="196" y="765"/>
      <point x="212" y="765" type="curve" smooth="yes"/>
      <point x="231" y="765" type="line" smooth="yes"/>
      <point x="241" y="765"/>
      <point x="250" y="774"/>
      <point x="243" y="783" type="curve"/>
      <point x="131" y="939" type="line" smooth="yes"/>
      <point x="123" y="950"/>
      <point x="120" y="956"/>
      <point x="108" y="956" type="curve" smooth="yes"/>
      <point x="96" y="956" type="line" smooth="yes"/>
      <point x="84" y="956"/>
      <point x="81" y="950"/>
      <point x="73" y="939" type="curve" smooth="yes"/>
      <point x="-39" y="783" type="line"/>
      <point x="-46" y="774"/>
      <point x="-37" y="765"/>
      <point x="-27" y="765" type="curve" smooth="yes"/>
    </contour>
    <contour>
      <point x="106" y="0" type="line" smooth="yes"/>
      <point x="122" y="0"/>
      <point x="129" y="8"/>
      <point x="129" y="23" type="curve" smooth="yes"/>
      <point x="129" y="657" type="line" smooth="yes"/>
      <point x="129" y="672"/>
      <point x="122" y="680"/>
      <point x="106" y="680" type="curve" smooth="yes"/>
      <point x="98" y="680" type="line" smooth="yes"/>
      <point x="82" y="680"/>
      <point x="75" y="672"/>
      <point x="75" y="657" type="curve" smooth="yes"/>
      <point x="75" y="23" type="line" smooth="yes"/>
      <point x="75" y="8"/>
      <point x="82" y="0"/>
      <point x="98" y="0" type="curve" smooth="yes"/>
    </contour>
  </outline>
</glyph>
<glyph name="Ntilde" format="1">
  <advance width="696"/>
  <unicode hex="00D1"/>
  <note>
	Ntilde
  </note>
  <outline>
    <contour>
      <point x="106" y="0" type="line" smooth="yes"/>
      <point x="122" y="0"/>
      <point x="129" y="8"/>
      <point x="129" y="23" type="curve" smooth="yes"/>
      <point x="129" y="597" type="line"/>
      <point x="558" y="15" type="line" smooth="yes"/>
      <point x="567" y="3"/>
      <point x="571" y="0"/>
      <point x="584" y="0" type="curve" smooth="yes"/>
      <point x="598" y="0" type="line" smooth="yes"/>
      <point x="614" y="0"/>
      <point x="621" y="8"/>
      <point x="621" y="23" type="curve" smooth="yes"/>
      <point x="621" y="657" type="line" smooth="yes"/>
      <point x="621" y="672"/>
      <point x="614" y="680"/>
      <point x="598" y="680" type="curve" smooth="yes"/>
      <point x="590" y="680" type="line" smooth="yes"/>
      <point x="574" y="680"/>
      <point x="567" y="672"/>
      <point x="567" y="657" type="curve" smooth="yes"/>
      <point x="567" y="81" type="line"/>
      <point x="138" y="665" type="line" smooth="yes"/>
      <point x="129" y="677"/>
      <point x="125" y="680"/>
      <point x="112" y="680" type="curve" smooth="yes"/>
      <point x="98" y="680" type="line" smooth="yes"/>
      <point x="82" y="680"/>
      <point x="75" y="672"/>
      <point x="75" y="657" type="curve" smooth="yes"/>
      <point x="75" y="23" type="line" smooth="yes"/>
      <point x="75" y="8"/>
      <point x="82" y="0"/>
      <point x="98" y="0" type="curve" smooth="yes"/>
    </contour>
    <contour>
      <point x="461" y="762"/>
      <point x="497" y="779"/>
      <point x="522" y="810" type="curve" smooth="yes"/>
      <point x="536" y="827"/>
      <point x="534" y="837"/>
      <point x="525" y="845" type="curve" smooth="yes"/>
      <point x="510" y="859"/>
      <point x="497" y="855"/>
      <point x="484" y="839" type="curve" smooth="yes"/>
      <point x="467" y="819"/>
      <point x="448" y="808"/>
      <point x="416" y="808" type="curve" smooth="yes"/>
      <point x="356" y="808"/>
      <point x="348" y="865"/>
      <point x="267" y="865" type="curve" smooth="yes"/>
      <point x="224" y="865"/>
      <point x="188" y="848"/>
      <point x="163" y="817" type="curve" smooth="yes"/>
      <point x="149" y="800"/>
      <point x="151" y="790"/>
      <point x="160" y="782" type="curve" smooth="yes"/>
      <point x="175" y="768"/>
      <point x="188" y="772"/>
      <point x="201" y="788" type="curve" smooth="yes"/>
      <point x="218" y="808"/>
      <point x="237" y="819"/>
      <point x="269" y="819" type="curve" smooth="yes"/>
      <point x="327" y="819"/>
      <point x="341" y="762"/>
      <point x="418" y="762" type="curve" smooth="yes"/>
    </contour>
  </outline>
</glyph>
<glyph name="Ograve" format="1">
  <advance width="768"/>
  <unicode hex="00D2"/>
  <note>
	Ograve
  </note>
  <outline>
    <contour>
      <point x="591" y="-15"/>
      <point x="713" y="116"/>
      <point x="713" y="340" type="curve" smooth="yes"/>
      <point x="713" y="564"/>
      <point x="591" y="695"/>
      <point x="384" y="695" type="curve" smooth="yes"/>
      <point x="177" y="695"/>
      <point x="55" y="564"/>
      <point x="55" y="340" type="curve" smooth="yes"/>
      <point x="55" y="116"/>
      <point x="177" y="-15"/>
      <point x="384" y="-15" type="curve" smooth="yes"/>
    </contour>
    <contour>
      <point x="212" y="31"/>
      <point x="107" y="137"/>
      <point x="107" y="340" type="curve" smooth="yes"/>
      <point x="107" y="543"/>
      <point x="212" y="649"/>
      <point x="384" y="649" type="curve" smooth="yes"/>
      <point x="556" y="649"/>
      <point x="661" y="543"/>
      <point x="661" y="340" type="curve" smooth="yes"/>
      <point x="661" y="137"/>
      <point x="556" y="31"/>
      <point x="384" y="31" type="curve" smooth="yes"/>
    </contour>
    <contour>
      <point x="410" y="765" type="line" smooth="yes"/>
      <point x="420" y="765"/>
      <point x="422" y="771"/>
      <point x="418" y="781" type="curve" smooth="yes"/>
      <point x="367" y="922" type="line" smooth="yes"/>
      <point x="363" y="933"/>
      <point x="359" y="936"/>
      <point x="345" y="936" type="curve" smooth="yes"/>
      <point x="318" y="936" type="line" smooth="yes"/>
      <point x="306" y="936"/>
      <point x="303" y="930"/>
      <point x="308" y="920" type="curve" smooth="yes"/>
      <point x="375" y="776" type="line" smooth="yes"/>
      <point x="379" y="768"/>
      <point x="384" y="765"/>
      <point x="395" y="765" type="curve" smooth="yes"/>
    </contour>
  </outline>
</glyph>
<glyph name="Oacute" format="1">
  <advance width="768"/>
  <unicode hex="00D3"/>
  <note>
	Oacute
  </note>
  <outline>
    <contour>
      <point x="591" y="-15"/>
      <point x="713" y="116"/>
      <point x="713" y="340" type="curve" smooth="yes"/>
      <point x="713" y="564"/>
      <point x="591" y="695"/>
      <point x="384" y="695" type="curve" smooth="yes"/>
      <point x="177" y="695"/>
      <point x="55" y="564"/>
      <point x="55" y="340" type="curve" smooth="yes"/>
      <point x="55" y="116"/>
      <point x="177" y="-15"/>
      <point x="384" y="-15" type="curve" smooth="yes"/>
    </contour>
    <contour>
      <point x="212" y="31"/>
      <point x="107" y="137"/>
      <point x="107" y="340" type="curve" smooth="yes"/>
      <point x="107" y="543"/>
      <point x="212" y="649"/>
      <point x="384" y="649" type="curve" smooth="yes"/>
      <point x="556" y="649"/>
      <point x="661" y="543"/>
      <point x="661" y="340" type="curve" smooth="yes"/>
      <point x="661" y="137"/>
      <point x="556" y="31"/>
      <point x="384" y="31" type="curve" smooth="yes"/>
    </contour>
    <contour>
      <point x="386" y="765" type="line" smooth="yes"/>
      <point x="397" y="765"/>
      <point x="402" y="768"/>
      <point x="406" y="776" type="curve" smooth="yes"/>
      <point x="473" y="920" type="line" smooth="yes"/>
      <point x="478" y="930"/>
      <point x="475" y="936"/>
      <point x="463" y="936" type="curve" smooth="yes"/>
      <point x="436" y="936" type="line" smooth="yes"/>
      <point x="422" y="936"/>
      <point x="418" y="933"/>
      <point x="414" y="922" type="curve" smooth="yes"/>
      <point x="363" y="781" type="line" smooth="yes"/>
      <point x="359" y="771"/>
      <point x="361" y="765"/>
      <point x="371" y="765" type="curve" smooth="yes"/>
    </contour>
  </outline>
</glyph>
<glyph name="Ocircumflex" format="1">
  <advance width="768"/>
  <unicode hex="00D4"/>
  <note>
	Ocircumflex
  </note>
  <outline>
    <contour>
      <point x="591" y="-15"/>
      <point x="713" y="116"/>
      <point x="713" y="340" type="curve" smooth="yes"/>
      <point x="713" y="564"/>
      <point x="591" y="695"/>
      <point x="384" y="695" type="curve" smooth="yes"/>
      <point x="177" y="695"/>
      <point x="55" y="564"/>
      <point x="55" y="340" type="curve" smooth="yes"/>
      <point x="55" y="116"/>
      <point x="177" y="-15"/>
      <point x="384" y="-15" type="curve" smooth="yes"/>
    </contour>
    <contour>
      <point x="212" y="31"/>
      <point x="107" y="137"/>
      <point x="107" y="340" type="curve" smooth="yes"/>
      <point x="107" y="543"/>
      <point x="212" y="649"/>
      <point x="384" y="649" type="curve" smooth="yes"/>
      <point x="556" y="649"/>
      <point x="661" y="543"/>
      <point x="661" y="340" type="curve" smooth="yes"/>
      <point x="661" y="137"/>
      <point x="556" y="31"/>
      <point x="384" y="31" type="curve" smooth="yes"/>
    </contour>
    <contour>
      <point x="274" y="758" type="line" smooth="yes"/>
      <point x="290" y="758"/>
      <point x="293" y="765"/>
      <point x="300" y="775" type="curve" smooth="yes"/>
      <point x="384" y="897" type="line"/>
      <point x="468" y="775" type="line" smooth="yes"/>
      <point x="475" y="765"/>
      <point x="478" y="758"/>
      <point x="494" y="758" type="curve" smooth="yes"/>
      <point x="513" y="758" type="line" smooth="yes"/>
      <point x="523" y="758"/>
      <point x="532" y="767"/>
      <point x="525" y="776" type="curve"/>
      <point x="413" y="932" type="line" smooth="yes"/>
      <point x="405" y="943"/>
      <point x="402" y="949"/>
      <point x="390" y="949" type="curve" smooth="yes"/>
      <point x="378" y="949" type="line" smooth="yes"/>
      <point x="366" y="949"/>
      <point x="363" y="943"/>
      <point x="355" y="932" type="curve" smooth="yes"/>
      <point x="243" y="776" type="line"/>
      <point x="236" y="767"/>
      <point x="245" y="758"/>
      <point x="255" y="758" type="curve" smooth="yes"/>
    </contour>
  </outline>
</glyph>
<glyph name="Ugrave" format="1">
  <advance width="716"/>
  <unicode hex="00D9"/>
  <note>
	Ugrave
  </note>
  <outline>
    <contour>
      <point x="527" y="-15"/>
      <point x="646" y="81"/>
      <point x="646" y="235" type="curve" smooth="yes"/>
      <point x="646" y="657" type="line" smooth="yes"/>
      <point x="646" y="672"/>
      <point x="639" y="680"/>
      <point x="623" y="680" type="curve" smooth="yes"/>
      <point x="615" y="680" type="line" smooth="yes"/>
      <point x="599" y="680"/>
      <point x="592" y="672"/>
      <point x="592" y="657" type="curve" smooth="yes"/>
      <point x="592" y="231" type="line" smooth="yes"/>
      <point x="592" y="98"/>
      <point x="490" y="31"/>
      <point x="358" y="31" type="curve" smooth="yes"/>
      <point x="226" y="31"/>
      <point x="124" y="98"/>
      <point x="124" y="231" type="curve" smooth="yes"/>
      <point x="124" y="657" type="line" smooth="yes"/>
      <point x="124" y="672"/>
      <point x="117" y="680"/>
      <point x="101" y="680" type="curve" smooth="yes"/>
      <point x="93" y="680" type="line" smooth="yes"/>
      <point x="77" y="680"/>
      <point x="70" y="672"/>
      <point x="70" y="657" type="curve" smooth="yes"/>
      <point x="70" y="235" type="line" smooth="yes"/>
      <point x="70" y="81"/>
      <point x="189" y="-15"/>
      <point x="358" y="-15" type="curve" smooth="yes"/>
    </contour>
    <contour>
      <point x="379" y="765" type="line" smooth="yes"/>
      <point x="389" y="765"/>
      <point x="391" y="771"/>
      <point x="387" y="781" type="curve" smooth="yes"/>
      <point x="336" y="922" type="line" smooth="yes"/>
      <point x="332" y="933"/>
      <point x="328" y="936"/>
      <point x="314" y="936" type="curve" smooth="yes"/>
      <point x="287" y="936" type="line" smooth="yes"/>
      <point x="275" y="936"/>
      <point x="272" y="930"/>
      <point x="277" y="920" type="curve" smooth="yes"/>
      <point x="344" y="776" type="line" smooth="yes"/>
      <point x="348" y="768"/>
      <point x="353" y="765"/>
      <point x="364" y="765" type="curve" smooth="yes"/>
    </contour>
  </outline>
</glyph>
<glyph name="Uacute" format="1">
  <advance width="716"/>
  <unicode hex="00DA"/>
  <note>
	Uacute
  </note>
  <outline>
    <contour>
      <point x="527" y="-15"/>
      <point x="646" y="81"/>
      <point x="646" y="235" type="curve" smooth="yes"/>
      <point x="646" y="657" type="line" smooth="yes"/>
      <point x="646" y="672"/>
      <point x="639" y="680"/>
      <point x="623" y="680" type="curve" smooth="yes"/>
      <point x="615" y="680" type="line" smooth="yes"/>
      <point x="599" y="680"/>
      <point x="592" y="672"/>
      <point x="592" y="657" type="curve" smooth="yes"/>
      <point x="592" y="231" type="line" smooth="yes"/>
      <point x="592" y="98"/>
      <point x="490" y="31"/>
      <point x="358" y="31" type="curve" smooth="yes"/>
      <point x="226" y="31"/>
      <point x="124" y="98"/>
      <point x="124" y="231" type="curve" smooth="yes"/>
      <point x="124" y="657" type="line" smooth="yes"/>
      <point x="124" y="672"/>
      <point x="117" y="680"/>
      <point x="101" y="680" type="curve" smooth="yes"/>
      <point x="93" y="680" type="line" smooth="yes"/>
      <point x="77" y="680"/>
      <point x="70" y="672"/>
      <point x="70" y="657" type="curve" smooth="yes"/>
      <point x="70" y="235" type="line" smooth="yes"/>
      <point x="70" y="81"/>
      <point x="189" y="-15"/>
      <point x="358" y="-15" type="curve" smooth="yes"/>
    </contour>
    <contour>
      <point x="365" y="765" type="line" smooth="yes"/>
      <point x="376" y="765"/>
      <point x="381" y="768"/>
      <point x="385" y="776" type="curve" smooth="yes"/>
      <point x="452" y="920" type="line" smooth="yes"/>
      <point x="457" y="930"/>
      <point x="454" y="936"/>
      <point x="442" y="936" type="curve" smooth="yes"/>
      <point x="415" y="936" type="line" smooth="yes"/>
      <point x="401" y="936"/>
      <point x="397" y="933"/>
      <point x="393" y="922" type="curve" smooth="yes"/>
      <point x="342" y="781" type="line" smooth="yes"/>
      <point x="338" y="771"/>
      <point x="340" y="765"/>
      <point x="350" y="765" type="curve" smooth="yes"/>
    </contour>
  </outline>
</glyph>
<glyph name="Ucircumflex" format="1">
  <advance width="716"/>
  <unicode hex="00DB"/>
  <note>
	Ucircumflex
  </note>
  <outline>
    <contour>
      <point x="527" y="-15"/>
      <point x="646" y="81"/>
      <point x="646" y="235" type="curve" smooth="yes"/>
      <point x="646" y="657" type="line" smooth="yes"/>
      <point x="646" y="672"/>
      <point x="639" y="680"/>
      <point x="623" y="680" type="curve" smooth="yes"/>
      <point x="615" y="680" type="line" smooth="yes"/>
      <point x="599" y="680"/>
      <point x="592" y="672"/>
      <point x="592" y="657" type="curve" smooth="yes"/>
      <point x="592" y="231" type="line" smooth="yes"/>
      <point x="592" y="98"/>
      <point x="490" y="31"/>
      <point x="358" y="31" type="curve" smooth="yes"/>
      <point x="226" y="31"/>
      <point x="124" y="98"/>
      <point x="124" y="231" type="curve" smooth="yes"/>
      <point x="124" y="657" type="line" smooth="yes"/>
      <point x="124" y="672"/>
      <point x="117" y="680"/>
      <point x="101" y="680" type="curve" smooth="yes"/>
      <point x="93" y="680" type="line" smooth="yes"/>
      <point x="77" y="680"/>
      <point x="70" y="672"/>
      <point x="70" y="657" type="curve" smooth="yes"/>
      <point x="70" y="235" type="line" smooth="yes"/>
      <point x="70" y="81"/>
      <point x="189" y="-15"/>
      <point x="358" y="-15" type="curve" smooth="yes"/>
    </contour>
    <contour>
      <point x="248" y="758" type="line" smooth="yes"/>
      <point x="264" y="758"/>
      <point x="267" y="765"/>
      <point x="274" y="775" type="curve" smooth="yes"/>
      <point x="358" y="897" type="line"/>
      <point x="442" y="775" type="line" smooth="yes"/>
      <point x="449" y="765"/>
      <point x="452" y="758"/>
      <point x="468" y="758" type="curve" smooth="yes"/>
      <point x="487" y="758" type="line" smooth="yes"/>
      <point x="497" y="758"/>
      <point x="506" y="767"/>
      <point x="499" y="776" type="curve"/>
      <point x="387" y="932" type="line" smooth="yes"/>
      <point x="379" y="943"/>
      <point x="376" y="949"/>
      <point x="364" y="949" type="curve" smooth="yes"/>
      <point x="352" y="949" type="line" smooth="yes"/>
      <point x="340" y="949"/>
      <point x="337" y="943"/>
      <point x="329" y="932" type="curve" smooth="yes"/>
      <point x="217" y="776" type="line"/>
      <point x="210" y="767"/>
      <point x="219" y="758"/>
      <point x="229" y="758" type="curve" smooth="yes"/>
    </contour>
  </outline>
</glyph>
<glyph name="Udieresis" format="1">
  <advance width="716"/>
  <unicode hex="00DC"/>
  <note>
	Udieresis
  </note>
  <outline>
    <contour>
      <point x="527" y="-15"/>
      <point x="646" y="81"/>
      <point x="646" y="235" type="curve" smooth="yes"/>
      <point x="646" y="657" type="line" smooth="yes"/>
      <point x="646" y="672"/>
      <point x="639" y="680"/>
      <point x="623" y="680" type="curve" smooth="yes"/>
      <point x="615" y="680" type="line" smooth="yes"/>
      <point x="599" y="680"/>
      <point x="592" y="672"/>
      <point x="592" y="657" type="curve" smooth="yes"/>
      <point x="592" y="231" type="line" smooth="yes"/>
      <point x="592" y="98"/>
      <point x="490" y="31"/>
      <point x="358" y="31" type="curve" smooth="yes"/>
      <point x="226" y="31"/>
      <point x="124" y="98"/>
      <point x="124" y="231" type="curve" smooth="yes"/>
      <point x="124" y="657" type="line" smooth="yes"/>
      <point x="124" y="672"/>
      <point x="117" y="680"/>
      <point x="101" y="680" type="curve" smooth="yes"/>
      <point x="93" y="680" type="line" smooth="yes"/>
      <point x="77" y="680"/>
      <point x="70" y="672"/>
      <point x="70" y="657" type="curve" smooth="yes"/>
      <point x="70" y="235" type="line" smooth="yes"/>
      <point x="70" y="81"/>
      <point x="189" y="-15"/>
      <point x="358" y="-15" type="curve" smooth="yes"/>
    </contour>
    <contour>
      <point x="275" y="762" type="line" smooth="yes"/>
      <point x="295" y="762"/>
      <point x="308" y="778"/>
      <point x="308" y="797" type="curve" smooth="yes"/>
      <point x="308" y="810" type="line" smooth="yes"/>
      <point x="308" y="829"/>
      <point x="294" y="845"/>
      <point x="275" y="845" type="curve" smooth="yes"/>
      <point x="261" y="845" type="line" smooth="yes"/>
      <point x="242" y="845"/>
      <point x="228" y="829"/>
      <point x="228" y="810" type="curve" smooth="yes"/>
      <point x="228" y="797" type="line" smooth="yes"/>
      <point x="228" y="778"/>
      <point x="242" y="762"/>
      <point x="261" y="762" type="curve" smooth="yes"/>
    </contour>
    <contour>
      <point x="455" y="762" type="line" smooth="yes"/>
      <point x="475" y="762"/>
      <point x="488" y="778"/>
      <point x="488" y="797" type="curve" smooth="yes"/>
      <point x="488" y="810" type="line" smooth="yes"/>
      <point x="488" y="829"/>
      <point x="474" y="845"/>
      <point x="455" y="845" type="curve" smooth="yes"/>
      <point x="441" y="845" type="line" smooth="yes"/>
      <point x="422" y="845"/>
      <point x="408" y="829"/>
      <point x="408" y="810" type="curve" smooth="yes"/>
      <point x="408" y="797" type="line" smooth="yes"/>
      <point x="408" y="778"/>
      <point x="422" y="762"/>
      <point x="441" y="762" type="curve" smooth="yes"/>
    </contour>
  </outline>
</glyph>
<glyph name="Yacute" format="1">
  <advance width="680"/>
  <unicode hex="00DD"/>
  <note>
	Yacute
  </note>
  <outline>
    <contour>
      <point x="344" y="0" type="line" smooth="yes"/>
      <point x="360" y="0"/>
      <point x="367" y="8"/>
      <point x="367" y="23" type="curve" smooth="yes"/>
      <point x="367" y="222" type="line"/>
      <point x="623" y="662" type="line" smooth="yes"/>
      <point x="628" y="671"/>
      <point x="621" y="680"/>
      <point x="611" y="680" type="curve" smooth="yes"/>
      <point x="592" y="680" type="line" smooth="yes"/>
      <point x="576" y="680"/>
      <point x="573" y="674"/>
      <point x="567" y="663" type="curve" smooth="yes"/>
      <point x="340" y="273" type="line"/>
      <point x="113" y="663" type="line" smooth="yes"/>
      <point x="107" y="674"/>
      <point x="104" y="680"/>
      <point x="88" y="680" type="curve" smooth="yes"/>
      <point x="69" y="680" type="line" smooth="yes"/>
      <point x="59" y="680"/>
      <point x="52" y="671"/>
      <point x="57" y="662" type="curve" smooth="yes"/>
      <point x="313" y="223" type="line"/>
      <point x="313" y="23" type="line" smooth="yes"/>
      <point x="313" y="8"/>
      <point x="320" y="0"/>
      <point x="336" y="0" type="curve" smooth="yes"/>
    </contour>
    <contour>
      <point x="331" y="765" type="line" smooth="yes"/>
      <point x="342" y="765"/>
      <point x="347" y="768"/>
      <point x="351" y="776" type="curve" smooth="yes"/>
      <point x="418" y="920" type="line" smooth="yes"/>
      <point x="423" y="930"/>
      <point x="420" y="936"/>
      <point x="408" y="936" type="curve" smooth="yes"/>
      <point x="381" y="936" type="line" smooth="yes"/>
      <point x="367" y="936"/>
      <point x="363" y="933"/>
      <point x="359" y="922" type="curve" smooth="yes"/>
      <point x="308" y="781" type="line" smooth="yes"/>
      <point x="304" y="771"/>
      <point x="306" y="765"/>
      <point x="316" y="765" type="curve" smooth="yes"/>
    </contour>
  </outline>
</glyph>
<glyph name="Thorn" format="1">
  <advance width="632"/>
  <unicode hex="00DE"/>
  <note>
	Thorn
  </note>
  <outline>
    <contour>
      <point x="106" y="0" type="line" smooth="yes"/>
      <point x="122" y="0"/>
      <point x="129" y="8"/>
      <point x="129" y="23" type="curve" smooth="yes"/>
      <point x="129" y="124" type="line"/>
      <point x="364" y="124" type="line" smooth="yes"/>
      <point x="507" y="124"/>
      <point x="577" y="209"/>
      <point x="577" y="340" type="curve" smooth="yes"/>
      <point x="577" y="471"/>
      <point x="507" y="556"/>
      <point x="365" y="556" type="curve" smooth="yes"/>
      <point x="129" y="556" type="line"/>
      <point x="129" y="657" type="line" smooth="yes"/>
      <point x="129" y="672"/>
      <point x="122" y="680"/>
      <point x="106" y="680" type="curve" smooth="yes"/>
      <point x="98" y="680" type="line" smooth="yes"/>
      <point x="82" y="680"/>
      <point x="75" y="672"/>
      <point x="75" y="657" type="curve" smooth="yes"/>
      <point x="75" y="23" type="line" smooth="yes"/>
      <point x="75" y="8"/>
      <point x="82" y="0"/>
      <point x="98" y="0" type="curve" smooth="yes"/>
    </contour>
    <contour>
      <point x="129" y="507" type="line"/>
      <point x="369" y="507" type="line" smooth="yes"/>
      <point x="476" y="507"/>
      <point x="525" y="452"/>
      <point x="525" y="340" type="curve" smooth="yes"/>
      <point x="525" y="228"/>
      <point x="476" y="173"/>
      <point x="369" y="173" type="curve" smooth="yes"/>
      <point x="129" y="173" type="line"/>
    </contour>
  </outline>
</glyph>
<glyph name="germandbls" format="1">
  <advance width="642"/>
  <unicode hex="00DF"/>
  <note>
	germandbls
  </note>
  <outline>
    <contour>
      <point x="514" y="-15"/>
      <point x="587" y="82"/>
      <point x="587" y="183" type="curve" smooth="yes"/>
      <point x="587" y="260"/>
      <point x="552" y="338"/>
      <point x="462" y="365" type="curve"/>
      <point x="529" y="393"/>
      <point x="565" y="461"/>
      <point x="565" y="526" type="curve" smooth="yes"/>
      <point x="565" y="629"/>
      <point x="501" y="720"/>
      <point x="317" y="720" type="curve" smooth="yes"/>
      <point x="134" y="720"/>
      <point x="70" y="610"/>
      <point x="70" y="480" type="curve" smooth="yes"/>
      <point x="70" y="23" type="line" smooth="yes"/>
      <point x="70" y="8"/>
      <point x="77" y="0"/>
      <point x="93" y="0" type="curve" smooth="yes"/>
      <point x="101" y="0" type="line" smooth="yes"/>
      <point x="117" y="0"/>
      <point x="124" y="8"/>
      <point x="124" y="23" type="curve" smooth="yes"/>
      <point x="124" y="475" type="line" smooth="yes"/>
      <point x="124" y="598"/>
      <point x="177" y="671"/>
      <point x="315" y="671" type="curve" smooth="yes"/>
      <point x="456" y="671"/>
      <point x="513" y="614"/>
      <point x="513" y="526" type="curve" smooth="yes"/>
      <point x="513" y="458"/>
      <point x="466" y="389"/>
      <point x="374" y="389" type="curve" smooth="yes"/>
      <point x="270" y="389" type="line" smooth="yes"/>
      <point x="255" y="389"/>
      <point x="247" y="385"/>
      <point x="247" y="369" type="curve" smooth="yes"/>
      <point x="247" y="362" type="line" smooth="yes"/>
      <point x="247" y="346"/>
      <point x="255" y="340"/>
      <point x="270" y="340" type="curve" smooth="yes"/>
      <point x="367" y="340" type="line" smooth="yes"/>
      <point x="477" y="340"/>
      <point x="535" y="285"/>
      <point x="535" y="183" type="curve" smooth="yes"/>
      <point x="535" y="100"/>
      <point x="483" y="31"/>
      <point x="373" y="31" type="curve" smooth="yes"/>
      <point x="312" y="31"/>
      <point x="254" y="46"/>
      <point x="216" y="73" type="curve" smooth="yes"/>
      <point x="209" y="78"/>
      <point x="206" y="77"/>
      <point x="202" y="70" type="curve" smooth="yes"/>
      <point x="189" y="48" type="line" smooth="yes"/>
      <point x="185" y="41"/>
      <point x="186" y="37"/>
      <point x="194" y="32" type="curve" smooth="yes"/>
      <point x="243" y="0"/>
      <point x="306" y="-15"/>
      <point x="376" y="-15" type="curve" smooth="yes"/>
    </contour>
  </outline>
</glyph>
<glyph name="adieresis" format="1">
  <advance width="612"/>
  <unicode hex="00E4"/>
  <note>
	adieresis
  </note>
  <outline>
    <contour>
      <point x="364" y="-15"/>
      <point x="435" y="10"/>
      <point x="483" y="71" type="curve"/>
      <point x="486" y="23" type="line" smooth="yes"/>
      <point x="487" y="8"/>
      <point x="491" y="0"/>
      <point x="507" y="0" type="curve" smooth="yes"/>
      <point x="514" y="0" type="line" smooth="yes"/>
      <point x="530" y="0"/>
      <point x="537" y="8"/>
      <point x="537" y="23" type="curve" smooth="yes"/>
      <point x="537" y="439" type="line"/>
      <point x="493" y="469"/>
      <point x="417" y="495"/>
      <point x="340" y="495" type="curve" smooth="yes"/>
      <point x="158" y="495"/>
      <point x="55" y="379"/>
      <point x="55" y="208" type="curve" smooth="yes"/>
      <point x="55" y="63"/>
      <point x="143" y="-15"/>
      <point x="277" y="-15" type="curve" smooth="yes"/>
    </contour>
    <contour>
      <point x="169" y="31"/>
      <point x="107" y="88"/>
      <point x="107" y="214" type="curve" smooth="yes"/>
      <point x="107" y="362"/>
      <point x="196" y="449"/>
      <point x="340" y="449" type="curve" smooth="yes"/>
      <point x="395" y="449"/>
      <point x="449" y="435"/>
      <point x="483" y="415" type="curve"/>
      <point x="483" y="184" type="line" smooth="yes"/>
      <point x="483" y="88"/>
      <point x="386" y="31"/>
      <point x="297" y="31" type="curve" smooth="yes"/>
    </contour>
    <contour>
      <point x="257" y="562" type="line" smooth="yes"/>
      <point x="277" y="562"/>
      <point x="290" y="578"/>
      <point x="290" y="597" type="curve" smooth="yes"/>
      <point x="290" y="610" type="line" smooth="yes"/>
      <point x="290" y="629"/>
      <point x="276" y="645"/>
      <point x="257" y="645" type="curve" smooth="yes"/>
      <point x="243" y="645" type="line" smooth="yes"/>
      <point x="224" y="645"/>
      <point x="210" y="629"/>
      <point x="210" y="610" type="curve" smooth="yes"/>
      <point x="210" y="597" type="line" smooth="yes"/>
      <point x="210" y="578"/>
      <point x="224" y="562"/>
      <point x="243" y="562" type="curve" smooth="yes"/>
    </contour>
    <contour>
      <point x="437" y="562" type="line" smooth="yes"/>
      <point x="457" y="562"/>
      <point x="470" y="578"/>
      <point x="470" y="597" type="curve" smooth="yes"/>
      <point x="470" y="610" type="line" smooth="yes"/>
      <point x="470" y="629"/>
      <point x="456" y="645"/>
      <point x="437" y="645" type="curve" smooth="yes"/>
      <point x="423" y="645" type="line" smooth="yes"/>
      <point x="404" y="645"/>
      <point x="390" y="629"/>
      <point x="390" y="610" type="curve" smooth="yes"/>
      <point x="390" y="597" type="line" smooth="yes"/>
      <point x="390" y="578"/>
      <point x="404" y="562"/>
      <point x="423" y="562" type="curve" smooth="yes"/>
    </contour>
  </outline>
</glyph>
<glyph name="ecircumflex" format="1">
  <advance width="602"/>
  <unicode hex="00EA"/>
  <note>
	ecircumflex
  </note>
  <outline>
    <contour>
      <point x="379" y="-15"/>
      <point x="453" y="-2"/>
      <point x="506" y="32" type="curve" smooth="yes"/>
      <point x="512" y="36"/>
      <point x="516" y="40"/>
      <point x="511" y="48" type="curve" smooth="yes"/>
      <point x="498" y="70" type="line" smooth="yes"/>
      <point x="494" y="77"/>
      <point x="492" y="78"/>
      <point x="484" y="73" type="curve"/>
      <point x="446" y="47"/>
      <point x="389" y="31"/>
      <point x="325" y="31" type="curve" smooth="yes"/>
      <point x="192" y="31"/>
      <point x="108" y="93"/>
      <point x="108" y="216" type="curve"/>
      <point x="527" y="216" type="line" smooth="yes"/>
      <point x="540" y="216"/>
      <point x="547" y="224"/>
      <point x="547" y="236" type="curve" smooth="yes"/>
      <point x="547" y="411"/>
      <point x="466" y="495"/>
      <point x="307" y="495" type="curve" smooth="yes"/>
      <point x="150" y="495"/>
      <point x="55" y="406"/>
      <point x="55" y="230" type="curve" smooth="yes"/>
      <point x="55" y="53"/>
      <point x="179" y="-15"/>
      <point x="317" y="-15" type="curve" smooth="yes"/>
    </contour>
    <contour>
      <point x="108" y="374"/>
      <point x="177" y="449"/>
      <point x="307" y="449" type="curve" smooth="yes"/>
      <point x="435" y="449"/>
      <point x="495" y="379"/>
      <point x="495" y="265" type="curve"/>
      <point x="108" y="265" type="line"/>
    </contour>
    <contour>
      <point x="201" y="538" type="line" smooth="yes"/>
      <point x="217" y="538"/>
      <point x="220" y="545"/>
      <point x="227" y="555" type="curve" smooth="yes"/>
      <point x="311" y="677" type="line"/>
      <point x="395" y="555" type="line" smooth="yes"/>
      <point x="402" y="545"/>
      <point x="405" y="538"/>
      <point x="421" y="538" type="curve" smooth="yes"/>
      <point x="440" y="538" type="line" smooth="yes"/>
      <point x="450" y="538"/>
      <point x="459" y="547"/>
      <point x="452" y="556" type="curve"/>
      <point x="340" y="712" type="line" smooth="yes"/>
      <point x="332" y="723"/>
      <point x="329" y="729"/>
      <point x="317" y="729" type="curve" smooth="yes"/>
      <point x="305" y="729" type="line" smooth="yes"/>
      <point x="293" y="729"/>
      <point x="290" y="723"/>
      <point x="282" y="712" type="curve" smooth="yes"/>
      <point x="170" y="556" type="line"/>
      <point x="163" y="547"/>
      <point x="172" y="538"/>
      <point x="182" y="538" type="curve" smooth="yes"/>
    </contour>
  </outline>
</glyph>
<glyph name="edieresis" format="1">
  <advance width="602"/>
  <unicode hex="00EB"/>
  <note>
	edieresis
  </note>
  <outline>
    <contour>
      <point x="379" y="-15"/>
      <point x="453" y="-2"/>
      <point x="506" y="32" type="curve" smooth="yes"/>
      <point x="512" y="36"/>
      <point x="516" y="40"/>
      <point x="511" y="48" type="curve" smooth="yes"/>
      <point x="498" y="70" type="line" smooth="yes"/>
      <point x="494" y="77"/>
      <point x="492" y="78"/>
      <point x="484" y="73" type="curve"/>
      <point x="446" y="47"/>
      <point x="389" y="31"/>
      <point x="325" y="31" type="curve" smooth="yes"/>
      <point x="192" y="31"/>
      <point x="108" y="93"/>
      <point x="108" y="216" type="curve"/>
      <point x="527" y="216" type="line" smooth="yes"/>
      <point x="540" y="216"/>
      <point x="547" y="224"/>
      <point x="547" y="236" type="curve" smooth="yes"/>
      <point x="547" y="411"/>
      <point x="466" y="495"/>
      <point x="307" y="495" type="curve" smooth="yes"/>
      <point x="150" y="495"/>
      <point x="55" y="406"/>
      <point x="55" y="230" type="curve" smooth="yes"/>
      <point x="55" y="53"/>
      <point x="179" y="-15"/>
      <point x="317" y="-15" type="curve" smooth="yes"/>
    </contour>
    <contour>
      <point x="108" y="374"/>
      <point x="177" y="449"/>
      <point x="307" y="449" type="curve" smooth="yes"/>
      <point x="435" y="449"/>
      <point x="495" y="379"/>
      <point x="495" y="265" type="curve"/>
      <point x="108" y="265" type="line"/>
    </contour>
    <contour>
      <point x="226" y="542" type="line" smooth="yes"/>
      <point x="246" y="542"/>
      <point x="259" y="558"/>
      <point x="259" y="577" type="curve" smooth="yes"/>
      <point x="259" y="590" type="line" smooth="yes"/>
      <point x="259" y="609"/>
      <point x="245" y="625"/>
      <point x="226" y="625" type="curve" smooth="yes"/>
      <point x="212" y="625" type="line" smooth="yes"/>
      <point x="193" y="625"/>
      <point x="179" y="609"/>
      <point x="179" y="590" type="curve" smooth="yes"/>
      <point x="179" y="577" type="line" smooth="yes"/>
      <point x="179" y="558"/>
      <point x="193" y="542"/>
      <point x="212" y="542" type="curve" smooth="yes"/>
    </contour>
    <contour>
      <point x="406" y="542" type="line" smooth="yes"/>
      <point x="426" y="542"/>
      <point x="439" y="558"/>
      <point x="439" y="577" type="curve" smooth="yes"/>
      <point x="439" y="590" type="line" smooth="yes"/>
      <point x="439" y="609"/>
      <point x="425" y="625"/>
      <point x="406" y="625" type="curve" smooth="yes"/>
      <point x="392" y="625" type="line" smooth="yes"/>
      <point x="373" y="625"/>
      <point x="359" y="609"/>
      <point x="359" y="590" type="curve" smooth="yes"/>
      <point x="359" y="577" type="line" smooth="yes"/>
      <point x="359" y="558"/>
      <point x="373" y="542"/>
      <point x="392" y="542" type="curve" smooth="yes"/>
    </contour>
  </outline>
</glyph>
<glyph name="igrave" format="1">
  <advance width="204"/>
  <unicode hex="00EC"/>
  <note>
	igrave
  </note>
  <outline>
    <contour>
      <point x="106" y="0" type="line" smooth="yes"/>
      <point x="122" y="0"/>
      <point x="129" y="8"/>
      <point x="129" y="23" type="curve" smooth="yes"/>
      <point x="129" y="457" type="line" smooth="yes"/>
      <point x="129" y="472"/>
      <point x="122" y="480"/>
      <point x="106" y="480" type="curve" smooth="yes"/>
      <point x="98" y="480" type="line" smooth="yes"/>
      <point x="82" y="480"/>
      <point x="75" y="472"/>
      <point x="75" y="457" type="curve" smooth="yes"/>
      <point x="75" y="23" type="line" smooth="yes"/>
      <point x="75" y="8"/>
      <point x="82" y="0"/>
      <point x="98" y="0" type="curve" smooth="yes"/>
    </contour>
    <contour>
      <point x="117" y="575" type="line" smooth="yes"/>
      <point x="127" y="575"/>
      <point x="129" y="581"/>
      <point x="125" y="591" type="curve" smooth="yes"/>
      <point x="74" y="732" type="line" smooth="yes"/>
      <point x="70" y="743"/>
      <point x="66" y="746"/>
      <point x="52" y="746" type="curve" smooth="yes"/>
      <point x="25" y="746" type="line" smooth="yes"/>
      <point x="13" y="746"/>
      <point x="10" y="740"/>
      <point x="15" y="730" type="curve" smooth="yes"/>
      <point x="82" y="586" type="line" smooth="yes"/>
      <point x="86" y="578"/>
      <point x="91" y="575"/>
      <point x="102" y="575" type="curve" smooth="yes"/>
    </contour>
  </outline>
</glyph>
<glyph name="eth" format="1">
  <advance width="679"/>
  <unicode hex="00F0"/>
  <note>
	eth
  </note>
  <outline>
    <contour>
      <point x="407" y="-15"/>
      <point x="542" y="60"/>
      <point x="591" y="290" type="curve" smooth="yes"/>
      <point x="629" y="470"/>
      <point x="604" y="576"/>
      <point x="553" y="633" type="curve"/>
      <point x="621" y="729" type="line" smooth="yes"/>
      <point x="625" y="735"/>
      <point x="624" y="742"/>
      <point x="614" y="742" type="curve" smooth="yes"/>
      <point x="581" y="742" type="line" smooth="yes"/>
      <point x="573" y="742"/>
      <point x="570" y="738"/>
      <point x="566" y="732" type="curve" smooth="yes"/>
      <point x="517" y="663" type="line"/>
      <point x="481" y="686"/>
      <point x="438" y="695"/>
      <point x="396" y="695" type="curve" smooth="yes"/>
      <point x="330" y="695"/>
      <point x="276" y="682"/>
      <point x="236" y="658" type="curve" smooth="yes"/>
      <point x="228" y="653"/>
      <point x="223" y="650"/>
      <point x="227" y="642" type="curve" smooth="yes"/>
      <point x="238" y="618" type="line" smooth="yes"/>
      <point x="241" y="611"/>
      <point x="244" y="611"/>
      <point x="251" y="615" type="curve" smooth="yes"/>
      <point x="294" y="639"/>
      <point x="330" y="649"/>
      <point x="387" y="649" type="curve" smooth="yes"/>
      <point x="429" y="649"/>
      <point x="463" y="640"/>
      <point x="489" y="624" type="curve"/>
      <point x="417" y="523" type="line" smooth="yes"/>
      <point x="413" y="517"/>
      <point x="414" y="510"/>
      <point x="424" y="510" type="curve" smooth="yes"/>
      <point x="457" y="510" type="line" smooth="yes"/>
      <point x="465" y="510"/>
      <point x="468" y="514"/>
      <point x="472" y="520" type="curve" smooth="yes"/>
      <point x="523" y="591" type="line"/>
      <point x="555" y="546"/>
      <point x="564" y="473"/>
      <point x="553" y="374" type="curve"/>
      <point x="511" y="443"/>
      <point x="447" y="475"/>
      <point x="355" y="475" type="curve" smooth="yes"/>
      <point x="168" y="475"/>
      <point x="55" y="361"/>
      <point x="55" y="173" type="curve" smooth="yes"/>
      <point x="55" y="53"/>
      <point x="137" y="-15"/>
      <point x="266" y="-15" type="curve" smooth="yes"/>
    </contour>
    <contour>
      <point x="171" y="31"/>
      <point x="108" y="75"/>
      <point x="108" y="173" type="curve" smooth="yes"/>
      <point x="108" y="341"/>
      <point x="200" y="428"/>
      <point x="354" y="428" type="curve" smooth="yes"/>
      <point x="445" y="428"/>
      <point x="556" y="370"/>
      <point x="529" y="252" type="curve" smooth="yes"/>
      <point x="496" y="107"/>
      <point x="387" y="31"/>
      <point x="276" y="31" type="curve" smooth="yes"/>
    </contour>
  </outline>
</glyph>
<glyph name="ograve" format="1">
  <advance width="618"/>
  <unicode hex="00F2"/>
  <note>
	ograve
  </note>
  <outline>
    <contour>
      <point x="476" y="-15"/>
      <point x="563" y="86"/>
      <point x="563" y="240" type="curve" smooth="yes"/>
      <point x="563" y="394"/>
      <point x="476" y="495"/>
      <point x="309" y="495" type="curve" smooth="yes"/>
      <point x="142" y="495"/>
      <point x="55" y="394"/>
      <point x="55" y="240" type="curve" smooth="yes"/>
      <point x="55" y="86"/>
      <point x="142" y="-15"/>
      <point x="309" y="-15" type="curve" smooth="yes"/>
    </contour>
    <contour>
      <point x="177" y="31"/>
      <point x="107" y="107"/>
      <point x="107" y="240" type="curve" smooth="yes"/>
      <point x="107" y="373"/>
      <point x="177" y="449"/>
      <point x="309" y="449" type="curve" smooth="yes"/>
      <point x="441" y="449"/>
      <point x="511" y="373"/>
      <point x="511" y="240" type="curve" smooth="yes"/>
      <point x="511" y="107"/>
      <point x="441" y="31"/>
      <point x="309" y="31" type="curve" smooth="yes"/>
    </contour>
    <contour>
      <point x="345" y="575" type="line" smooth="yes"/>
      <point x="355" y="575"/>
      <point x="357" y="581"/>
      <point x="353" y="591" type="curve" smooth="yes"/>
      <point x="302" y="732" type="line" smooth="yes"/>
      <point x="298" y="743"/>
      <point x="294" y="746"/>
      <point x="280" y="746" type="curve" smooth="yes"/>
      <point x="253" y="746" type="line" smooth="yes"/>
      <point x="241" y="746"/>
      <point x="238" y="740"/>
      <point x="243" y="730" type="curve" smooth="yes"/>
      <point x="310" y="586" type="line" smooth="yes"/>
      <point x="314" y="578"/>
      <point x="319" y="575"/>
      <point x="330" y="575" type="curve" smooth="yes"/>
    </contour>
  </outline>
</glyph>
<glyph name="ocircumflex" format="1">
  <advance width="618"/>
  <unicode hex="00F4"/>
  <note>
	ocircumflex
  </note>
  <outline>
    <contour>
      <point x="476" y="-15"/>
      <point x="563" y="86"/>
      <point x="563" y="240" type="curve" smooth="yes"/>
      <point x="563" y="394"/>
      <point x="476" y="495"/>
      <point x="309" y="495" type="curve" smooth="yes"/>
      <point x="142" y="495"/>
      <point x="55" y="394"/>
      <point x="55" y="240" type="curve" smooth="yes"/>
      <point x="55" y="86"/>
      <point x="142" y="-15"/>
      <point x="309" y="-15" type="curve" smooth="yes"/>
    </contour>
    <contour>
      <point x="177" y="31"/>
      <point x="107" y="107"/>
      <point x="107" y="240" type="curve" smooth="yes"/>
      <point x="107" y="373"/>
      <point x="177" y="449"/>
      <point x="309" y="449" type="curve" smooth="yes"/>
      <point x="441" y="449"/>
      <point x="511" y="373"/>
      <point x="511" y="240" type="curve" smooth="yes"/>
      <point x="511" y="107"/>
      <point x="441" y="31"/>
      <point x="309" y="31" type="curve" smooth="yes"/>
    </contour>
    <contour>
      <point x="199" y="538" type="line" smooth="yes"/>
      <point x="215" y="538"/>
      <point x="218" y="545"/>
      <point x="225" y="555" type="curve" smooth="yes"/>
      <point x="309" y="677" type="line"/>
      <point x="393" y="555" type="line" smooth="yes"/>
      <point x="400" y="545"/>
      <point x="403" y="538"/>
      <point x="419" y="538" type="curve" smooth="yes"/>
      <point x="438" y="538" type="line" smooth="yes"/>
      <point x="448" y="538"/>
      <point x="457" y="547"/>
      <point x="450" y="556" type="curve"/>
      <point x="338" y="712" type="line" smooth="yes"/>
      <point x="330" y="723"/>
      <point x="327" y="729"/>
      <point x="315" y="729" type="curve" smooth="yes"/>
      <point x="303" y="729" type="line" smooth="yes"/>
      <point x="291" y="729"/>
      <point x="288" y="723"/>
      <point x="280" y="712" type="curve" smooth="yes"/>
      <point x="168" y="556" type="line"/>
      <point x="161" y="547"/>
      <point x="170" y="538"/>
      <point x="180" y="538" type="curve" smooth="yes"/>
    </contour>
  </outline>
</glyph>
<glyph name="otilde" format="1">
  <advance width="618"/>
  <unicode hex="00F5"/>
  <note>
	otilde
  </note>
  <outline>
    <contour>
      <point x="476" y="-15"/>
      <point x="563" y="86"/>
      <point x="563" y="240" type="curve" smooth="yes"/>
      <point x="563" y="394"/>
      <point x="476" y="495"/>
      <point x="309" y="495" type="curve" smooth="yes"/>
      <point x="142" y="495"/>
      <point x="55" y="394"/>
      <point x="55" y="240" type="curve" smooth="yes"/>
      <point x="55" y="86"/>
      <point x="142" y="-15"/>
      <point x="309" y="-15" type="curve" smooth="yes"/>
    </contour>
    <contour>
      <point x="177" y="31"/>
      <point x="107" y="107"/>
      <point x="107" y="240" type="curve" smooth="yes"/>
      <point x="107" y="373"/>
      <point x="177" y="449"/>
      <point x="309" y="449" type="curve" smooth="yes"/>
      <point x="441" y="449"/>
      <point x="511" y="373"/>
      <point x="511" y="240" type="curve" smooth="yes"/>
      <point x="511" y="107"/>
      <point x="441" y="31"/>
      <point x="309" y="31" type="curve" smooth="yes"/>
    </contour>
    <contour>
      <point x="428" y="562"/>
      <point x="464" y="579"/>
      <point x="489" y="610" type="curve" smooth="yes"/>
      <point x="503" y="627"/>
      <point x="501" y="637"/>
      <point x="492" y="645" type="curve" smooth="yes"/>
      <point x="477" y="659"/>
      <point x="464" y="655"/>
      <point x="451" y="639" type="curve" smooth="yes"/>
      <point x="434" y="619"/>
      <point x="415" y="608"/>
      <point x="383" y="608" type="curve" smooth="yes"/>
      <point x="323" y="608"/>
      <point x="315" y="665"/>
      <point x="234" y="665" type="curve" smooth="yes"/>
      <point x="191" y="665"/>
      <point x="155" y="648"/>
      <point x="130" y="617" type="curve" smooth="yes"/>
      <point x="116" y="600"/>
      <point x="118" y="590"/>
      <point x="127" y="582" type="curve" smooth="yes"/>
      <point x="142" y="568"/>
      <point x="155" y="572"/>
      <point x="168" y="588" type="curve" smooth="yes"/>
      <point x="185" y="608"/>
      <point x="204" y="619"/>
      <point x="236" y="619" type="curve" smooth="yes"/>
      <point x="294" y="619"/>
      <point x="308" y="562"/>
      <point x="385" y="562" type="curve" smooth="yes"/>
    </contour>
  </outline>
</glyph>
<glyph name="odieresis" format="1">
  <advance width="618"/>
  <unicode hex="00F6"/>
  <note>
	odieresis
  </note>
  <outline>
    <contour>
      <point x="476" y="-15"/>
      <point x="563" y="86"/>
      <point x="563" y="240" type="curve" smooth="yes"/>
      <point x="563" y="394"/>
      <point x="476" y="495"/>
      <point x="309" y="495" type="curve" smooth="yes"/>
      <point x="142" y="495"/>
      <point x="55" y="394"/>
      <point x="55" y="240" type="curve" smooth="yes"/>
      <point x="55" y="86"/>
      <point x="142" y="-15"/>
      <point x="309" y="-15" type="curve" smooth="yes"/>
    </contour>
    <contour>
      <point x="177" y="31"/>
      <point x="107" y="107"/>
      <point x="107" y="240" type="curve" smooth="yes"/>
      <point x="107" y="373"/>
      <point x="177" y="449"/>
      <point x="309" y="449" type="curve" smooth="yes"/>
      <point x="441" y="449"/>
      <point x="511" y="373"/>
      <point x="511" y="240" type="curve" smooth="yes"/>
      <point x="511" y="107"/>
      <point x="441" y="31"/>
      <point x="309" y="31" type="curve" smooth="yes"/>
    </contour>
    <contour>
      <point x="226" y="552" type="line" smooth="yes"/>
      <point x="246" y="552"/>
      <point x="259" y="568"/>
      <point x="259" y="587" type="curve" smooth="yes"/>
      <point x="259" y="600" type="line" smooth="yes"/>
      <point x="259" y="619"/>
      <point x="245" y="635"/>
      <point x="226" y="635" type="curve" smooth="yes"/>
      <point x="212" y="635" type="line" smooth="yes"/>
      <point x="193" y="635"/>
      <point x="179" y="619"/>
      <point x="179" y="600" type="curve" smooth="yes"/>
      <point x="179" y="587" type="line" smooth="yes"/>
      <point x="179" y="568"/>
      <point x="193" y="552"/>
      <point x="212" y="552" type="curve" smooth="yes"/>
    </contour>
    <contour>
      <point x="406" y="552" type="line" smooth="yes"/>
      <point x="426" y="552"/>
      <point x="439" y="568"/>
      <point x="439" y="587" type="curve" smooth="yes"/>
      <point x="439" y="600" type="line" smooth="yes"/>
      <point x="439" y="619"/>
      <point x="425" y="635"/>
      <point x="406" y="635" type="curve" smooth="yes"/>
      <point x="392" y="635" type="line" smooth="yes"/>
      <point x="373" y="635"/>
      <point x="359" y="619"/>
      <point x="359" y="600" type="curve" smooth="yes"/>
      <point x="359" y="587" type="line" smooth="yes"/>
      <point x="359" y="568"/>
      <point x="373" y="552"/>
      <point x="392" y="552" type="curve" smooth="yes"/>
    </contour>
  </outline>
</glyph>
<glyph name="divide" format="1">
  <advance width="474"/>
  <unicode hex="00F7"/>
  <note>
	divide
  </note>
  <outline>
    <contour>
      <point x="396" y="270" type="line" smooth="yes"/>
      <point x="411" y="270"/>
      <point x="419" y="274"/>
      <point x="419" y="290" type="curve" smooth="yes"/>
      <point x="419" y="297" type="line" smooth="yes"/>
      <point x="419" y="313"/>
      <point x="411" y="319"/>
      <point x="396" y="319" type="curve" smooth="yes"/>
      <point x="78" y="319" type="line" smooth="yes"/>
      <point x="63" y="319"/>
      <point x="55" y="313"/>
      <point x="55" y="297" type="curve" smooth="yes"/>
      <point x="55" y="290" type="line" smooth="yes"/>
      <point x="55" y="274"/>
      <point x="63" y="270"/>
      <point x="78" y="270" type="curve" smooth="yes"/>
    </contour>
    <contour>
      <point x="244" y="138" type="line" smooth="yes"/>
      <point x="263" y="138"/>
      <point x="275" y="153"/>
      <point x="275" y="171" type="curve" smooth="yes"/>
      <point x="275" y="184" type="line" smooth="yes"/>
      <point x="275" y="202"/>
      <point x="262" y="217"/>
      <point x="244" y="217" type="curve" smooth="yes"/>
      <point x="230" y="217" type="line" smooth="yes"/>
      <point x="212" y="217"/>
      <point x="199" y="202"/>
      <point x="199" y="184" type="curve" smooth="yes"/>
      <point x="199" y="171" type="line" smooth="yes"/>
      <point x="199" y="153"/>
      <point x="212" y="138"/>
      <point x="230" y="138" type="curve" smooth="yes"/>
    </contour>
    <contour>
      <point x="244" y="372" type="line" smooth="yes"/>
      <point x="263" y="372"/>
      <point x="275" y="387"/>
      <point x="275" y="405" type="curve" smooth="yes"/>
      <point x="275" y="418" type="line" smooth="yes"/>
      <point x="275" y="436"/>
      <point x="262" y="451"/>
      <point x="244" y="451" type="curve" smooth="yes"/>
      <point x="230" y="451" type="line" smooth="yes"/>
      <point x="212" y="451"/>
      <point x="199" y="436"/>
      <point x="199" y="418" type="curve" smooth="yes"/>
      <point x="199" y="405" type="line" smooth="yes"/>
      <point x="199" y="387"/>
      <point x="212" y="372"/>
      <point x="230" y="372" type="curve" smooth="yes"/>
    </contour>
  </outline>
</glyph>
<glyph name="ugrave" format="1">
  <advance width="578"/>
  <unicode hex="00F9"/>
  <note>
	ugrave
  </note>
  <outline>
    <contour>
      <point x="353" y="-15"/>
      <point x="411" y="23"/>
      <point x="455" y="76" type="curve"/>
      <point x="455" y="23" type="line" smooth="yes"/>
      <point x="455" y="8"/>
      <point x="458" y="0"/>
      <point x="474" y="0" type="curve" smooth="yes"/>
      <point x="484" y="0" type="line" smooth="yes"/>
      <point x="500" y="0"/>
      <point x="503" y="8"/>
      <point x="503" y="23" type="curve" smooth="yes"/>
      <point x="503" y="457" type="line" smooth="yes"/>
      <point x="503" y="472"/>
      <point x="496" y="480"/>
      <point x="480" y="480" type="curve" smooth="yes"/>
      <point x="472" y="480" type="line" smooth="yes"/>
      <point x="456" y="480"/>
      <point x="449" y="472"/>
      <point x="449" y="457" type="curve" smooth="yes"/>
      <point x="449" y="178" type="line" smooth="yes"/>
      <point x="449" y="91"/>
      <point x="364" y="31"/>
      <point x="267" y="31" type="curve" smooth="yes"/>
      <point x="177" y="31"/>
      <point x="124" y="67"/>
      <point x="124" y="161" type="curve" smooth="yes"/>
      <point x="124" y="457" type="line" smooth="yes"/>
      <point x="124" y="472"/>
      <point x="117" y="480"/>
      <point x="101" y="480" type="curve" smooth="yes"/>
      <point x="93" y="480" type="line" smooth="yes"/>
      <point x="77" y="480"/>
      <point x="70" y="472"/>
      <point x="70" y="457" type="curve" smooth="yes"/>
      <point x="70" y="162" type="line" smooth="yes"/>
      <point x="70" y="44"/>
      <point x="149" y="-15"/>
      <point x="254" y="-15" type="curve" smooth="yes"/>
    </contour>
    <contour>
      <point x="306" y="545" type="line" smooth="yes"/>
      <point x="316" y="545"/>
      <point x="318" y="551"/>
      <point x="314" y="561" type="curve" smooth="yes"/>
      <point x="263" y="702" type="line" smooth="yes"/>
      <point x="259" y="713"/>
      <point x="255" y="716"/>
      <point x="241" y="716" type="curve" smooth="yes"/>
      <point x="214" y="716" type="line" smooth="yes"/>
      <point x="202" y="716"/>
      <point x="199" y="710"/>
      <point x="204" y="700" type="curve" smooth="yes"/>
      <point x="271" y="556" type="line" smooth="yes"/>
      <point x="275" y="548"/>
      <point x="280" y="545"/>
      <point x="291" y="545" type="curve" smooth="yes"/>
    </contour>
  </outline>
</glyph>
<glyph name="ucircumflex" format="1">
  <advance width="578"/>
  <unicode hex="00FB"/>
  <note>
	ucircumflex
  </note>
  <outline>
    <contour>
      <point x="353" y="-15"/>
      <point x="411" y="23"/>
      <point x="455" y="76" type="curve"/>
      <point x="455" y="23" type="line" smooth="yes"/>
      <point x="455" y="8"/>
      <point x="458" y="0"/>
      <point x="474" y="0" type="curve" smooth="yes"/>
      <point x="484" y="0" type="line" smooth="yes"/>
      <point x="500" y="0"/>
      <point x="503" y="8"/>
      <point x="503" y="23" type="curve" smooth="yes"/>
      <point x="503" y="457" type="line" smooth="yes"/>
      <point x="503" y="472"/>
      <point x="496" y="480"/>
      <point x="480" y="480" type="curve" smooth="yes"/>
      <point x="472" y="480" type="line" smooth="yes"/>
      <point x="456" y="480"/>
      <point x="449" y="472"/>
      <point x="449" y="457" type="curve" smooth="yes"/>
      <point x="449" y="178" type="line" smooth="yes"/>
      <point x="449" y="91"/>
      <point x="364" y="31"/>
      <point x="267" y="31" type="curve" smooth="yes"/>
      <point x="177" y="31"/>
      <point x="124" y="67"/>
      <point x="124" y="161" type="curve" smooth="yes"/>
      <point x="124" y="457" type="line" smooth="yes"/>
      <point x="124" y="472"/>
      <point x="117" y="480"/>
      <point x="101" y="480" type="curve" smooth="yes"/>
      <point x="93" y="480" type="line" smooth="yes"/>
      <point x="77" y="480"/>
      <point x="70" y="472"/>
      <point x="70" y="457" type="curve" smooth="yes"/>
      <point x="70" y="162" type="line" smooth="yes"/>
      <point x="70" y="44"/>
      <point x="149" y="-15"/>
      <point x="254" y="-15" type="curve" smooth="yes"/>
    </contour>
    <contour>
      <point x="176" y="538" type="line" smooth="yes"/>
      <point x="192" y="538"/>
      <point x="195" y="545"/>
      <point x="202" y="555" type="curve" smooth="yes"/>
      <point x="286" y="677" type="line"/>
      <point x="370" y="555" type="line" smooth="yes"/>
      <point x="377" y="545"/>
      <point x="380" y="538"/>
      <point x="396" y="538" type="curve" smooth="yes"/>
      <point x="415" y="538" type="line" smooth="yes"/>
      <point x="425" y="538"/>
      <point x="434" y="547"/>
      <point x="427" y="556" type="curve"/>
      <point x="315" y="712" type="line" smooth="yes"/>
      <point x="307" y="723"/>
      <point x="304" y="729"/>
      <point x="292" y="729" type="curve" smooth="yes"/>
      <point x="280" y="729" type="line" smooth="yes"/>
      <point x="268" y="729"/>
      <point x="265" y="723"/>
      <point x="257" y="712" type="curve" smooth="yes"/>
      <point x="145" y="556" type="line"/>
      <point x="138" y="547"/>
      <point x="147" y="538"/>
      <point x="157" y="538" type="curve" smooth="yes"/>
    </contour>
  </outline>
</glyph>
<glyph name="udieresis" format="1">
  <advance width="578"/>
  <unicode hex="00FC"/>
  <note>
	udieresis
  </note>
  <outline>
    <contour>
      <point x="353" y="-15"/>
      <point x="411" y="23"/>
      <point x="455" y="76" type="curve"/>
      <point x="455" y="23" type="line" smooth="yes"/>
      <point x="455" y="8"/>
      <point x="458" y="0"/>
      <point x="474" y="0" type="curve" smooth="yes"/>
      <point x="484" y="0" type="line" smooth="yes"/>
      <point x="500" y="0"/>
      <point x="503" y="8"/>
      <point x="503" y="23" type="curve" smooth="yes"/>
      <point x="503" y="457" type="line" smooth="yes"/>
      <point x="503" y="472"/>
      <point x="496" y="480"/>
      <point x="480" y="480" type="curve" smooth="yes"/>
      <point x="472" y="480" type="line" smooth="yes"/>
      <point x="456" y="480"/>
      <point x="449" y="472"/>
      <point x="449" y="457" type="curve" smooth="yes"/>
      <point x="449" y="178" type="line" smooth="yes"/>
      <point x="449" y="91"/>
      <point x="364" y="31"/>
      <point x="267" y="31" type="curve" smooth="yes"/>
      <point x="177" y="31"/>
      <point x="124" y="67"/>
      <point x="124" y="161" type="curve" smooth="yes"/>
      <point x="124" y="457" type="line" smooth="yes"/>
      <point x="124" y="472"/>
      <point x="117" y="480"/>
      <point x="101" y="480" type="curve" smooth="yes"/>
      <point x="93" y="480" type="line" smooth="yes"/>
      <point x="77" y="480"/>
      <point x="70" y="472"/>
      <point x="70" y="457" type="curve" smooth="yes"/>
      <point x="70" y="162" type="line" smooth="yes"/>
      <point x="70" y="44"/>
      <point x="149" y="-15"/>
      <point x="254" y="-15" type="curve" smooth="yes"/>
    </contour>
    <contour>
      <point x="202" y="562" type="line" smooth="yes"/>
      <point x="222" y="562"/>
      <point x="235" y="578"/>
      <point x="235" y="597" type="curve" smooth="yes"/>
      <point x="235" y="610" type="line" smooth="yes"/>
      <point x="235" y="629"/>
      <point x="221" y="645"/>
      <point x="202" y="645" type="curve" smooth="yes"/>
      <point x="188" y="645" type="line" smooth="yes"/>
      <point x="169" y="645"/>
      <point x="155" y="629"/>
      <point x="155" y="610" type="curve" smooth="yes"/>
      <point x="155" y="597" type="line" smooth="yes"/>
      <point x="155" y="578"/>
      <point x="169" y="562"/>
      <point x="188" y="562" type="curve" smooth="yes"/>
    </contour>
    <contour>
      <point x="382" y="562" type="line" smooth="yes"/>
      <point x="402" y="562"/>
      <point x="415" y="578"/>
      <point x="415" y="597" type="curve" smooth="yes"/>
      <point x="415" y="610" type="line" smooth="yes"/>
      <point x="415" y="629"/>
      <point x="401" y="645"/>
      <point x="382" y="645" type="curve" smooth="yes"/>
      <point x="368" y="645" type="line" smooth="yes"/>
      <point x="349" y="645"/>
      <point x="335" y="629"/>
      <point x="335" y="610" type="curve" smooth="yes"/>
      <point x="335" y="597" type="line" smooth="yes"/>
      <point x="335" y="578"/>
      <point x="349" y="562"/>
      <point x="368" y="562" type="curve" smooth="yes"/>
    </contour>
  </outline>
</glyph>
<glyph name="Abreve" format="1">
  <advance width="720"/>
  <unicode hex="0102"/>
  <note>
	Abreve
  </note>
  <outline>
    <contour>
      <point x="88" y="0" type="line" smooth="yes"/>
      <point x="104" y="0"/>
      <point x="108" y="6"/>
      <point x="113" y="17" type="curve" smooth="yes"/>
      <point x="189" y="197" type="line"/>
      <point x="531" y="197" type="line"/>
      <point x="607" y="17" type="line" smooth="yes"/>
      <point x="612" y="6"/>
      <point x="616" y="0"/>
      <point x="632" y="0" type="curve" smooth="yes"/>
      <point x="651" y="0" type="line" smooth="yes"/>
      <point x="661" y="0"/>
      <point x="667" y="8"/>
      <point x="663" y="18" type="curve" smooth="yes"/>
      <point x="389" y="663" type="line" smooth="yes"/>
      <point x="384" y="676"/>
      <point x="381" y="680"/>
      <point x="369" y="680" type="curve" smooth="yes"/>
      <point x="351" y="680" type="line" smooth="yes"/>
      <point x="339" y="680"/>
      <point x="336" y="676"/>
      <point x="331" y="663" type="curve" smooth="yes"/>
      <point x="57" y="18" type="line" smooth="yes"/>
      <point x="53" y="8"/>
      <point x="59" y="0"/>
      <point x="69" y="0" type="curve" smooth="yes"/>
    </contour>
    <contour>
      <point x="360" y="601" type="line"/>
      <point x="510" y="246" type="line"/>
      <point x="209" y="246" type="line"/>
    </contour>
    <contour>
      <point x="457" y="758"/>
      <point x="501" y="821"/>
      <point x="501" y="911" type="curve" smooth="yes"/>
      <point x="501" y="922"/>
      <point x="495" y="929"/>
      <point x="485" y="929" type="curve" smooth="yes"/>
      <point x="461" y="929" type="line" smooth="yes"/>
      <point x="447" y="929"/>
      <point x="444" y="922"/>
      <point x="444" y="910" type="curve" smooth="yes"/>
      <point x="444" y="853"/>
      <point x="430" y="809"/>
      <point x="360" y="809" type="curve" smooth="yes"/>
      <point x="290" y="809"/>
      <point x="276" y="853"/>
      <point x="276" y="910" type="curve" smooth="yes"/>
      <point x="276" y="922"/>
      <point x="273" y="929"/>
      <point x="259" y="929" type="curve" smooth="yes"/>
      <point x="235" y="929" type="line" smooth="yes"/>
      <point x="225" y="929"/>
      <point x="219" y="922"/>
      <point x="219" y="911" type="curve" smooth="yes"/>
      <point x="219" y="821"/>
      <point x="263" y="758"/>
      <point x="360" y="758" type="curve" smooth="yes"/>
    </contour>
  </outline>
</glyph>
<glyph name="aogonek" format="1">
  <advance width="612"/>
  <unicode hex="0105"/>
  <note>
	aogonek
  </note>
  <outline>
    <contour>
      <point x="364" y="-15"/>
      <point x="435" y="10"/>
      <point x="483" y="71" type="curve"/>
      <point x="486" y="23" type="line" smooth="yes"/>
      <point x="487" y="8"/>
      <point x="491" y="0"/>
      <point x="507" y="0" type="curve" smooth="yes"/>
      <point x="514" y="0" type="line" smooth="yes"/>
      <point x="530" y="0"/>
      <point x="537" y="8"/>
      <point x="537" y="23" type="curve" smooth="yes"/>
      <point x="537" y="439" type="line"/>
      <point x="493" y="469"/>
      <point x="417" y="495"/>
      <point x="340" y="495" type="curve" smooth="yes"/>
      <point x="158" y="495"/>
      <point x="55" y="379"/>
      <point x="55" y="208" type="curve" smooth="yes"/>
      <point x="55" y="63"/>
      <point x="143" y="-15"/>
      <point x="277" y="-15" type="curve" smooth="yes"/>
    </contour>
    <contour>
      <point x="501" y="-187"/>
      <point x="521" y="-185"/>
      <point x="532" y="-179" type="curve"/>
      <point x="544" y="-173"/>
      <point x="545" y="-169"/>
      <point x="542" y="-162" type="curve" smooth="yes"/>
      <point x="532" y="-140" type="line" smooth="yes"/>
      <point x="528" y="-131"/>
      <point x="525" y="-132"/>
      <point x="518" y="-135" type="curve"/>
      <point x="512" y="-138"/>
      <point x="505" y="-139"/>
      <point x="496" y="-139" type="curve" smooth="yes"/>
      <point x="481" y="-139"/>
      <point x="472" y="-129"/>
      <point x="472" y="-112" type="curve" smooth="yes"/>
      <point x="472" y="-83"/>
      <point x="483" y="-56"/>
      <point x="529" y="0" type="curve" smooth="yes"/>
      <point x="536" y="8"/>
      <point x="531" y="16"/>
      <point x="519" y="16" type="curve" smooth="yes"/>
      <point x="498" y="16" type="line" smooth="yes"/>
      <point x="485" y="16"/>
      <point x="481" y="12"/>
      <point x="473" y="3" type="curve" smooth="yes"/>
      <point x="429" y="-47"/>
      <point x="412" y="-84"/>
      <point x="412" y="-120" type="curve" smooth="yes"/>
      <point x="412" y="-156"/>
      <point x="436" y="-187"/>
      <point x="485" y="-187" type="curve" smooth="yes"/>
    </contour>
    <contour>
      <point x="169" y="31"/>
      <point x="107" y="88"/>
      <point x="107" y="214" type="curve" smooth="yes"/>
      <point x="107" y="362"/>
      <point x="196" y="449"/>
      <point x="340" y="449" type="curve" smooth="yes"/>
      <point x="395" y="449"/>
      <point x="449" y="435"/>
      <point x="483" y="415" type="curve"/>
      <point x="483" y="184" type="line" smooth="yes"/>
      <point x="483" y="88"/>
      <point x="386" y="31"/>
      <point x="297" y="31" type="curve" smooth="yes"/>
    </contour>
  </outline>
</glyph>
<glyph name="cacute" format="1">
  <advance width="569"/>
  <unicode hex="0107"/>
  <note>
	cacute
  </note>
  <outline>
    <contour>
      <point x="399" y="-15"/>
      <point x="457" y="2"/>
      <point x="506" y="34" type="curve" smooth="yes"/>
      <point x="514" y="39"/>
      <point x="515" y="43"/>
      <point x="511" y="50" type="curve" smooth="yes"/>
      <point x="498" y="72" type="line" smooth="yes"/>
      <point x="494" y="79"/>
      <point x="491" y="80"/>
      <point x="484" y="75" type="curve" smooth="yes"/>
      <point x="446" y="48"/>
      <point x="397" y="31"/>
      <point x="328" y="31" type="curve" smooth="yes"/>
      <point x="190" y="31"/>
      <point x="107" y="96"/>
      <point x="107" y="237" type="curve" smooth="yes"/>
      <point x="107" y="367"/>
      <point x="187" y="449"/>
      <point x="317" y="449" type="curve" smooth="yes"/>
      <point x="393" y="449"/>
      <point x="439" y="433"/>
      <point x="477" y="406" type="curve"/>
      <point x="485" y="401"/>
      <point x="487" y="402"/>
      <point x="491" y="409" type="curve" smooth="yes"/>
      <point x="504" y="431" type="line" smooth="yes"/>
      <point x="509" y="439"/>
      <point x="506" y="442"/>
      <point x="499" y="447" type="curve" smooth="yes"/>
      <point x="448" y="483"/>
      <point x="390" y="495"/>
      <point x="313" y="495" type="curve" smooth="yes"/>
      <point x="159" y="495"/>
      <point x="55" y="389"/>
      <point x="55" y="237" type="curve" smooth="yes"/>
      <point x="55" y="73"/>
      <point x="158" y="-15"/>
      <point x="325" y="-15" type="curve" smooth="yes"/>
    </contour>
    <contour>
      <point x="292" y="545" type="line" smooth="yes"/>
      <point x="303" y="545"/>
      <point x="308" y="548"/>
      <point x="312" y="556" type="curve" smooth="yes"/>
      <point x="379" y="700" type="line" smooth="yes"/>
      <point x="384" y="710"/>
      <point x="381" y="716"/>
      <point x="369" y="716" type="curve" smooth="yes"/>
      <point x="342" y="716" type="line" smooth="yes"/>
      <point x="328" y="716"/>
      <point x="324" y="713"/>
      <point x="320" y="702" type="curve" smooth="yes"/>
      <point x="269" y="561" type="line" smooth="yes"/>
      <point x="265" y="551"/>
      <point x="267" y="545"/>
      <point x="277" y="545" type="curve" smooth="yes"/>
    </contour>
  </outline>
</glyph>
<glyph name="Cdotaccent" format="1">
  <advance width="675"/>
  <unicode hex="010A"/>
  <note>
	Cdotaccent
  </note>
  <outline>
    <contour>
      <point x="487" y="-15"/>
      <point x="557" y="0"/>
      <point x="612" y="35" type="curve" smooth="yes"/>
      <point x="620" y="40"/>
      <point x="621" y="44"/>
      <point x="617" y="51" type="curve" smooth="yes"/>
      <point x="604" y="73" type="line" smooth="yes"/>
      <point x="600" y="80"/>
      <point x="597" y="81"/>
      <point x="590" y="76" type="curve"/>
      <point x="541" y="45"/>
      <point x="480" y="31"/>
      <point x="394" y="31" type="curve" smooth="yes"/>
      <point x="230" y="31"/>
      <point x="107" y="122"/>
      <point x="107" y="340" type="curve" smooth="yes"/>
      <point x="107" y="558"/>
      <point x="225" y="649"/>
      <point x="394" y="649" type="curve" smooth="yes"/>
      <point x="474" y="649"/>
      <point x="538" y="631"/>
      <point x="576" y="606" type="curve" smooth="yes"/>
      <point x="584" y="601"/>
      <point x="586" y="602"/>
      <point x="590" y="609" type="curve" smooth="yes"/>
      <point x="603" y="631" type="line" smooth="yes"/>
      <point x="608" y="639"/>
      <point x="605" y="642"/>
      <point x="598" y="647" type="curve"/>
      <point x="547" y="680"/>
      <point x="470" y="695"/>
      <point x="393" y="695" type="curve" smooth="yes"/>
      <point x="176" y="695"/>
      <point x="55" y="562"/>
      <point x="55" y="340" type="curve" smooth="yes"/>
      <point x="55" y="118"/>
      <point x="176" y="-15"/>
      <point x="393" y="-15" type="curve" smooth="yes"/>
    </contour>
    <contour>
      <point x="406" y="792" type="line" smooth="yes"/>
      <point x="426" y="792"/>
      <point x="439" y="808"/>
      <point x="439" y="827" type="curve" smooth="yes"/>
      <point x="439" y="840" type="line" smooth="yes"/>
      <point x="439" y="859"/>
      <point x="425" y="875"/>
      <point x="406" y="875" type="curve" smooth="yes"/>
      <point x="392" y="875" type="line" smooth="yes"/>
      <point x="373" y="875"/>
      <point x="359" y="859"/>
      <point x="359" y="840" type="curve" smooth="yes"/>
      <point x="359" y="827" type="line" smooth="yes"/>
      <point x="359" y="808"/>
      <point x="373" y="792"/>
      <point x="392" y="792" type="curve" smooth="yes"/>
    </contour>
  </outline>
</glyph>
<glyph name="cdotaccent" format="1">
  <advance width="569"/>
  <unicode hex="010B"/>
  <note>
	cdotaccent
  </note>
  <outline>
    <contour>
      <point x="399" y="-15"/>
      <point x="457" y="2"/>
      <point x="506" y="34" type="curve" smooth="yes"/>
      <point x="514" y="39"/>
      <point x="515" y="43"/>
      <point x="511" y="50" type="curve" smooth="yes"/>
      <point x="498" y="72" type="line" smooth="yes"/>
      <point x="494" y="79"/>
      <point x="491" y="80"/>
      <point x="484" y="75" type="curve" smooth="yes"/>
      <point x="446" y="48"/>
      <point x="397" y="31"/>
      <point x="328" y="31" type="curve" smooth="yes"/>
      <point x="190" y="31"/>
      <point x="107" y="96"/>
      <point x="107" y="237" type="curve" smooth="yes"/>
      <point x="107" y="367"/>
      <point x="187" y="449"/>
      <point x="317" y="449" type="curve" smooth="yes"/>
      <point x="393" y="449"/>
      <point x="439" y="433"/>
      <point x="477" y="406" type="curve"/>
      <point x="485" y="401"/>
      <point x="487" y="402"/>
      <point x="491" y="409" type="curve" smooth="yes"/>
      <point x="504" y="431" type="line" smooth="yes"/>
      <point x="509" y="439"/>
      <point x="506" y="442"/>
      <point x="499" y="447" type="curve" smooth="yes"/>
      <point x="448" y="483"/>
      <point x="390" y="495"/>
      <point x="313" y="495" type="curve" smooth="yes"/>
      <point x="159" y="495"/>
      <point x="55" y="389"/>
      <point x="55" y="237" type="curve" smooth="yes"/>
      <point x="55" y="73"/>
      <point x="158" y="-15"/>
      <point x="325" y="-15" type="curve" smooth="yes"/>
    </contour>
    <contour>
      <point x="329" y="562" type="line" smooth="yes"/>
      <point x="349" y="562"/>
      <point x="362" y="578"/>
      <point x="362" y="597" type="curve" smooth="yes"/>
      <point x="362" y="610" type="line" smooth="yes"/>
      <point x="362" y="629"/>
      <point x="348" y="645"/>
      <point x="329" y="645" type="curve" smooth="yes"/>
      <point x="315" y="645" type="line" smooth="yes"/>
      <point x="296" y="645"/>
      <point x="282" y="629"/>
      <point x="282" y="610" type="curve" smooth="yes"/>
      <point x="282" y="597" type="line" smooth="yes"/>
      <point x="282" y="578"/>
      <point x="296" y="562"/>
      <point x="315" y="562" type="curve" smooth="yes"/>
    </contour>
  </outline>
</glyph>
<glyph name="ccaron" format="1">
  <advance width="569"/>
  <unicode hex="010D"/>
  <note>
	ccaron
  </note>
  <outline>
    <contour>
      <point x="399" y="-15"/>
      <point x="457" y="2"/>
      <point x="506" y="34" type="curve" smooth="yes"/>
      <point x="514" y="39"/>
      <point x="515" y="43"/>
      <point x="511" y="50" type="curve" smooth="yes"/>
      <point x="498" y="72" type="line" smooth="yes"/>
      <point x="494" y="79"/>
      <point x="491" y="80"/>
      <point x="484" y="75" type="curve" smooth="yes"/>
      <point x="446" y="48"/>
      <point x="397" y="31"/>
      <point x="328" y="31" type="curve" smooth="yes"/>
      <point x="190" y="31"/>
      <point x="107" y="96"/>
      <point x="107" y="237" type="curve" smooth="yes"/>
      <point x="107" y="367"/>
      <point x="187" y="449"/>
      <point x="317" y="449" type="curve" smooth="yes"/>
      <point x="393" y="449"/>
      <point x="439" y="433"/>
      <point x="477" y="406" type="curve"/>
      <point x="485" y="401"/>
      <point x="487" y="402"/>
      <point x="491" y="409" type="curve" smooth="yes"/>
      <point x="504" y="431" type="line" smooth="yes"/>
      <point x="509" y="439"/>
      <point x="506" y="442"/>
      <point x="499" y="447" type="curve" smooth="yes"/>
      <point x="448" y="483"/>
      <point x="390" y="495"/>
      <point x="313" y="495" type="curve" smooth="yes"/>
      <point x="159" y="495"/>
      <point x="55" y="389"/>
      <point x="55" y="237" type="curve" smooth="yes"/>
      <point x="55" y="73"/>
      <point x="158" y="-15"/>
      <point x="325" y="-15" type="curve" smooth="yes"/>
    </contour>
    <contour>
      <point x="324" y="548" type="line" smooth="yes"/>
      <point x="336" y="548"/>
      <point x="339" y="554"/>
      <point x="347" y="565" type="curve" smooth="yes"/>
      <point x="459" y="721" type="line"/>
      <point x="466" y="730"/>
      <point x="457" y="739"/>
      <point x="447" y="739" type="curve" smooth="yes"/>
      <point x="428" y="739" type="line" smooth="yes"/>
      <point x="412" y="739"/>
      <point x="409" y="732"/>
      <point x="402" y="722" type="curve" smooth="yes"/>
      <point x="318" y="600" type="line"/>
      <point x="234" y="722" type="line" smooth="yes"/>
      <point x="227" y="732"/>
      <point x="224" y="739"/>
      <point x="208" y="739" type="curve" smooth="yes"/>
      <point x="189" y="739" type="line" smooth="yes"/>
      <point x="179" y="739"/>
      <point x="170" y="730"/>
      <point x="177" y="721" type="curve"/>
      <point x="289" y="565" type="line" smooth="yes"/>
      <point x="297" y="554"/>
      <point x="300" y="548"/>
      <point x="312" y="548" type="curve" smooth="yes"/>
    </contour>
  </outline>
</glyph>
<glyph name="Dcroat" format="1">
  <advance width="717"/>
  <unicode hex="0110"/>
  <note>
	Dcroat
  </note>
  <outline>
    <contour>
      <point x="318" y="0" type="line" smooth="yes"/>
      <point x="525" y="0"/>
      <point x="662" y="87"/>
      <point x="662" y="340" type="curve" smooth="yes"/>
      <point x="662" y="593"/>
      <point x="525" y="680"/>
      <point x="318" y="680" type="curve" smooth="yes"/>
      <point x="138" y="680" type="line" smooth="yes"/>
      <point x="122" y="680"/>
      <point x="115" y="672"/>
      <point x="115" y="657" type="curve" smooth="yes"/>
      <point x="115" y="365" type="line"/>
      <point x="48" y="365" type="line" smooth="yes"/>
      <point x="33" y="365"/>
      <point x="25" y="359"/>
      <point x="25" y="343" type="curve" smooth="yes"/>
      <point x="25" y="336" type="line" smooth="yes"/>
      <point x="25" y="320"/>
      <point x="33" y="316"/>
      <point x="48" y="316" type="curve" smooth="yes"/>
      <point x="115" y="316" type="line"/>
      <point x="115" y="23" type="line" smooth="yes"/>
      <point x="115" y="8"/>
      <point x="122" y="0"/>
      <point x="138" y="0" type="curve" smooth="yes"/>
    </contour>
    <contour>
      <point x="169" y="316" type="line"/>
      <point x="366" y="316" type="line" smooth="yes"/>
      <point x="381" y="316"/>
      <point x="389" y="320"/>
      <point x="389" y="336" type="curve" smooth="yes"/>
      <point x="389" y="343" type="line" smooth="yes"/>
      <point x="389" y="359"/>
      <point x="381" y="365"/>
      <point x="366" y="365" type="curve" smooth="yes"/>
      <point x="169" y="365" type="line"/>
      <point x="169" y="631" type="line"/>
      <point x="324" y="631" type="line" smooth="yes"/>
      <point x="499" y="631"/>
      <point x="610" y="561"/>
      <point x="610" y="340" type="curve" smooth="yes"/>
      <point x="610" y="119"/>
      <point x="499" y="49"/>
      <point x="324" y="49" type="curve" smooth="yes"/>
      <point x="169" y="49" type="line"/>
    </contour>
  </outline>
</glyph>
<glyph name="Ebreve" format="1">
  <advance width="582"/>
  <unicode hex="0114"/>
  <note>
	Ebreve
  </note>
  <outline>
    <contour>
      <point x="514" y="0" type="line" smooth="yes"/>
      <point x="529" y="0"/>
      <point x="537" y="4"/>
      <point x="537" y="20" type="curve" smooth="yes"/>
      <point x="537" y="27" type="line" smooth="yes"/>
      <point x="537" y="43"/>
      <point x="529" y="49"/>
      <point x="514" y="49" type="curve" smooth="yes"/>
      <point x="129" y="49" type="line"/>
      <point x="129" y="316" type="line"/>
      <point x="427" y="316" type="line" smooth="yes"/>
      <point x="442" y="316"/>
      <point x="450" y="322"/>
      <point x="450" y="338" type="curve" smooth="yes"/>
      <point x="450" y="345" type="line" smooth="yes"/>
      <point x="450" y="361"/>
      <point x="442" y="365"/>
      <point x="427" y="365" type="curve" smooth="yes"/>
      <point x="129" y="365" type="line"/>
      <point x="129" y="631" type="line"/>
      <point x="514" y="631" type="line" smooth="yes"/>
      <point x="529" y="631"/>
      <point x="537" y="637"/>
      <point x="537" y="653" type="curve" smooth="yes"/>
      <point x="537" y="660" type="line" smooth="yes"/>
      <point x="537" y="676"/>
      <point x="529" y="680"/>
      <point x="514" y="680" type="curve" smooth="yes"/>
      <point x="98" y="680" type="line" smooth="yes"/>
      <point x="82" y="680"/>
      <point x="75" y="672"/>
      <point x="75" y="657" type="curve" smooth="yes"/>
      <point x="75" y="23" type="line" smooth="yes"/>
      <point x="75" y="8"/>
      <point x="82" y="0"/>
      <point x="98" y="0" type="curve" smooth="yes"/>
    </contour>
    <contour>
      <point x="403" y="758"/>
      <point x="447" y="821"/>
      <point x="447" y="911" type="curve" smooth="yes"/>
      <point x="447" y="922"/>
      <point x="441" y="929"/>
      <point x="431" y="929" type="curve" smooth="yes"/>
      <point x="407" y="929" type="line" smooth="yes"/>
      <point x="393" y="929"/>
      <point x="390" y="922"/>
      <point x="390" y="910" type="curve" smooth="yes"/>
      <point x="390" y="853"/>
      <point x="376" y="809"/>
      <point x="306" y="809" type="curve" smooth="yes"/>
      <point x="236" y="809"/>
      <point x="222" y="853"/>
      <point x="222" y="910" type="curve" smooth="yes"/>
      <point x="222" y="922"/>
      <point x="219" y="929"/>
      <point x="205" y="929" type="curve" smooth="yes"/>
      <point x="181" y="929" type="line" smooth="yes"/>
      <point x="171" y="929"/>
      <point x="165" y="922"/>
      <point x="165" y="911" type="curve" smooth="yes"/>
      <point x="165" y="821"/>
      <point x="209" y="758"/>
      <point x="306" y="758" type="curve" smooth="yes"/>
    </contour>
  </outline>
</glyph>
<glyph name="Ecaron" format="1">
  <advance width="582"/>
  <unicode hex="011A"/>
  <note>
	Ecaron
  </note>
  <outline>
    <contour>
      <point x="514" y="0" type="line" smooth="yes"/>
      <point x="529" y="0"/>
      <point x="537" y="4"/>
      <point x="537" y="20" type="curve" smooth="yes"/>
      <point x="537" y="27" type="line" smooth="yes"/>
      <point x="537" y="43"/>
      <point x="529" y="49"/>
      <point x="514" y="49" type="curve" smooth="yes"/>
      <point x="129" y="49" type="line"/>
      <point x="129" y="316" type="line"/>
      <point x="427" y="316" type="line" smooth="yes"/>
      <point x="442" y="316"/>
      <point x="450" y="322"/>
      <point x="450" y="338" type="curve" smooth="yes"/>
      <point x="450" y="345" type="line" smooth="yes"/>
      <point x="450" y="361"/>
      <point x="442" y="365"/>
      <point x="427" y="365" type="curve" smooth="yes"/>
      <point x="129" y="365" type="line"/>
      <point x="129" y="631" type="line"/>
      <point x="514" y="631" type="line" smooth="yes"/>
      <point x="529" y="631"/>
      <point x="537" y="637"/>
      <point x="537" y="653" type="curve" smooth="yes"/>
      <point x="537" y="660" type="line" smooth="yes"/>
      <point x="537" y="676"/>
      <point x="529" y="680"/>
      <point x="514" y="680" type="curve" smooth="yes"/>
      <point x="98" y="680" type="line" smooth="yes"/>
      <point x="82" y="680"/>
      <point x="75" y="672"/>
      <point x="75" y="657" type="curve" smooth="yes"/>
      <point x="75" y="23" type="line" smooth="yes"/>
      <point x="75" y="8"/>
      <point x="82" y="0"/>
      <point x="98" y="0" type="curve" smooth="yes"/>
    </contour>
    <contour>
      <point x="318" y="758" type="line" smooth="yes"/>
      <point x="330" y="758"/>
      <point x="333" y="764"/>
      <point x="341" y="775" type="curve" smooth="yes"/>
      <point x="453" y="931" type="line"/>
      <point x="460" y="940"/>
      <point x="451" y="949"/>
      <point x="441" y="949" type="curve" smooth="yes"/>
      <point x="422" y="949" type="line" smooth="yes"/>
      <point x="406" y="949"/>
      <point x="403" y="942"/>
      <point x="396" y="932" type="curve" smooth="yes"/>
      <point x="312" y="810" type="line"/>
      <point x="228" y="932" type="line" smooth="yes"/>
      <point x="221" y="942"/>
      <point x="218" y="949"/>
      <point x="202" y="949" type="curve" smooth="yes"/>
      <point x="183" y="949" type="line" smooth="yes"/>
      <point x="173" y="949"/>
      <point x="164" y="940"/>
      <point x="171" y="931" type="curve"/>
      <point x="283" y="775" type="line" smooth="yes"/>
      <point x="291" y="764"/>
      <point x="294" y="758"/>
      <point x="306" y="758" type="curve" smooth="yes"/>
    </contour>
  </outline>
</glyph>
<glyph name="gcircumflex" format="1">
  <advance width="612"/>
  <unicode hex="011D"/>
  <note>
	gcircumflex
  </note>
  <outline>
    <contour>
      <point x="477" y="-170"/>
      <point x="537" y="-82"/>
      <point x="537" y="71" type="curve" smooth="yes"/>
      <point x="537" y="444" type="line"/>
      <point x="494" y="472"/>
      <point x="411" y="495"/>
      <point x="334" y="495" type="curve" smooth="yes"/>
      <point x="157" y="495"/>
      <point x="55" y="392"/>
      <point x="55" y="221" type="curve" smooth="yes"/>
      <point x="55" y="71"/>
      <point x="148" y="-15"/>
      <point x="286" y="-15" type="curve" smooth="yes"/>
      <point x="373" y="-15"/>
      <point x="435" y="10"/>
      <point x="483" y="71" type="curve"/>
      <point x="483" y="-75"/>
      <point x="432" y="-124"/>
      <point x="320" y="-124" type="curve" smooth="yes"/>
      <point x="255" y="-124"/>
      <point x="196" y="-109"/>
      <point x="158" y="-88" type="curve"/>
      <point x="150" y="-83"/>
      <point x="148" y="-84"/>
      <point x="144" y="-91" type="curve" smooth="yes"/>
      <point x="129" y="-117" type="line"/>
      <point x="124" y="-125"/>
      <point x="128" y="-130"/>
      <point x="134" y="-133" type="curve" smooth="yes"/>
      <point x="186" y="-158"/>
      <point x="252" y="-170"/>
      <point x="323" y="-170" type="curve" smooth="yes"/>
    </contour>
    <contour>
      <point x="172" y="32"/>
      <point x="107" y="97"/>
      <point x="107" y="227" type="curve" smooth="yes"/>
      <point x="107" y="375"/>
      <point x="192" y="449"/>
      <point x="334" y="449" type="curve" smooth="yes"/>
      <point x="393" y="449"/>
      <point x="450" y="437"/>
      <point x="483" y="420" type="curve"/>
      <point x="483" y="184" type="line" smooth="yes"/>
      <point x="483" y="88"/>
      <point x="392" y="32"/>
      <point x="303" y="32" type="curve" smooth="yes"/>
    </contour>
    <contour>
      <point x="209" y="538" type="line" smooth="yes"/>
      <point x="225" y="538"/>
      <point x="228" y="545"/>
      <point x="235" y="555" type="curve" smooth="yes"/>
      <point x="319" y="677" type="line"/>
      <point x="403" y="555" type="line" smooth="yes"/>
      <point x="410" y="545"/>
      <point x="413" y="538"/>
      <point x="429" y="538" type="curve" smooth="yes"/>
      <point x="448" y="538" type="line" smooth="yes"/>
      <point x="458" y="538"/>
      <point x="467" y="547"/>
      <point x="460" y="556" type="curve"/>
      <point x="348" y="712" type="line" smooth="yes"/>
      <point x="340" y="723"/>
      <point x="337" y="729"/>
      <point x="325" y="729" type="curve" smooth="yes"/>
      <point x="313" y="729" type="line" smooth="yes"/>
      <point x="301" y="729"/>
      <point x="298" y="723"/>
      <point x="290" y="712" type="curve" smooth="yes"/>
      <point x="178" y="556" type="line"/>
      <point x="171" y="547"/>
      <point x="180" y="538"/>
      <point x="190" y="538" type="curve" smooth="yes"/>
    </contour>
  </outline>
</glyph>
<glyph name="gbreve" format="1">
  <advance width="612"/>
  <unicode hex="011F"/>
  <note>
	gbreve
  </note>
  <outline>
    <contour>
      <point x="477" y="-170"/>
      <point x="537" y="-82"/>
      <point x="537" y="71" type="curve" smooth="yes"/>
      <point x="537" y="444" type="line"/>
      <point x="494" y="472"/>
      <point x="411" y="495"/>
      <point x="334" y="495" type="curve" smooth="yes"/>
      <point x="157" y="495"/>
      <point x="55" y="392"/>
      <point x="55" y="221" type="curve" smooth="yes"/>
      <point x="55" y="71"/>
      <point x="148" y="-15"/>
      <point x="286" y="-15" type="curve" smooth="yes"/>
      <point x="373" y="-15"/>
      <point x="435" y="10"/>
      <point x="483" y="71" type="curve"/>
      <point x="483" y="-75"/>
      <point x="432" y="-124"/>
      <point x="320" y="-124" type="curve" smooth="yes"/>
      <point x="255" y="-124"/>
      <point x="196" y="-109"/>
      <point x="158" y="-88" type="curve"/>
      <point x="150" y="-83"/>
      <point x="148" y="-84"/>
      <point x="144" y="-91" type="curve" smooth="yes"/>
      <point x="129" y="-117" type="line"/>
      <point x="124" y="-125"/>
      <point x="128" y="-130"/>
      <point x="134" y="-133" type="curve" smooth="yes"/>
      <point x="186" y="-158"/>
      <point x="252" y="-170"/>
      <point x="323" y="-170" type="curve" smooth="yes"/>
    </contour>
    <contour>
      <point x="172" y="32"/>
      <point x="107" y="97"/>
      <point x="107" y="227" type="curve" smooth="yes"/>
      <point x="107" y="375"/>
      <point x="192" y="449"/>
      <point x="334" y="449" type="curve" smooth="yes"/>
      <point x="393" y="449"/>
      <point x="450" y="437"/>
      <point x="483" y="420" type="curve"/>
      <point x="483" y="184" type="line" smooth="yes"/>
      <point x="483" y="88"/>
      <point x="392" y="32"/>
      <point x="303" y="32" type="curve" smooth="yes"/>
    </contour>
    <contour>
      <point x="422" y="538"/>
      <point x="466" y="601"/>
      <point x="466" y="691" type="curve" smooth="yes"/>
      <point x="466" y="702"/>
      <point x="460" y="709"/>
      <point x="450" y="709" type="curve" smooth="yes"/>
      <point x="426" y="709" type="line" smooth="yes"/>
      <point x="412" y="709"/>
      <point x="409" y="702"/>
      <point x="409" y="690" type="curve" smooth="yes"/>
      <point x="409" y="633"/>
      <point x="395" y="589"/>
      <point x="325" y="589" type="curve" smooth="yes"/>
      <point x="255" y="589"/>
      <point x="241" y="633"/>
      <point x="241" y="690" type="curve" smooth="yes"/>
      <point x="241" y="702"/>
      <point x="238" y="709"/>
      <point x="224" y="709" type="curve" smooth="yes"/>
      <point x="200" y="709" type="line" smooth="yes"/>
      <point x="190" y="709"/>
      <point x="184" y="702"/>
      <point x="184" y="691" type="curve" smooth="yes"/>
      <point x="184" y="601"/>
      <point x="228" y="538"/>
      <point x="325" y="538" type="curve" smooth="yes"/>
    </contour>
  </outline>
</glyph>
<glyph name="Gcommaaccent" format="1">
  <advance width="696"/>
  <unicode hex="0122"/>
  <note>
	Gcommaaccent
  </note>
  <outline>
    <contour>
      <point x="480" y="-15"/>
      <point x="564" y="1"/>
      <point x="632" y="36" type="curve" smooth="yes"/>
      <point x="640" y="40"/>
      <point x="641" y="48"/>
      <point x="641" y="59" type="curve" smooth="yes"/>
      <point x="641" y="342" type="line" smooth="yes"/>
      <point x="641" y="357"/>
      <point x="634" y="365"/>
      <point x="618" y="365" type="curve" smooth="yes"/>
      <point x="409" y="365" type="line" smooth="yes"/>
      <point x="394" y="365"/>
      <point x="386" y="361"/>
      <point x="386" y="345" type="curve" smooth="yes"/>
      <point x="386" y="338" type="line" smooth="yes"/>
      <point x="386" y="322"/>
      <point x="394" y="316"/>
      <point x="409" y="316" type="curve" smooth="yes"/>
      <point x="587" y="316" type="line"/>
      <point x="587" y="67" type="line"/>
      <point x="541" y="44"/>
      <point x="467" y="31"/>
      <point x="394" y="31" type="curve" smooth="yes"/>
      <point x="230" y="31"/>
      <point x="107" y="122"/>
      <point x="107" y="340" type="curve" smooth="yes"/>
      <point x="107" y="558"/>
      <point x="225" y="649"/>
      <point x="394" y="649" type="curve" smooth="yes"/>
      <point x="474" y="649"/>
      <point x="538" y="631"/>
      <point x="576" y="606" type="curve" smooth="yes"/>
      <point x="584" y="601"/>
      <point x="586" y="602"/>
      <point x="590" y="609" type="curve" smooth="yes"/>
      <point x="603" y="631" type="line" smooth="yes"/>
      <point x="608" y="639"/>
      <point x="605" y="642"/>
      <point x="598" y="647" type="curve"/>
      <point x="547" y="680"/>
      <point x="470" y="695"/>
      <point x="393" y="695" type="curve" smooth="yes"/>
      <point x="176" y="695"/>
      <point x="55" y="562"/>
      <point x="55" y="340" type="curve" smooth="yes"/>
      <point x="55" y="118"/>
      <point x="176" y="-15"/>
      <point x="393" y="-15" type="curve" smooth="yes"/>
    </contour>
    <contour>
      <point x="348" y="-211" type="line" smooth="yes"/>
      <point x="359" y="-211"/>
      <point x="364" y="-208"/>
      <point x="368" y="-200" type="curve"/>
      <point x="432" y="-52" type="line" smooth="yes"/>
      <point x="436" y="-42"/>
      <point x="434" y="-36"/>
      <point x="422" y="-36" type="curve" smooth="yes"/>
      <point x="398" y="-36" type="line" smooth="yes"/>
      <point x="384" y="-36"/>
      <point x="380" y="-39"/>
      <point x="376" y="-50" type="curve" smooth="yes"/>
      <point x="328" y="-195" type="line" smooth="yes"/>
      <point x="325" y="-205"/>
      <point x="326" y="-211"/>
      <point x="336" y="-211" type="curve" smooth="yes"/>
    </contour>
  </outline>
</glyph>
<glyph name="Itilde" format="1">
  <advance width="204"/>
  <unicode hex="0128"/>
  <note>
	Itilde
  </note>
  <outline>
    <contour>
      <point x="220" y="738"/>
      <point x="256" y="755"/>
      <point x="281" y="786" type="curve" smooth="yes"/>
      <point x="295" y="803"/>
      <point x="293" y="813"/>
      <point x="284" y="821" type="curve" smooth="yes"/>
      <point x="269" y="835"/>
      <point x="256" y="831"/>
      <point x="243" y="815" type="curve" smooth="yes"/>
      <point x="226" y="795"/>
      <point x="207" y="784"/>
      <point x="175" y="784" type="curve" smooth="yes"/>
      <point x="115" y="784"/>
      <point x="107" y="841"/>
      <point x="26" y="841" type="curve" smooth="yes"/>
      <point x="-17" y="841"/>
      <point x="-53" y="824"/>
      <point x="-78" y="793" type="curve" smooth="yes"/>
      <point x="-92" y="776"/>
      <point x="-90" y="766"/>
      <point x="-81" y="758" type="curve" smooth="yes"/>
      <point x="-66" y="744"/>
      <point x="-53" y="748"/>
      <point x="-40" y="764" type="curve" smooth="yes"/>
      <point x="-23" y="784"/>
      <point x="-4" y="795"/>
      <point x="28" y="795" type="curve" smooth="yes"/>
      <point x="86" y="795"/>
      <point x="100" y="738"/>
      <point x="177" y="738" type="curve" smooth="yes"/>
    </contour>
    <contour>
      <point x="106" y="0" type="line" smooth="yes"/>
      <point x="122" y="0"/>
      <point x="129" y="8"/>
      <point x="129" y="23" type="curve" smooth="yes"/>
      <point x="129" y="657" type="line" smooth="yes"/>
      <point x="129" y="672"/>
      <point x="122" y="680"/>
      <point x="106" y="680" type="curve" smooth="yes"/>
      <point x="98" y="680" type="line" smooth="yes"/>
      <point x="82" y="680"/>
      <point x="75" y="672"/>
      <point x="75" y="657" type="curve" smooth="yes"/>
      <point x="75" y="23" type="line" smooth="yes"/>
      <point x="75" y="8"/>
      <point x="82" y="0"/>
      <point x="98" y="0" type="curve" smooth="yes"/>
    </contour>
  </outline>
</glyph>
<glyph name="itilde" format="1">
  <advance width="204"/>
  <unicode hex="0129"/>
  <note>
	itilde
  </note>
  <outline>
    <contour>
      <point x="220" y="542"/>
      <point x="256" y="559"/>
      <point x="281" y="590" type="curve" smooth="yes"/>
      <point x="295" y="607"/>
      <point x="293" y="617"/>
      <point x="284" y="625" type="curve" smooth="yes"/>
      <point x="269" y="639"/>
      <point x="256" y="635"/>
      <point x="243" y="619" type="curve" smooth="yes"/>
      <point x="226" y="599"/>
      <point x="207" y="588"/>
      <point x="175" y="588" type="curve" smooth="yes"/>
      <point x="115" y="588"/>
      <point x="107" y="645"/>
      <point x="26" y="645" type="curve" smooth="yes"/>
      <point x="-17" y="645"/>
      <point x="-53" y="628"/>
      <point x="-78" y="597" type="curve" smooth="yes"/>
      <point x="-92" y="580"/>
      <point x="-90" y="570"/>
      <point x="-81" y="562" type="curve" smooth="yes"/>
      <point x="-66" y="548"/>
      <point x="-53" y="552"/>
      <point x="-40" y="568" type="curve" smooth="yes"/>
      <point x="-23" y="588"/>
      <point x="-4" y="599"/>
      <point x="28" y="599" type="curve" smooth="yes"/>
      <point x="86" y="599"/>
      <point x="100" y="542"/>
      <point x="177" y="542" type="curve" smooth="yes"/>
    </contour>
    <contour>
      <point x="106" y="0" type="line" smooth="yes"/>
      <point x="122" y="0"/>
      <point x="129" y="8"/>
      <point x="129" y="23" type="curve" smooth="yes"/>
      <point x="129" y="457" type="line" smooth="yes"/>
      <point x="129" y="472"/>
      <point x="122" y="480"/>
      <point x="106" y="480" type="curve" smooth="yes"/>
      <point x="98" y="480" type="line" smooth="yes"/>
      <point x="82" y="480"/>
      <point x="75" y="472"/>
      <point x="75" y="457" type="curve" smooth="yes"/>
      <point x="75" y="23" type="line" smooth="yes"/>
      <point x="75" y="8"/>
      <point x="82" y="0"/>
      <point x="98" y="0" type="curve" smooth="yes"/>
    </contour>
  </outline>
</glyph>
<glyph name="Ibreve" format="1">
  <advance width="204"/>
  <unicode hex="012C"/>
  <note>
	Ibreve
  </note>
  <outline>
    <contour>
      <point x="199" y="755"/>
      <point x="243" y="818"/>
      <point x="243" y="908" type="curve" smooth="yes"/>
      <point x="243" y="919"/>
      <point x="237" y="926"/>
      <point x="227" y="926" type="curve" smooth="yes"/>
      <point x="203" y="926" type="line" smooth="yes"/>
      <point x="189" y="926"/>
      <point x="186" y="919"/>
      <point x="186" y="907" type="curve" smooth="yes"/>
      <point x="186" y="850"/>
      <point x="172" y="806"/>
      <point x="102" y="806" type="curve" smooth="yes"/>
      <point x="32" y="806"/>
      <point x="18" y="850"/>
      <point x="18" y="907" type="curve" smooth="yes"/>
      <point x="18" y="919"/>
      <point x="15" y="926"/>
      <point x="1" y="926" type="curve" smooth="yes"/>
      <point x="-23" y="926" type="line" smooth="yes"/>
      <point x="-33" y="926"/>
      <point x="-39" y="919"/>
      <point x="-39" y="908" type="curve" smooth="yes"/>
      <point x="-39" y="818"/>
      <point x="5" y="755"/>
      <point x="102" y="755" type="curve" smooth="yes"/>
    </contour>
    <contour>
      <point x="106" y="0" type="line" smooth="yes"/>
      <point x="122" y="0"/>
      <point x="129" y="8"/>
      <point x="129" y="23" type="curve" smooth="yes"/>
      <point x="129" y="657" type="line" smooth="yes"/>
      <point x="129" y="672"/>
      <point x="122" y="680"/>
      <point x="106" y="680" type="curve" smooth="yes"/>
      <point x="98" y="680" type="line" smooth="yes"/>
      <point x="82" y="680"/>
      <point x="75" y="672"/>
      <point x="75" y="657" type="curve" smooth="yes"/>
      <point x="75" y="23" type="line" smooth="yes"/>
      <point x="75" y="8"/>
      <point x="82" y="0"/>
      <point x="98" y="0" type="curve" smooth="yes"/>
    </contour>
  </outline>
</glyph>
<glyph name="ibreve" format="1">
  <advance width="204"/>
  <unicode hex="012D"/>
  <note>
	ibreve
  </note>
  <outline>
    <contour>
      <point x="199" y="538"/>
      <point x="243" y="601"/>
      <point x="243" y="691" type="curve" smooth="yes"/>
      <point x="243" y="702"/>
      <point x="237" y="709"/>
      <point x="227" y="709" type="curve" smooth="yes"/>
      <point x="203" y="709" type="line" smooth="yes"/>
      <point x="189" y="709"/>
      <point x="186" y="702"/>
      <point x="186" y="690" type="curve" smooth="yes"/>
      <point x="186" y="633"/>
      <point x="172" y="589"/>
      <point x="102" y="589" type="curve" smooth="yes"/>
      <point x="32" y="589"/>
      <point x="18" y="633"/>
      <point x="18" y="690" type="curve" smooth="yes"/>
      <point x="18" y="702"/>
      <point x="15" y="709"/>
      <point x="1" y="709" type="curve" smooth="yes"/>
      <point x="-23" y="709" type="line" smooth="yes"/>
      <point x="-33" y="709"/>
      <point x="-39" y="702"/>
      <point x="-39" y="691" type="curve" smooth="yes"/>
      <point x="-39" y="601"/>
      <point x="5" y="538"/>
      <point x="102" y="538" type="curve" smooth="yes"/>
    </contour>
    <contour>
      <point x="106" y="0" type="line" smooth="yes"/>
      <point x="122" y="0"/>
      <point x="129" y="8"/>
      <point x="129" y="23" type="curve" smooth="yes"/>
      <point x="129" y="457" type="line" smooth="yes"/>
      <point x="129" y="472"/>
      <point x="122" y="480"/>
      <point x="106" y="480" type="curve" smooth="yes"/>
      <point x="98" y="480" type="line" smooth="yes"/>
      <point x="82" y="480"/>
      <point x="75" y="472"/>
      <point x="75" y="457" type="curve" smooth="yes"/>
      <point x="75" y="23" type="line" smooth="yes"/>
      <point x="75" y="8"/>
      <point x="82" y="0"/>
      <point x="98" y="0" type="curve" smooth="yes"/>
    </contour>
  </outline>
</glyph>
<glyph name="Iogonek" format="1">
  <advance width="204"/>
  <unicode hex="012E"/>
  <note>
	Iogonek
  </note>
  <outline>
    <contour>
      <point x="106" y="0" type="line" smooth="yes"/>
      <point x="122" y="0"/>
      <point x="129" y="8"/>
      <point x="129" y="23" type="curve" smooth="yes"/>
      <point x="129" y="657" type="line" smooth="yes"/>
      <point x="129" y="672"/>
      <point x="122" y="680"/>
      <point x="106" y="680" type="curve" smooth="yes"/>
      <point x="98" y="680" type="line" smooth="yes"/>
      <point x="82" y="680"/>
      <point x="75" y="672"/>
      <point x="75" y="657" type="curve" smooth="yes"/>
      <point x="75" y="23" type="line" smooth="yes"/>
      <point x="75" y="8"/>
      <point x="82" y="0"/>
      <point x="98" y="0" type="curve" smooth="yes"/>
    </contour>
    <contour>
      <point x="97" y="-186"/>
      <point x="117" y="-184"/>
      <point x="128" y="-178" type="curve"/>
      <point x="140" y="-172"/>
      <point x="141" y="-168"/>
      <point x="138" y="-161" type="curve" smooth="yes"/>
      <point x="128" y="-139" type="line" smooth="yes"/>
      <point x="124" y="-130"/>
      <point x="121" y="-131"/>
      <point x="114" y="-134" type="curve"/>
      <point x="108" y="-137"/>
      <point x="101" y="-138"/>
      <point x="92" y="-138" type="curve" smooth="yes"/>
      <point x="77" y="-138"/>
      <point x="68" y="-128"/>
      <point x="68" y="-111" type="curve" smooth="yes"/>
      <point x="68" y="-82"/>
      <point x="79" y="-55"/>
      <point x="125" y="1" type="curve" smooth="yes"/>
      <point x="132" y="9"/>
      <point x="127" y="17"/>
      <point x="115" y="17" type="curve" smooth="yes"/>
      <point x="94" y="17" type="line" smooth="yes"/>
      <point x="81" y="17"/>
      <point x="77" y="13"/>
      <point x="69" y="4" type="curve" smooth="yes"/>
      <point x="25" y="-46"/>
      <point x="8" y="-83"/>
      <point x="8" y="-119" type="curve" smooth="yes"/>
      <point x="8" y="-155"/>
      <point x="32" y="-186"/>
      <point x="81" y="-186" type="curve" smooth="yes"/>
    </contour>
  </outline>
</glyph>
<glyph name="Idotaccent" format="1">
  <advance width="204"/>
  <unicode hex="0130"/>
  <note>
	Idotaccent
  </note>
  <outline>
    <contour>
      <point x="106" y="0" type="line" smooth="yes"/>
      <point x="122" y="0"/>
      <point x="129" y="8"/>
      <point x="129" y="23" type="curve" smooth="yes"/>
      <point x="129" y="657" type="line" smooth="yes"/>
      <point x="129" y="672"/>
      <point x="122" y="680"/>
      <point x="106" y="680" type="curve" smooth="yes"/>
      <point x="98" y="680" type="line" smooth="yes"/>
      <point x="82" y="680"/>
      <point x="75" y="672"/>
      <point x="75" y="657" type="curve" smooth="yes"/>
      <point x="75" y="23" type="line" smooth="yes"/>
      <point x="75" y="8"/>
      <point x="82" y="0"/>
      <point x="98" y="0" type="curve" smooth="yes"/>
    </contour>
    <contour>
      <point x="109" y="768" type="line" smooth="yes"/>
      <point x="129" y="768"/>
      <point x="142" y="784"/>
      <point x="142" y="803" type="curve" smooth="yes"/>
      <point x="142" y="816" type="line" smooth="yes"/>
      <point x="142" y="835"/>
      <point x="128" y="851"/>
      <point x="109" y="851" type="curve" smooth="yes"/>
      <point x="95" y="851" type="line" smooth="yes"/>
      <point x="76" y="851"/>
      <point x="62" y="835"/>
      <point x="62" y="816" type="curve" smooth="yes"/>
      <point x="62" y="803" type="line" smooth="yes"/>
      <point x="62" y="784"/>
      <point x="76" y="768"/>
      <point x="95" y="768" type="curve" smooth="yes"/>
    </contour>
  </outline>
</glyph>
<glyph name="idotless" format="1">
  <advance width="204"/>
  <unicode hex="0131"/>
  <note>
	dotlessi
  </note>
  <outline>
    <contour>
      <point x="106" y="0" type="line" smooth="yes"/>
      <point x="122" y="0"/>
      <point x="129" y="8"/>
      <point x="129" y="23" type="curve" smooth="yes"/>
      <point x="129" y="457" type="line" smooth="yes"/>
      <point x="129" y="472"/>
      <point x="122" y="480"/>
      <point x="106" y="480" type="curve" smooth="yes"/>
      <point x="98" y="480" type="line" smooth="yes"/>
      <point x="82" y="480"/>
      <point x="75" y="472"/>
      <point x="75" y="457" type="curve" smooth="yes"/>
      <point x="75" y="23" type="line" smooth="yes"/>
      <point x="75" y="8"/>
      <point x="82" y="0"/>
      <point x="98" y="0" type="curve" smooth="yes"/>
    </contour>
  </outline>
</glyph>
<glyph name="IJ" format="1">
  <advance width="601"/>
  <unicode hex="0132"/>
  <note>
	IJ
  </note>
  <outline>
    <contour>
      <point x="464" y="-15"/>
      <point x="526" y="66"/>
      <point x="526" y="174" type="curve" smooth="yes"/>
      <point x="526" y="657" type="line" smooth="yes"/>
      <point x="526" y="672"/>
      <point x="519" y="680"/>
      <point x="503" y="680" type="curve" smooth="yes"/>
      <point x="495" y="680" type="line" smooth="yes"/>
      <point x="479" y="680"/>
      <point x="472" y="672"/>
      <point x="472" y="657" type="curve" smooth="yes"/>
      <point x="472" y="172" type="line" smooth="yes"/>
      <point x="472" y="77"/>
      <point x="425" y="31"/>
      <point x="329" y="31" type="curve" smooth="yes"/>
      <point x="281" y="31"/>
      <point x="232" y="42"/>
      <point x="199" y="64" type="curve" smooth="yes"/>
      <point x="191" y="69"/>
      <point x="189" y="68"/>
      <point x="185" y="61" type="curve"/>
      <point x="171" y="39" type="line" smooth="yes"/>
      <point x="166" y="31"/>
      <point x="170" y="26"/>
      <point x="176" y="23" type="curve"/>
      <point x="222" y="-5"/>
      <point x="277" y="-15"/>
      <point x="337" y="-15" type="curve" smooth="yes"/>
    </contour>
    <contour>
      <point x="106" y="0" type="line" smooth="yes"/>
      <point x="122" y="0"/>
      <point x="129" y="8"/>
      <point x="129" y="23" type="curve" smooth="yes"/>
      <point x="129" y="657" type="line" smooth="yes"/>
      <point x="129" y="672"/>
      <point x="122" y="680"/>
      <point x="106" y="680" type="curve" smooth="yes"/>
      <point x="98" y="680" type="line" smooth="yes"/>
      <point x="82" y="680"/>
      <point x="75" y="672"/>
      <point x="75" y="657" type="curve" smooth="yes"/>
      <point x="75" y="23" type="line" smooth="yes"/>
      <point x="75" y="8"/>
      <point x="82" y="0"/>
      <point x="98" y="0" type="curve" smooth="yes"/>
    </contour>
  </outline>
</glyph>
